<svg xmlns="http://www.w3.org/2000/svg" viewBox="0 0 750 500"><g id="freepik--background-simple--inject-22"><path d="M524.45,100.84C414.76,146,314.28,36,204.28,56.63,149.34,67,102.1,105.09,71.74,150.89,39.23,200,22.87,263.93,44.22,320.68a147.21,147.21,0,0,0,25.69,43.26c62.19,73.18,194.41,113.25,285,76l1.26-.52c100.39-42.46,173.71,9.89,260.49-14.74,97.9-27.78,121.28-164.1,86.2-246.79-9.75-23-26.64-43.38-46.41-58.46C618.6,90.63,568.71,82.62,524.45,100.84Z" style="fill:#92E3A9"></path><path d="M524.45,100.84C414.76,146,314.28,36,204.28,56.63,149.34,67,102.1,105.09,71.74,150.89,39.23,200,22.87,263.93,44.22,320.68a147.21,147.21,0,0,0,25.69,43.26c62.19,73.18,194.41,113.25,285,76l1.26-.52c100.39-42.46,173.71,9.89,260.49-14.74,97.9-27.78,121.28-164.1,86.2-246.79-9.75-23-26.64-43.38-46.41-58.46C618.6,90.63,568.71,82.62,524.45,100.84Z" style="fill:#fff;opacity:0.7000000000000001"></path></g><g id="freepik--Clouds--inject-22"><path d="M92.45,309.81s4.15-7.82,12.45-9.28,11.48,7.57,13.68,9.77,2.93-2,6.84-1.71,4.88,2.68,5.61,3.91,3.45-2.81,5-2.26a4.39,4.39,0,0,1,2.29,2.28l5.64,1H80.24a4.71,4.71,0,0,1,3.66-5.13C88.05,307.37,90.74,310.3,92.45,309.81Z" style="fill:#fff"></path><path d="M144,314H79.79l-.05-.44s-.49-4.61,4.05-5.67a9.72,9.72,0,0,1,6.3.9,5.33,5.33,0,0,0,2,.6c.75-1.31,4.92-7.95,12.69-9.32,6.76-1.2,10.22,4.14,12.5,7.67a16,16,0,0,0,1.61,2.23c.8.8,1.15.59,2.24-.26a6,6,0,0,1,4.28-1.59,6.45,6.45,0,0,1,5.8,3.77c.07.14.14.26.21.38h0a6,6,0,0,0,1.45-1c1.06-.85,2.26-1.83,3.31-1.46a4.74,4.74,0,0,1,2.46,2.3l5.38.91Zm-11.75-1H138l-.11-.26a3.88,3.88,0,0,0-2-2c-.52-.19-1.58.68-2.35,1.3A9.75,9.75,0,0,1,132.23,313Zm-51.52,0h50.07a1.42,1.42,0,0,1-.18-.22l-.22-.39a5.44,5.44,0,0,0-5-3.27,4.9,4.9,0,0,0-3.59,1.38c-1,.77-2.11,1.64-3.57.18a16.21,16.21,0,0,1-1.74-2.4c-2.14-3.31-5.38-8.31-11.49-7.23-8,1.41-12.06,9-12.1,9l-.1.19-.21.06a4.64,4.64,0,0,1-2.87-.6,8.76,8.76,0,0,0-5.7-.86A4.07,4.07,0,0,0,80.71,313Z" style="fill:#263238"></path><path d="M643,283.06s-8.38-15.78-25.15-18.73-23.17,15.28-27.61,19.72-5.92-3.94-13.81-3.45-9.86,5.42-11.34,7.89-7-5.66-10.14-4.56-4.61,4.61-4.61,4.61L539,290.46H667.67s1-8.38-7.4-10.35S646.47,284.05,643,283.06Z" style="fill:#fff"></path><path d="M668.12,291H539l-.08-1L550,288.09a9.08,9.08,0,0,1,4.79-4.63c1.85-.64,4.15,1.23,6.19,2.88,1.28,1,2.75,2.23,3.41,2.11.08,0,.17-.05.27-.22s.29-.49.44-.76c1.46-2.58,3.9-6.91,11.3-7.37,4-.24,6.36,1.62,8.28,3.11s3.2,2.49,5.21.49a32.28,32.28,0,0,0,3.31-4.6c4.55-7,11.41-17.62,24.74-15.27,15.78,2.79,24.33,16.94,25.39,18.8,1.19.23,2.72-.41,4.63-1.21,3.22-1.35,7.23-3,12.42-1.8,8.72,2.05,7.79,10.81,7.78,10.9Zm-123.19-1H667.21c.06-1.71-.2-7.75-7.05-9.37-4.88-1.14-8.72.46-11.8,1.75-2.11.89-3.93,1.65-5.48,1.2l-.21-.05-.1-.19c-.08-.16-8.47-15.6-24.79-18.48-12.67-2.24-19.33,8-23.73,14.82a31,31,0,0,1-3.45,4.76c-2.62,2.63-4.51,1.16-6.52-.4s-4-3.13-7.61-2.9c-6.86.43-9,4.3-10.49,6.86l-.45.79a1.39,1.39,0,0,1-1,.69c-1.1.19-2.55-1-4.21-2.33-1.83-1.48-3.91-3.18-5.24-2.7-2.91,1-4.29,4.29-4.3,4.32l-.11.26Z" style="fill:#263238"></path><path d="M482.45,134.53s-7.12-13.4-21.36-15.91-19.68,13-23.45,16.75-5-3.35-11.73-2.93-8.38,4.61-9.63,6.7-5.92-4.81-8.62-3.87a7.53,7.53,0,0,0-3.91,3.91l-9.67,1.63H503.39s.84-7.12-6.28-8.79S485.38,135.37,482.45,134.53Z" style="fill:#fff"></path><path d="M503.84,141.31H394.08l-.08-1,9.41-1.59a7.75,7.75,0,0,1,4.09-3.93c1.61-.56,3.5,1,5.33,2.45,1,.84,2.31,1.88,2.84,1.78,0,0,.1,0,.18-.15s.24-.41.37-.65c1.25-2.2,3.33-5.9,9.66-6.29,3.38-.21,5.44,1.38,7.09,2.66s2.66,2.07,4.31.42a26.53,26.53,0,0,0,2.81-3.9c3.87-6,9.71-15,21.09-13,13.35,2.36,20.62,14.27,21.6,16,1,.16,2.26-.37,3.85-1,2.75-1.15,6.17-2.58,10.6-1.54,7.46,1.76,6.67,9.27,6.66,9.34Zm-103.8-1H502.93a7.41,7.41,0,0,0-5.93-7.8c-4.12-1-7.37.39-10,1.48-1.81.75-3.37,1.4-4.71,1l-.2-.06-.1-.18c-.07-.13-7.18-13.22-21-15.66-10.72-1.89-16.35,6.8-20.08,12.56a27.16,27.16,0,0,1-2.94,4.05c-2.28,2.28-3.91,1-5.64-.33s-3.4-2.65-6.41-2.45c-5.78.36-7.63,3.62-8.85,5.79-.13.24-.26.46-.38.67a1.28,1.28,0,0,1-.87.62c-1,.17-2.15-.78-3.64-2s-3.29-2.67-4.37-2.29a7.06,7.06,0,0,0-3.62,3.63l-.1.26Z" style="fill:#263238"></path><path d="M58.78,270.77S69,251.62,89.29,248,117.41,266.58,122.8,272s7.17-4.79,16.75-4.19,12,6.58,13.76,9.57,8.45-6.87,12.3-5.53,5.59,5.59,5.59,5.59L185,279.74H28.87s-1.2-10.17,9-12.56S54.59,272,58.78,270.77Z" style="fill:#fff"></path><path d="M185,280.24H28.42l-.05-.44c0-.11-1.13-10.64,9.36-13.11,6.26-1.47,11.11.56,15,2.18,2.36,1,4.24,1.77,5.72,1.47,1.17-2.06,11.53-19.4,30.76-22.8,16.1-2.84,24.41,10,29.9,18.48a38.76,38.76,0,0,0,4,5.59c2.5,2.5,4,1.34,6.45-.58,2.32-1.8,5.2-4.06,10-3.75,8.92.56,11.86,5.77,13.62,8.88.19.33.37.65.54.93a.57.57,0,0,0,.4.32c.87.17,2.65-1.31,4.22-2.59,2.45-2,5.22-4.23,7.41-3.47,3.5,1.22,5.32,4.63,5.78,5.61l13.55,2.29Zm-155.69-1H179.05l-8.21-1.38-.11-.26s-1.7-4.06-5.29-5.31c-1.66-.58-4.2,1.49-6.44,3.31-2,1.62-3.73,3-5,2.79a1.54,1.54,0,0,1-1.09-.78c-.18-.3-.36-.62-.55-1-1.77-3.12-4.44-7.85-12.81-8.37-4.39-.28-7.12,1.84-9.31,3.54-2.49,1.94-4.65,3.62-7.77.5a39.74,39.74,0,0,1-4.17-5.76c-5.35-8.27-13.44-20.76-28.89-18C69.52,252,59.32,270.81,59.22,271l-.1.19-.2.06c-1.84.53-3.93-.35-6.58-1.45-3.76-1.58-8.44-3.53-14.38-2.13C29.42,269.67,29.23,277.29,29.33,279.24Z" style="fill:#263238"></path></g><g id="freepik--Sun--inject-22"><circle cx="386.17" cy="313.96" r="52.35" style="fill:#fff"></circle><path d="M386.17,366.8A52.85,52.85,0,1,1,439,314,52.9,52.9,0,0,1,386.17,366.8Zm0-104.69A51.85,51.85,0,1,0,438,314,51.91,51.91,0,0,0,386.17,262.11Z" style="fill:#263238"></path><rect x="383.45" y="217.55" width="1" height="31.16" style="fill:#263238"></rect><rect x="450.27" y="314.52" width="68.71" height="1" style="fill:#263238"></rect><rect x="276.89" y="314.52" width="49.54" height="1" style="fill:#263238"></rect><rect x="430.73" y="259.39" width="21.5" height="1" transform="translate(-60.59 361.76) rotate(-41.95)" style="fill:#263238"></rect><rect x="333.11" y="249.14" width="1" height="21.5" transform="translate(-82.74 334.01) rotate(-48.01)" style="fill:#263238"></rect><rect x="342.3" y="185.3" width="1" height="73.27" transform="translate(-64.05 186.65) rotate(-27.96)" style="fill:#263238"></rect><rect x="397.04" y="231.03" width="45.74" height="1" transform="translate(22.67 500.1) rotate(-62.93)" style="fill:#263238"></rect><rect x="446.7" y="289.76" width="15.92" height="1" transform="translate(-66.27 150.28) rotate(-17.51)" style="fill:#263238"></rect><rect x="318.33" y="282.3" width="1" height="15.92" transform="matrix(0.3, -0.95, 0.95, 0.3, -53.96, 506.89)" style="fill:#263238"></rect></g><g id="freepik--seagulls-2--inject-22"><path d="M508.1,209.08a63.36,63.36,0,0,0-5.28-4.15c-2.26-1.51-6-3.77-6-3.77s4.9,5.65,6.41,7.16,3,3.39,3,3.39a8.42,8.42,0,0,0,3.39,0c1.88-.37,7.91-2.26,7.91-2.26l4.53-1.13Z" style="fill:#263238"></path><path d="M579.49,185.8a34.28,34.28,0,0,0-3-2.33c-1.27-.85-3.39-2.12-3.39-2.12s2.75,3.18,3.6,4,1.69,1.91,1.69,1.91a4.84,4.84,0,0,0,1.91,0c1.06-.21,4.45-1.27,4.45-1.27l2.54-.64Z" style="fill:#263238"></path><path d="M545,203.05s-2.64-4.15-4.15-5.28-7.54-6-7.54-6a64,64,0,0,1,7.85,4,29.68,29.68,0,0,1,3.9,3.53,30.63,30.63,0,0,1,3.71-4.83,45,45,0,0,1,5-3.35S545,202.13,545,203.05Z" style="fill:#263238"></path><path d="M596.47,180.06a15.43,15.43,0,0,0-2.13-2.71c-.77-.58-3.87-3.1-3.87-3.1a33.83,33.83,0,0,1,4,2.08,15,15,0,0,1,2,1.81,16,16,0,0,1,1.91-2.48,23.14,23.14,0,0,1,2.58-1.72S596.44,179.59,596.47,180.06Z" style="fill:#263238"></path><path d="M554.2,214.73s-2.79,1.67-3.9,2.41-8.36,3.9-8.91,4.09,7.05-.93,8.17-1.12a53.82,53.82,0,0,0,5.94-2.41l2.78,1.11,1.3-.55a20.25,20.25,0,0,1,2.6.37c.56.18,11,1.67,11,1.67s-14.48-5-15.41-5.2a6.36,6.36,0,0,1-2.23-1.49Z" style="fill:#263238"></path><path d="M564,240.53s-1.83,1.1-2.56,1.58-5.47,2.56-5.84,2.68,4.63-.61,5.36-.73a35.37,35.37,0,0,0,3.89-1.58l1.83.73.85-.37a14.45,14.45,0,0,1,1.7.25c.37.12,7.18,1.09,7.18,1.09s-9.49-3.28-10.1-3.4a4.22,4.22,0,0,1-1.46-1Z" style="fill:#263238"></path><path d="M599.82,192.6s1.83,1.1,2.56,1.58,5.47,2.56,5.84,2.68-4.63-.61-5.36-.73a35.37,35.37,0,0,1-3.89-1.58l-1.83.73-.85-.37a12.58,12.58,0,0,0-1.7.25c-.37.12-7.18,1.09-7.18,1.09s9.49-3.28,10.1-3.41a4.1,4.1,0,0,0,1.46-1Z" style="fill:#263238"></path></g><g id="freepik--Sea--inject-22"><path d="M705.72,335.08,50.35,333.55A150.24,150.24,0,0,0,70,363.22c62,73.33,194.14,113.71,284.78,76.7l1.25-.52c100.5-42.23,173.69,10.29,260.52-14.13C661.23,412.7,690.46,377.5,705.72,335.08Z" style="fill:#92E3A9"></path><rect x="320.03" y="341.69" width="124.64" height="1" style="fill:#fff"></rect><rect x="341.73" y="339.04" width="86.56" height="1" style="fill:#fff"></rect><rect x="339.75" y="346.02" width="24.21" height="1" style="fill:#fff"></rect><rect x="417.01" y="346.02" width="8.95" height="1" style="fill:#fff"></rect><rect x="405.74" y="350" width="8.95" height="1" style="fill:#fff"></rect><rect x="376.89" y="350" width="23.54" height="1" style="fill:#fff"></rect><rect x="335.11" y="336.07" width="107.1" height="1" style="fill:#fff"></rect><rect x="374.24" y="356.96" width="25.53" height="1" style="fill:#fff"></rect><rect x="365.28" y="353.32" width="23.54" height="1" style="fill:#fff"></rect><rect x="389.49" y="353.32" width="23.54" height="1" style="fill:#fff"></rect><rect x="359.65" y="349" width="8.95" height="1" style="fill:#fff"></rect><rect x="368.6" y="346.02" width="44.76" height="1" style="fill:#fff"></rect><rect x="458.81" y="343.28" width="43.13" height="1" style="fill:#263238"></rect><rect x="508.1" y="343.28" width="7.7" height="1" style="fill:#263238"></rect><rect x="438.27" y="352.52" width="105.78" height="1" style="fill:#263238"></rect><rect x="504" y="390" width="41.08" height="1" style="fill:#263238"></rect><rect x="648.28" y="390.52" width="29.27" height="1" style="fill:#263238"></rect><rect x="653.93" y="397.71" width="20.54" height="1" style="fill:#263238"></rect><rect x="532.24" y="395.65" width="36.46" height="1" style="fill:#263238"></rect><rect x="585.64" y="396.16" width="22.08" height="1" style="fill:#263238"></rect><rect x="581.02" y="400.79" width="46.73" height="1" style="fill:#263238"></rect><rect x="567.67" y="404.38" width="19" height="1" style="fill:#263238"></rect><rect x="605.15" y="405.92" width="46.73" height="1" style="fill:#263238"></rect><rect x="658.04" y="405.41" width="14.89" height="1" style="fill:#263238"></rect><rect x="594.88" y="412.6" width="17.46" height="1" style="fill:#263238"></rect><rect x="636.47" y="411.05" width="23.11" height="1" style="fill:#263238"></rect><rect x="280.64" y="400.27" width="53.4" height="1" style="fill:#263238"></rect><rect x="222.1" y="395.65" width="52.89" height="1" style="fill:#263238"></rect><rect x="152.78" y="401.81" width="117.59" height="1" style="fill:#263238"></rect><rect x="43.41" y="396.16" width="32.35" height="1" style="fill:#263238"></rect><rect x="83.46" y="396.68" width="15.4" height="1" style="fill:#263238"></rect><rect x="63.95" y="402.33" width="69.32" height="1" style="fill:#263238"></rect><rect x="105.03" y="405.92" width="93.97" height="1" style="fill:#263238"></rect><rect x="99.89" y="413.11" width="84.72" height="1" style="fill:#263238"></rect><rect x="225.18" y="411.57" width="34.92" height="1" style="fill:#263238"></rect><rect x="206.18" y="417.73" width="47.75" height="1" style="fill:#263238"></rect><rect x="265.75" y="408.49" width="78.56" height="1" style="fill:#263238"></rect><rect x="259.07" y="417.73" width="13.35" height="1" style="fill:#263238"></rect><rect x="162.02" y="422.35" width="29.78" height="1" style="fill:#263238"></rect><rect x="124.03" y="422.86" width="15.92" height="1" style="fill:#263238"></rect><rect x="81.41" y="407.97" width="9.76" height="1" style="fill:#263238"></rect><rect x="49.57" y="413.11" width="40.05" height="1" style="fill:#263238"></rect><rect x="70.11" y="421.32" width="24.13" height="1" style="fill:#263238"></rect><rect x="82.95" y="426.46" width="20.03" height="1" style="fill:#263238"></rect><rect x="114.78" y="429.54" width="42.1" height="1" style="fill:#263238"></rect><rect x="195.4" y="425.95" width="23.11" height="1" style="fill:#263238"></rect><rect x="650.34" y="338.14" width="37.48" height="1" style="fill:#263238"></rect><rect x="671.39" y="348.92" width="20.03" height="1" style="fill:#263238"></rect><rect x="621.58" y="346.36" width="31.32" height="1" style="fill:#263238"></rect><rect x="529.67" y="358.17" width="16.43" height="1" style="fill:#263238"></rect><rect x="422.87" y="360.73" width="74.97" height="1" style="fill:#263238"></rect><rect x="319.15" y="355.09" width="34.92" height="1" style="fill:#263238"></rect><rect x="283.72" y="346.87" width="31.32" height="1" style="fill:#263238"></rect><rect x="205.16" y="340.71" width="101.15" height="1" style="fill:#263238"></rect><rect x="31.37" y="333.82" width="699.54" height="1" style="fill:#263238"></rect></g><g id="freepik--Rocks--inject-22"><path d="M705.58,334.34A218.17,218.17,0,0,0,716.77,285l-96,27-9.5-4-14.58,4.59L584,299.35,549.79,328.6l-11.41.57-34.22,5.17Z" style="fill:#cfcfcf"></path><path d="M705.93,334.84H504.16l-.07-1,34.22-5.16,11.28-.57L584,298.66,596.83,312l14.45-4.55,9.52,4,96.55-27.16-.08.74a218,218,0,0,1-11.22,49.48Zm-195.1-1h194.4a217,217,0,0,0,11-48.19l-95.46,26.84-9.5-4-14.69,4.63L584,300l-34,29.06-11.57.58Z" style="fill:#263238"></path><polygon points="583.71 301.88 582.48 317.19 594.73 313.21 583.71 301.88" style="fill:#263238"></polygon><path d="M581.92,317.9l1.38-17.16,12.35,12.7Zm2.2-14.88L583,316.48l10.77-3.5Z" style="fill:#263238"></path><path d="M620.43,316.23l-37.23,9.31L610,324.45l6,5.47,43.25-5.47-2.73-7.12,31.75-8.76,1.1,10.4,22.09-4.42A225.91,225.91,0,0,0,716.77,285l-96,27-9.5-4-4.52,9.38Z" style="fill:#263238"></path><path d="M615.88,330.45l-6-5.5-31.5,1.29,36.11-9-8.54.68L611,307.3l9.79,4.14,96.55-27.16-.08.74A226.24,226.24,0,0,1,712,314.67l-.08.31L689,319.57l-1.09-10.36-30.66,8.45,2.77,7.2Zm-5.67-6.51,6,5.45L658.61,324l-2.71-7,32.86-9.06,1.1,10.44,21.24-4.25a225.84,225.84,0,0,0,5.09-28.47l-95.46,26.84-9.23-3.9-3.93,8.17,12.82-1,.16,1-32.5,8.12Z" style="fill:#263238"></path></g><g id="freepik--rock-1--inject-22"><polygon points="623.5 376.72 587.6 342.44 572.87 349.3 557.23 368.15 555.38 392.15 642.83 392.15 623.5 376.72" style="fill:#cfcfcf"></polygon><path d="M644.26,392.65H554.84l1.9-24.7,15.92-19.11,15-7,36.13,34.5Zm-88.34-1H641.4l-18.25-14.57L587.5,343l-14.31,6.66-15.48,18.65Z" style="fill:#263238"></path><path d="M564.81,392.15h78L640,389.88c-14.22-7.79-34.3-19.66-39.5-27.17-8.29-12-12.89-6.44-12.89-6.44s-.92,17.49-3.68,17.49-12,.92-12,.92Z" style="fill:#263238"></path><path d="M644.26,392.65h-80.2l7.54-18.44.3,0c.38,0,9.26-.92,12-.92,1.24,0,2.7-7.8,3.18-17v-.16l.11-.13a4.67,4.67,0,0,1,3.7-1.45c3.08.14,6.43,2.8,10,7.93,5,7.28,24.17,18.71,39.33,27Zm-78.71-1H641.4l-1.72-1.37C624.5,382,605.23,370.44,600.08,363c-4.17-6-7.29-7.4-9.18-7.5a3.76,3.76,0,0,0-2.81,1c-.24,4.41-1.21,17.78-4.17,17.78-2.43,0-10,.73-11.62.88Z" style="fill:#263238"></path></g><g id="freepik--seagull-1--inject-22"><path d="M224.29,228.83s-2.71,9.45-2.53,10.81,2.66,16.17,2.66,16.17l2.16,2.95,2,2h0l-5.89-1.7L220,239.64l2.71-10.14Z" style="fill:#263238"></path><path d="M230.39,261.8l-8.1-2.34-2.76-19.85,2.79-10.48,2.75-1.17-.29,1c-1,3.62-2.64,9.69-2.53,10.6.17,1.27,2.41,14.64,2.64,16l2.09,2.86Zm-7.2-3.12,3.67,1.06-.63-.62L224,256l0-.12c-.11-.6-2.49-14.84-2.67-16.19-.15-1.19,1.51-7.3,2.27-10l-.37.15-2.62,9.81Z" style="fill:#263238"></path><path d="M216.63,232.43s-2.17,7.31-1.78,8.89,2.18,8.49,2.18,8.49v9.29s-.6,3,.79,3.55,6.71.6,7.31.6,8.1,1.58,8.1,1.58l2.76.39a39.06,39.06,0,0,0-5.53-3.16,43.63,43.63,0,0,0-6.52-1.58,4.74,4.74,0,0,1-2.17-.59s-1.39-8.5-1.78-11.26-1.38-8.89-1.38-8.89l2.17-7.91Z" style="fill:#263238"></path><path d="M238.1,266l-4.94-.71c-2.89-.61-7.58-1.56-8-1.57-1.81,0-6.17-.07-7.5-.64-1.71-.73-1.15-3.77-1.08-4.11v-9.13c-.18-.68-1.79-6.94-2.16-8.43-.42-1.67,1.56-8.4,1.78-9.16l.09-.3,5.22-.75-2.34,8.53c.13.83,1,6.26,1.36,8.79s1.51,9.59,1.74,11a4.2,4.2,0,0,0,1.72.42,34.72,34.72,0,0,1,6.11,1.44l.55.16c1.44.41,5.5,3.11,5.67,3.22ZM217,232.88c-.82,2.8-1.94,7.3-1.68,8.31.39,1.58,2.17,8.5,2.17,8.5l0,.12v9.29c-.18.93-.28,2.77.48,3.09,1,.41,4.43.56,7.12.56.61,0,6.94,1.32,8.2,1.59l.46.06a21.43,21.43,0,0,0-3.47-1.86l-.55-.16a39.74,39.74,0,0,0-5.83-1.4,5.34,5.34,0,0,1-2.43-.66l-.2-.12,0-.23c0-.09-1.38-8.53-1.78-11.27s-1.37-8.82-1.38-8.89v-.1l2-7.27Z" style="fill:#263238"></path><path d="M266,137.79a33.69,33.69,0,0,1-3.95-2.17c-3-1.78-3.16-4.35-7.31-5.53s-10.86-2.77-16,1.58-7.71,8.49-6.52,15.8,3.95,15,1.38,19.36S221,178.1,216.83,179.28s-19.16,9.29-28.85,15a70.44,70.44,0,0,1-16.79,7.5s-12.05,4.94-14.62,7.12l-5.13,4.34s-27.86,5.53-28.26,7.71,16.8,1.77,16.8,1.77-13.24,4.35-9.68,5.14,11.85-.79,11.85-.79l8.3-.79s-11.66,3.36-8.7,4.54,21.93-.19,21.93-.19l15.61.59,16.2-1.19s10.08,2.77,25.29,1.78,29.24-10.07,36.55-18.37,5.73-31.22,3.75-36.15-7.31-22.33-7.5-25.69a6.56,6.56,0,0,1,6.32-6.72,37.25,37.25,0,0,1,6.71,0c1.59.2,5.34,2.38,7.31,3a12.38,12.38,0,0,0,4.55.2s.2-4.75-2.37-6.33S266,137.79,266,137.79Z" style="fill:#fff"></path><path d="M214.3,232.54a80.78,80.78,0,0,1-18.85-2l-16.12,1.18-15.66-.59c-.73,0-19.07,1.37-22.1.16-.69-.27-.81-.69-.8-1,0-1,2.46-2.13,5.12-3.09l-3.69.35c-.3.06-8.4,1.58-12,.78-.64-.14-1-.43-1-.87-.05-1,2.53-2.38,7.67-4.22-4.77,0-12.73-.2-13.94-1.62a.94.94,0,0,1-.23-.78c.41-2.26,20-6.38,28.52-8.08l5-4.27c2.6-2.2,14.26-7,14.75-7.19a70.68,70.68,0,0,0,16.73-7.47c9.07-5.37,24.6-13.82,29-15.07,3.91-1.12,13.91-7.83,16.5-12.22,1.84-3.12.76-8.22-.39-13.62-.37-1.77-.76-3.61-1.05-5.41-1.26-7.76,1.62-12,6.69-16.26,5.64-4.78,13.22-2.61,16.46-1.68a9.23,9.23,0,0,1,4.88,3.3,10.34,10.34,0,0,0,2.55,2.28,36,36,0,0,0,3.86,2.13c.54.17,7.62,2.43,10.17,4,2.79,1.71,2.62,6.56,2.61,6.77l0,.41-.41.06a12.7,12.7,0,0,1-4.76-.21,29.19,29.19,0,0,1-3.36-1.42,18.57,18.57,0,0,0-3.87-1.53,36.29,36.29,0,0,0-6.63,0,6.26,6.26,0,0,0-4.36,2.08,5.71,5.71,0,0,0-1.49,4.11c.19,3.19,5.45,20.45,7.48,25.53,2.15,5.37,3.6,28.22-3.85,36.67s-21.82,17.56-36.89,18.54C218.52,232.48,216.34,232.54,214.3,232.54Zm-18.76-3,.08,0c.1,0,10.18,2.74,25.13,1.76,14.78-1,28.83-9.83,36.2-18.2,7.08-8,5.7-30.57,3.67-35.64-1.89-4.73-7.34-22.29-7.54-25.84a6.62,6.62,0,0,1,1.74-4.84,7.22,7.22,0,0,1,5.05-2.4,36.52,36.52,0,0,1,6.81,0,18.54,18.54,0,0,1,4.16,1.61,29.18,29.18,0,0,0,3.23,1.37,11.13,11.13,0,0,0,3.9.23c0-1.14-.27-4.3-2.13-5.45-2.49-1.53-9.89-3.88-10-3.9h0a35,35,0,0,1-4-2.21,11.39,11.39,0,0,1-2.78-2.48,8.28,8.28,0,0,0-4.41-3c-5.1-1.46-10.93-2.42-15.54,1.48-4.8,4.06-7.53,8-6.35,15.34.29,1.78.68,3.6,1.05,5.36,1.19,5.6,2.31,10.89.27,14.34-2.69,4.55-13.05,11.52-17.08,12.67s-18.29,8.79-28.73,15a71.55,71.55,0,0,1-16.93,7.56c-.05,0-11.94,4.91-14.42,7l-5.23,4.43-.13,0c-12.91,2.57-26.7,6-27.83,7.29.81,1,9,1.37,16.26,1.2l3.38-.07-3.21,1.05c-4.22,1.39-8.95,3.29-9.83,4.15l.1,0c3.42.76,11.57-.77,11.66-.79l8.34-.8.19,1c-3.9,1.12-8.22,2.77-8.78,3.54l.13.06c2.34.94,16.46.15,21.71-.23l15.66.59Z" style="fill:#263238"></path><path d="M277.62,147.36s-.73-3.33-2-4.46-8.72-3.93-8.72-3.93a5.34,5.34,0,0,0-.54.93,2.47,2.47,0,0,1-1.86,1.14c-1.13.2-3,.46-3,.46s1.14,1.8,1.53,1.87a12,12,0,0,1,4.8,1c2.19,1.07,4.39,1.8,5.06,2.27a6.43,6.43,0,0,0,2.66.8Z" style="fill:#92E3A9"></path><path d="M278.18,148.48l-2-1.39s-7.65-4.3-10.51-5.06-9.94-1.56-10-1.57l.11-1A99.63,99.63,0,0,1,266,141.06c3,.8,10.47,5,10.79,5.19l2,1.41Z" style="fill:#263238"></path><path d="M263.2,141.23l-.28-.95,2-.6a5.86,5.86,0,0,0,.64-2l1,.18c-.16.92-.56,2.5-1.32,2.76Z" style="fill:#263238"></path><rect x="260.58" y="140.59" width="1" height="4.27" transform="translate(-35.33 168.79) rotate(-33.69)" style="fill:#263238"></rect><path d="M252,135.52c0,.93-.49,1.68-1.09,1.68s-1.09-.75-1.09-1.68.49-1.68,1.09-1.68S252,134.59,252,135.52Z" style="fill:#263238"></path><path d="M220.58,178.29s6.72-1.78,8.5.6,1.78,3.55,4.54,3.75,9.88.39,8.5,3.36a64.49,64.49,0,0,1-5.53,8.3s11.85-3.56,10.66,4.14-8.29,15.81-17.78,21.14-6.32,7.51-25.88,7.51-34.37-4.94-36.55-7.9,1.78-9.68,3.76-10.87,7.31-4.54,7.31-4.54-10.47,2.37-6.33,1,9.09-1.39,12.25-3,6.13-3.16,4.74-3.16a14.72,14.72,0,0,1-3.35-.59L188,194.3S212.28,179.48,220.58,178.29Z" style="fill:#263238"></path><path d="M203.59,227.59c-18.93,0-34.53-4.8-37-8.11a5,5,0,0,1-.57-4c.62-3.07,3-6.65,4.47-7.56,1.07-.64,3.17-1.95,4.84-3-4.87,1.06-4.92.88-5,.41s.36-.71,1.3-1a38.9,38.9,0,0,1,5.87-1.3,24,24,0,0,0,6.31-1.63c2.3-1.16,3.55-1.85,4.21-2.26a18.1,18.1,0,0,1-2.75-.57l-.65-.2,3.1-4.46c1-.61,24.43-14.85,32.76-16.07.85-.22,7.1-1.75,9,.79.41.54.73,1,1,1.46.9,1.38,1.28,2,3.17,2.09l.71.05c3.61.23,7.21.59,8.18,2.22a1.85,1.85,0,0,1,0,1.8,51.45,51.45,0,0,1-4.73,7.25c2.23-.48,6.53-1.08,8.69.81a4.37,4.37,0,0,1,1.22,4.25c-1.18,7.67-8.09,15.91-18,21.5a52.49,52.49,0,0,0-5.11,3.29C220.35,226.34,218.59,227.59,203.59,227.59Zm-24.44-23.88-.78.49c-.05,0-5.36,3.38-7.32,4.55-1.19.72-3.4,3.93-4,6.9a4.25,4.25,0,0,0,.4,3.24c1.91,2.62,16.41,7.7,36.14,7.7,14.68,0,16.37-1.2,20.44-4.09a55.89,55.89,0,0,1,5.2-3.35c9.68-5.45,16.4-13.41,17.53-20.78a3.44,3.44,0,0,0-.88-3.35c-2.53-2.2-9.09-.27-9.15-.25l-1.5.45,1-1.23c0-.05,4.13-5.33,5.47-8.2a.84.84,0,0,0,0-.87c-.78-1.31-5.24-1.6-7.39-1.73l-.71-.05c-2.39-.17-3-1.12-3.94-2.55-.27-.41-.58-.88-1-1.4-1.29-1.72-6.19-.88-8-.41h-.06c-7.85,1.12-30.67,14.88-32.31,15.88l-2.11,3.08a11.65,11.65,0,0,0,2.54.39c.6,0,.78.27.84.5.13.55-.05,1-5.35,3.61A19.3,19.3,0,0,1,179.15,203.71Z" style="fill:#263238"></path><path d="M123.18,221c-.39,2.17,16.8,1.77,16.8,1.77s-13.24,4.35-9.68,5.14,11.85-.79,11.85-.79l8.3-.79,1.38-1.38,10.47-1.19s-7.11-.19-7.31-3.95,6.92-7.7,6.92-7.7l-10.47,1.18S123.58,218.79,123.18,221Z" style="fill:#263238"></path><path d="M132.91,228.6a12.84,12.84,0,0,1-2.72-.23c-.64-.14-1-.43-1-.87-.05-1,2.53-2.38,7.67-4.22-4.74,0-12.73-.2-13.94-1.62a.94.94,0,0,1-.23-.78c.41-2.27,20.17-6.43,28.65-8.11l13-1.47-2.18,1.21c-1.9,1.06-6.81,4.42-6.66,7.24.17,3.25,6.76,3.48,6.83,3.48l0,1-10.3,1.17-1.39,1.38-8.47.81A59.56,59.56,0,0,1,132.91,228.6Zm-2.61-1.23.1,0c3.42.76,11.57-.77,11.66-.79l8.16-.78,1.38-1.38,7-.79c-2-.57-4-1.67-4.1-3.84-.14-2.75,3.13-5.49,5.3-7l-8.3.94c-12.87,2.56-26.66,6-27.79,7.28.81,1,9,1.37,16.26,1.2l3.38-.07-3.21,1.05C135.91,224.61,131.18,226.51,130.3,227.37Z" style="fill:#263238"></path><path d="M159.16,228.25c-4.45,0-6.95-.26-7-.27l.11-1a100.5,100.5,0,0,0,14.93,0c9.34-.59,15.1-1.57,15.16-1.58l.17,1c-.06,0-5.87,1-15.27,1.59C164.12,228.18,161.4,228.25,159.16,228.25Z" style="fill:#263238"></path><path d="M250.33,152.12a2.74,2.74,0,0,1-1.71-1.25,2.18,2.18,0,0,1-1.41,1.06,1.23,1.23,0,0,1-1.15-.61c-1.1-1.53-.7-4-.68-4.13l1,.17a5.54,5.54,0,0,0,.51,3.38c0,.06.18.22.25.2.28,0,.79-.71,1.06-1.31l.5-1.07.42,1.11c.14.36.66,1.34,1.4,1.46Z" style="fill:#263238"></path><path d="M107,343.61l19.21-36.41,37.42-13.14s32.36-28.32,36.4-29.33,28.32-3,28.32-3l23.26,11.13,13.14,3L285,314.28l9.1,39.44,42.47,17.19,11.12,21.24H61.52l19.12-37.68L104,352.71Z" style="fill:#cfcfcf"></path><path d="M348.53,392.65H60.71L80.32,354l23.3-1.76,3-8.86,19.31-36.58.18-.06,37.33-13.11c2.12-1.85,32.48-28.36,36.54-29.38s27.4-3,28.4-3h.13l23.33,11.15,13.32,3.08.1.2,20.27,38.55,9.05,39.18,42.4,17.17Zm-286.19-1H346.88L336.22,371.3l-42.54-17.22-9.15-39.62-20.08-38.17-13-3-23.14-11.06c-1.95.16-24.29,2.05-28.1,3C197,266,173,286.58,164,294.43l-.17.1-37.23,13.08-19.1,36.19-3.13,9.38L81,355Z" style="fill:#263238"></path><polygon points="130.5 307.56 130.5 313.46 106.24 360.68 80.67 360.68 69.62 392.15 314.11 392.15 249.2 369.2 254.45 354.12 228.87 328.54 214.45 304.93 252.48 309.52 255.1 293.79 235.43 278.05 212.48 274.11 200.06 264.73 171.82 294.44 130.5 307.56" style="fill:#263238"></polygon><path d="M317,392.65H68.92l11.39-32.47h25.63L130,313.34v-6.15L171.55,294,200,264.06l12.67,9.58,23,3.94.1.08,19.91,15.92-2.75,16.5-37.49-4.53,13.86,22.68L255,354l-5.18,14.91Zm-246.69-1H311.19l-62.62-22.14,5.3-15.26L228.45,328.8l-15-24.49L252.07,309l2.49-15-19.34-15.47-22.95-3.94-.09-.07-12.06-9.11-28,29.48-41.08,13v5.66l-24.46,47.6H81Z" style="fill:#263238"></path></g></svg>
