<svg width="196" height="382" viewBox="0 0 196 382" fill="none" xmlns="http://www.w3.org/2000/svg">
    <g filter="url(#filter0_d_0_1)">
        <rect x="1" y="270" width="167.787" height="38" rx="10" fill="#353434" />
    </g>
    <path
        d="M44.4545 294L41.0043 294L41.0043 283.818L44.5241 283.818C45.535 283.818 46.4034 284.022 47.1293 284.43C47.8584 284.834 48.4186 285.416 48.8097 286.175C49.2008 286.934 49.3963 287.842 49.3963 288.899C49.3963 289.96 49.1991 290.871 48.8047 291.634C48.4136 292.396 47.8485 292.981 47.1094 293.388C46.3736 293.796 45.4886 294 44.4545 294ZM42.8487 292.404L44.3651 292.404C45.0743 292.404 45.666 292.275 46.1399 292.016C46.6139 291.754 46.9702 291.365 47.2088 290.848C47.4474 290.328 47.5668 289.678 47.5668 288.899C47.5668 288.12 47.4474 287.474 47.2088 286.96C46.9702 286.443 46.6172 286.057 46.1499 285.802C45.6858 285.543 45.1091 285.414 44.4197 285.414L42.8487 285.414L42.8487 292.404ZM55.2402 294.149C54.4945 294.149 53.8482 293.985 53.3013 293.657C52.7544 293.329 52.3302 292.87 52.0286 292.28C51.7303 291.69 51.5811 291 51.5811 290.212C51.5811 289.423 51.7303 288.732 52.0286 288.138C52.3302 287.545 52.7544 287.085 53.3013 286.756C53.8482 286.428 54.4945 286.264 55.2402 286.264C55.986 286.264 56.6323 286.428 57.1791 286.756C57.726 287.085 58.1486 287.545 58.4469 288.138C58.7485 288.732 58.8993 289.423 58.8993 290.212C58.8993 291 58.7485 291.69 58.4469 292.28C58.1486 292.87 57.726 293.329 57.1791 293.657C56.6323 293.985 55.986 294.149 55.2402 294.149ZM55.2502 292.707C55.6545 292.707 55.9926 292.596 56.2644 292.374C56.5361 292.149 56.7383 291.847 56.8709 291.469C57.0068 291.092 57.0747 290.671 57.0747 290.207C57.0747 289.739 57.0068 289.317 56.8709 288.939C56.7383 288.558 56.5361 288.254 56.2644 288.029C55.9926 287.804 55.6545 287.691 55.2502 287.691C54.8359 287.691 54.4912 287.804 54.2161 288.029C53.9443 288.254 53.7405 288.558 53.6046 288.939C53.472 289.317 53.4057 289.739 53.4057 290.207C53.4057 290.671 53.472 291.092 53.6046 291.469C53.7405 291.847 53.9443 292.149 54.2161 292.374C54.4912 292.596 54.8359 292.707 55.2502 292.707ZM63.0665 289.526L63.0665 294L61.2668 294L61.2668 286.364L62.987 286.364L62.987 287.661L63.0765 287.661C63.2521 287.234 63.5322 286.894 63.9167 286.642C64.3045 286.39 64.7834 286.264 65.3535 286.264C65.8805 286.264 66.3395 286.377 66.7306 286.602C67.125 286.828 67.4299 287.154 67.6454 287.582C67.8641 288.009 67.9718 288.528 67.9685 289.138L67.9685 294L66.1688 294L66.1688 289.416C66.1688 288.906 66.0362 288.506 65.7711 288.218C65.5093 287.93 65.1463 287.786 64.6823 287.786C64.3674 287.786 64.0874 287.855 63.8421 287.994C63.6002 288.13 63.4096 288.327 63.2704 288.586C63.1345 288.844 63.0665 289.158 63.0665 289.526ZM72.8355 294.154C72.3516 294.154 71.9158 294.068 71.528 293.896C71.1435 293.72 70.8386 293.461 70.6132 293.12C70.3912 292.779 70.2801 292.358 70.2801 291.857C70.2801 291.426 70.3597 291.07 70.5188 290.788C70.6779 290.507 70.8949 290.281 71.17 290.112C71.4451 289.943 71.755 289.816 72.0997 289.729C72.4477 289.64 72.8073 289.575 73.1786 289.536C73.626 289.489 73.9889 289.448 74.2673 289.411C74.5457 289.371 74.7479 289.312 74.8739 289.232C75.0031 289.149 75.0678 289.022 75.0678 288.849L75.0678 288.82C75.0678 288.445 74.9567 288.155 74.7347 287.95C74.5126 287.744 74.1928 287.641 73.7752 287.641C73.3343 287.641 72.9847 287.737 72.7261 287.93C72.4709 288.122 72.2986 288.349 72.2091 288.611L70.5287 288.372C70.6613 287.908 70.88 287.52 71.185 287.209C71.4899 286.894 71.8627 286.659 72.3036 286.503C72.7444 286.344 73.2316 286.264 73.7652 286.264C74.1331 286.264 74.4993 286.307 74.8639 286.393C75.2285 286.48 75.5616 286.622 75.8632 286.821C76.1648 287.017 76.4068 287.283 76.5891 287.621C76.7747 287.96 76.8675 288.382 76.8675 288.889L76.8675 294L75.1374 294L75.1374 292.951L75.0777 292.951C74.9683 293.163 74.8142 293.362 74.6154 293.548C74.4198 293.73 74.1729 293.877 73.8746 293.99C73.5796 294.099 73.2332 294.154 72.8355 294.154ZM73.3029 292.832C73.6641 292.832 73.9773 292.76 74.2425 292.618C74.5076 292.472 74.7115 292.28 74.854 292.041C74.9998 291.803 75.0727 291.542 75.0727 291.261L75.0727 290.361C75.0164 290.407 74.9203 290.45 74.7844 290.49C74.6518 290.53 74.5027 290.565 74.3369 290.594C74.1712 290.624 74.0072 290.651 73.8448 290.674C73.6823 290.697 73.5415 290.717 73.4222 290.734C73.1537 290.77 72.9134 290.83 72.7013 290.913C72.4892 290.995 72.3218 291.111 72.1992 291.261C72.0765 291.406 72.0152 291.595 72.0152 291.827C72.0152 292.159 72.1362 292.409 72.3781 292.578C72.6201 292.747 72.9283 292.832 73.3029 292.832ZM83.3303 286.364L83.3304 287.756L78.9404 287.756L78.9404 286.364L83.3303 286.364ZM80.0242 284.534L81.824 284.534L81.824 291.703C81.824 291.945 81.8604 292.131 81.9333 292.26C82.0096 292.386 82.109 292.472 82.2316 292.518C82.3543 292.565 82.4902 292.588 82.6393 292.588C82.752 292.588 82.8547 292.58 82.9475 292.563C83.0437 292.547 83.1166 292.532 83.1663 292.518L83.4696 293.925C83.3734 293.959 83.2359 293.995 83.0569 294.035C82.8813 294.075 82.6658 294.098 82.4106 294.104C81.9598 294.118 81.5538 294.05 81.1926 293.901C80.8313 293.748 80.5446 293.513 80.3325 293.195C80.1237 292.876 80.0209 292.479 80.0242 292.001L80.0242 284.534ZM88.9742 294.149C88.2085 294.149 87.5473 293.99 86.9905 293.672C86.437 293.35 86.0111 292.896 85.7128 292.31C85.4145 291.72 85.2653 291.025 85.2653 290.227C85.2653 289.441 85.4145 288.752 85.7128 288.158C86.0144 287.562 86.4353 287.098 86.9756 286.766C87.5158 286.432 88.1505 286.264 88.8797 286.264C89.3503 286.264 89.7945 286.34 90.2121 286.493C90.633 286.642 91.0042 286.874 91.3257 287.189C91.6505 287.504 91.9057 287.905 92.0913 288.392C92.2769 288.876 92.3697 289.453 92.3697 290.122L92.3697 290.674L86.1105 290.674L86.1105 289.461L90.6446 289.461C90.6413 289.116 90.5667 288.81 90.4209 288.541C90.275 288.269 90.0712 288.056 89.8094 287.9C89.5509 287.744 89.2492 287.666 88.9045 287.666C88.5366 287.666 88.2135 287.756 87.9351 287.935C87.6567 288.11 87.4396 288.342 87.2838 288.631C87.1313 288.916 87.0535 289.229 87.0501 289.57L87.0501 290.629C87.0501 291.073 87.1313 291.455 87.2938 291.773C87.4562 292.088 87.6832 292.33 87.9749 292.499C88.2665 292.664 88.6079 292.747 88.999 292.747C89.2608 292.747 89.4978 292.711 89.7099 292.638C89.9221 292.562 90.106 292.451 90.2618 292.305C90.4176 292.159 90.5352 291.978 90.6148 291.763L92.2952 291.952C92.1891 292.396 91.9869 292.784 91.6886 293.115C91.3937 293.443 91.0158 293.698 90.5551 293.881C90.0944 294.06 89.5674 294.149 88.9742 294.149ZM100.487 283.818L103.137 291.832L103.241 291.832L105.886 283.818L107.914 283.818L104.325 294L102.048 294L98.4633 283.818L100.487 283.818ZM110.016 294L110.016 286.364L111.816 286.364L111.816 294L110.016 294ZM110.921 285.28C110.636 285.28 110.39 285.185 110.185 284.996C109.979 284.804 109.877 284.574 109.877 284.305C109.877 284.034 109.979 283.803 110.185 283.614C110.39 283.422 110.636 283.326 110.921 283.326C111.209 283.326 111.454 283.422 111.656 283.614C111.862 283.803 111.965 284.034 111.965 284.305C111.965 284.574 111.862 284.804 111.656 284.996C111.454 285.185 111.209 285.28 110.921 285.28ZM116.704 294.154C116.22 294.154 115.784 294.068 115.396 293.896C115.012 293.72 114.707 293.461 114.481 293.12C114.259 292.779 114.148 292.358 114.148 291.857C114.148 291.426 114.228 291.07 114.387 290.788C114.546 290.507 114.763 290.281 115.038 290.112C115.313 289.943 115.623 289.816 115.968 289.729C116.316 289.64 116.675 289.575 117.047 289.535C117.494 289.489 117.857 289.448 118.135 289.411C118.414 289.371 118.616 289.312 118.742 289.232C118.871 289.149 118.936 289.022 118.936 288.849L118.936 288.82C118.936 288.445 118.825 288.155 118.603 287.95C118.381 287.744 118.061 287.641 117.643 287.641C117.202 287.641 116.853 287.737 116.594 287.93C116.339 288.122 116.167 288.349 116.077 288.611L114.397 288.372C114.529 287.908 114.748 287.52 115.053 287.209C115.358 286.894 115.731 286.659 116.172 286.503C116.612 286.344 117.1 286.264 117.633 286.264C118.001 286.264 118.367 286.307 118.732 286.393C119.097 286.48 119.43 286.622 119.731 286.821C120.033 287.017 120.275 287.283 120.457 287.621C120.643 287.96 120.736 288.382 120.736 288.889L120.736 294L119.005 294L119.005 292.951L118.946 292.951C118.836 293.163 118.682 293.362 118.483 293.548C118.288 293.73 118.041 293.877 117.743 293.99C117.448 294.099 117.101 294.154 116.704 294.154ZM117.171 292.832C117.532 292.832 117.845 292.76 118.111 292.618C118.376 292.472 118.58 292.28 118.722 292.041C118.868 291.803 118.941 291.542 118.941 291.261L118.941 290.361C118.885 290.407 118.788 290.45 118.653 290.49C118.52 290.53 118.371 290.565 118.205 290.594C118.039 290.624 117.875 290.651 117.713 290.674C117.55 290.697 117.41 290.717 117.29 290.734C117.022 290.77 116.782 290.83 116.569 290.913C116.357 290.995 116.19 291.111 116.067 291.261C115.945 291.406 115.883 291.595 115.883 291.827C115.883 292.159 116.004 292.409 116.246 292.578C116.488 292.747 116.796 292.832 117.171 292.832ZM134.196 283.818L136.04 283.818L136.04 290.47C136.04 291.199 135.868 291.841 135.523 292.394C135.182 292.948 134.701 293.38 134.081 293.692C133.462 294 132.737 294.154 131.909 294.154C131.077 294.154 130.351 294 129.731 293.692C129.112 293.38 128.631 292.948 128.29 292.394C127.948 291.841 127.777 291.199 127.777 290.47L127.777 283.818L129.622 283.818L129.622 290.316C129.622 290.74 129.715 291.118 129.9 291.45C130.089 291.781 130.354 292.041 130.696 292.23C131.037 292.416 131.442 292.509 131.909 292.509C132.376 292.509 132.781 292.416 133.122 292.23C133.467 292.041 133.732 291.781 133.917 291.45C134.103 291.118 134.196 290.74 134.196 290.316L134.196 283.818ZM138.885 294L138.885 283.818L142.703 283.818C143.485 283.818 144.142 283.964 144.672 284.256C145.206 284.547 145.608 284.948 145.88 285.459C146.155 285.966 146.293 286.543 146.293 287.189C146.293 287.842 146.155 288.422 145.88 288.929C145.605 289.436 145.199 289.835 144.662 290.127C144.125 290.415 143.464 290.56 142.678 290.56L140.148 290.56L140.148 289.043L142.43 289.043C142.887 289.043 143.262 288.964 143.553 288.805C143.845 288.646 144.06 288.427 144.2 288.148C144.342 287.87 144.413 287.55 144.413 287.189C144.413 286.828 144.342 286.509 144.2 286.234C144.06 285.959 143.843 285.745 143.548 285.593C143.257 285.437 142.881 285.359 142.42 285.359L140.73 285.359L140.73 294L138.885 294ZM150.579 283.818L150.579 294L148.735 294L148.735 283.818L150.579 283.818Z"
        fill="#E5E5E5" />
    <path
        d="M11.8847 287.915C11.8847 287.915 11.8522 287.716 11.7871 287.32C11.721 286.924 11.774 286.386 11.9461 285.704C12.1171 285.022 12.3322 284.478 12.5913 284.073C12.8505 283.668 13.1768 283.264 13.5702 282.86C13.9637 282.457 14.4248 282.077 14.9536 281.719C15.4824 281.362 16.0741 281.052 16.7288 280.787C17.3835 280.524 18.089 280.33 18.8455 280.205C19.6019 280.08 20.3894 280.05 21.2077 280.115C22.0261 280.179 22.8429 280.355 23.6581 280.644C24.4743 280.933 25.2486 281.341 25.9809 281.867C26.7133 282.392 27.3596 283.026 27.9198 283.766C28.4801 284.507 28.9144 285.327 29.2229 286.226C29.5303 287.125 29.684 288.059 29.684 289.027C29.684 289.996 29.5214 290.945 29.1962 291.874C28.8709 292.803 28.3967 293.657 27.7735 294.436C27.1513 295.216 26.4164 295.875 25.5686 296.413C24.7209 296.951 23.8107 297.34 22.8381 297.579C21.8666 297.817 20.8898 297.899 19.9078 297.823C18.9247 297.748 17.9904 297.528 17.1049 297.165C16.2194 296.803 15.4236 296.328 14.7175 295.739C14.0125 295.151 13.4218 294.49 12.9454 293.757C12.4712 293.023 12.1182 292.261 11.8863 291.47C11.6544 290.679 11.5353 289.897 11.529 289.125C11.5217 288.353 11.6067 287.619 11.784 286.925C11.9603 286.23 12.2005 285.592 12.5048 285.011C12.8111 284.43 13.1511 283.909 13.5246 283.45C13.897 282.991 14.2837 282.594 14.6845 282.259C15.0852 281.924 15.4813 281.648 15.8726 281.431C16.2629 281.214 16.6322 281.048 16.9806 280.933C17.3279 280.819 17.7376 280.744 18.2097 280.708C18.6829 280.672 18.9195 280.654 18.9195 280.655C18.9195 280.655 18.9195 280.655 18.9195 280.656C18.9195 280.656 18.718 280.757 18.3151 280.957C17.9112 281.157 17.5613 281.336 17.2654 281.492C16.9685 281.648 16.6475 281.833 16.3023 282.046C15.9571 282.26 15.5988 282.516 15.2274 282.813C14.856 283.111 14.4919 283.463 14.1352 283.87C13.7785 284.278 13.4574 284.747 13.1721 285.275C12.8867 285.804 12.6601 286.386 12.4922 287.019C12.3243 287.653 12.2393 288.323 12.2372 289.031C12.2362 289.737 12.3369 290.454 12.5394 291.182C12.744 291.91 13.0609 292.613 13.49 293.291C13.9191 293.97 14.4552 294.583 15.0984 295.132C15.7425 295.681 16.4712 296.127 17.2843 296.47C18.0974 296.814 18.9567 297.025 19.8621 297.104C20.7676 297.184 21.6699 297.118 22.569 296.907C23.4671 296.696 24.3091 296.347 25.0949 295.861C25.8797 295.374 26.5611 294.776 27.1392 294.067C27.7173 293.358 28.1596 292.58 28.4659 291.733C28.7712 290.886 28.9276 290.021 28.9349 289.138C28.9423 288.254 28.8074 287.402 28.5305 286.58C28.2545 285.76 27.8616 285.012 27.3517 284.336C26.8428 283.66 26.2548 283.084 25.5875 282.608C24.9202 282.133 24.2157 281.768 23.4739 281.514C22.7332 281.26 21.9946 281.112 21.2581 281.07C20.5216 281.027 19.8197 281.074 19.1524 281.209C18.4851 281.345 17.8729 281.546 17.3158 281.812C16.7587 282.077 16.2635 282.378 15.8302 282.715C15.3968 283.052 15.0197 283.399 14.6986 283.755C14.3786 284.111 14.1022 284.458 13.8692 284.797C13.6363 285.136 13.3562 285.572 13.0288 286.105C12.7026 286.637 12.4313 287.072 12.2152 287.41L11.8847 287.915Z"
        stroke="#A259FF" stroke-width="3" stroke-linecap="round" stroke-linejoin="round" />
    <g filter="url(#filter1_d_0_1)">
        <rect y="132" width="122" height="38" rx="10" fill="#353434" />
    </g>
    <path
        d="M40.0043 157L40.0043 146.818L46.6264 146.818L46.6264 148.364L41.8487 148.364L41.8487 151.129L46.2834 151.129L46.2834 152.675L41.8487 152.675L41.8487 155.454L46.6662 155.454L46.6662 157L40.0043 157ZM51.0683 152.526L51.0683 157L49.2686 157L49.2686 149.364L50.9888 149.364L50.9888 150.661L51.0783 150.661C51.2539 150.234 51.534 149.894 51.9185 149.642C52.3063 149.39 52.7852 149.264 53.3553 149.264C53.8823 149.264 54.3413 149.377 54.7324 149.602C55.1268 149.828 55.4317 150.154 55.6472 150.582C55.8659 151.009 55.9736 151.528 55.9703 152.138L55.9703 157L54.1706 157L54.1706 152.416C54.1706 151.906 54.038 151.506 53.7729 151.218C53.511 150.93 53.1481 150.786 52.6841 150.786C52.3692 150.786 52.0892 150.855 51.8439 150.994C51.602 151.13 51.4114 151.327 51.2722 151.586C51.1363 151.844 51.0683 152.158 51.0683 152.526ZM61.4737 157.134C60.8738 157.134 60.3368 156.98 59.8629 156.672C59.3889 156.364 59.0144 155.916 58.7393 155.33C58.4642 154.743 58.3267 154.03 58.3267 153.192C58.3267 152.343 58.4659 151.627 58.7443 151.044C59.026 150.457 59.4055 150.015 59.8828 149.717C60.36 149.415 60.892 149.264 61.4787 149.264C61.9261 149.264 62.294 149.34 62.5823 149.493C62.8707 149.642 63.0994 149.823 63.2684 150.035C63.4375 150.244 63.5684 150.441 63.6612 150.626L63.7358 150.626L63.7358 146.818L65.5404 146.818L65.5404 157L63.7706 157L63.7706 155.797L63.6612 155.797C63.5684 155.983 63.4341 156.18 63.2585 156.389C63.0828 156.594 62.8508 156.77 62.5625 156.916C62.2741 157.061 61.9112 157.134 61.4737 157.134ZM61.9758 155.658C62.357 155.658 62.6818 155.555 62.9502 155.349C63.2187 155.141 63.4225 154.851 63.5617 154.479C63.701 154.108 63.7706 153.676 63.7706 153.182C63.7706 152.688 63.701 152.259 63.5617 151.894C63.4259 151.53 63.2237 151.246 62.9552 151.044C62.6901 150.842 62.3636 150.741 61.9758 150.741C61.5748 150.741 61.24 150.845 60.9716 151.054C60.7031 151.263 60.5009 151.551 60.365 151.919C60.2291 152.287 60.1612 152.708 60.1612 153.182C60.1612 153.659 60.2291 154.085 60.365 154.46C60.5042 154.831 60.7081 155.124 60.9765 155.34C61.2483 155.552 61.5814 155.658 61.9758 155.658ZM71.6292 157.149C70.8835 157.149 70.2372 156.985 69.6903 156.657C69.1434 156.329 68.7192 155.87 68.4176 155.28C68.1193 154.69 67.9701 154 67.9701 153.212C67.9701 152.423 68.1193 151.732 68.4176 151.139C68.7192 150.545 69.1434 150.085 69.6903 149.756C70.2372 149.428 70.8835 149.264 71.6292 149.264C72.3749 149.264 73.0212 149.428 73.5681 149.756C74.115 150.085 74.5376 150.545 74.8359 151.139C75.1375 151.732 75.2883 152.423 75.2883 153.212C75.2883 154 75.1375 154.69 74.8359 155.28C74.5376 155.87 74.115 156.329 73.5681 156.657C73.0212 156.985 72.3749 157.149 71.6292 157.149ZM71.6391 155.707C72.0435 155.707 72.3816 155.596 72.6533 155.374C72.9251 155.149 73.1273 154.847 73.2599 154.469C73.3958 154.092 73.4637 153.671 73.4637 153.207C73.4637 152.739 73.3958 152.317 73.2599 151.939C73.1273 151.558 72.9251 151.255 72.6533 151.029C72.3816 150.804 72.0435 150.691 71.6391 150.691C71.2248 150.691 70.8801 150.804 70.6051 151.029C70.3333 151.255 70.1294 151.558 69.9935 151.939C69.861 152.317 69.7947 152.739 69.7947 153.207C69.7947 153.671 69.861 154.092 69.9935 154.469C70.1294 154.847 70.3333 155.149 70.6051 155.374C70.8801 155.596 71.2248 155.707 71.6391 155.707ZM77.6558 157L77.6558 149.364L79.4008 149.364L79.4008 150.636L79.4804 150.636C79.6196 150.196 79.8582 149.856 80.1963 149.617C80.5377 149.375 80.9271 149.254 81.3646 149.254C81.4641 149.254 81.5751 149.259 81.6977 149.269C81.8237 149.276 81.9281 149.287 82.0109 149.304L82.0109 150.96C81.9347 150.933 81.8137 150.91 81.648 150.89C81.4856 150.867 81.3282 150.855 81.1757 150.855C80.8476 150.855 80.5526 150.926 80.2908 151.069C80.0322 151.208 79.8284 151.402 79.6792 151.651C79.5301 151.899 79.4555 152.186 79.4555 152.511L79.4555 157L77.6558 157ZM90.0821 151.382L88.4415 151.561C88.3951 151.395 88.3139 151.24 88.1979 151.094C88.0852 150.948 87.9327 150.83 87.7405 150.741C87.5483 150.651 87.3129 150.607 87.0345 150.607C86.66 150.607 86.3451 150.688 86.0899 150.85C85.838 151.013 85.7137 151.223 85.717 151.482C85.7137 151.704 85.7949 151.884 85.9607 152.023C86.1297 152.163 86.4081 152.277 86.7959 152.366L88.0984 152.645C88.821 152.801 89.3579 153.048 89.7092 153.386C90.0639 153.724 90.2429 154.166 90.2462 154.713C90.2429 155.194 90.102 155.618 89.8236 155.986C89.5485 156.35 89.1657 156.635 88.6751 156.841C88.1846 157.046 87.6212 157.149 86.9848 157.149C86.0501 157.149 85.2978 156.954 84.7277 156.563C84.1576 156.168 83.8179 155.62 83.7085 154.917L85.4635 154.748C85.543 155.093 85.7121 155.353 85.9706 155.528C86.2291 155.704 86.5655 155.792 86.9798 155.792C87.4074 155.792 87.7504 155.704 88.009 155.528C88.2708 155.353 88.4017 155.136 88.4017 154.877C88.4017 154.658 88.3172 154.478 88.1482 154.335C87.9824 154.193 87.7239 154.083 87.3726 154.007L86.07 153.734C85.3376 153.581 84.7956 153.324 84.4443 152.963C84.093 152.599 83.919 152.138 83.9223 151.581C83.919 151.11 84.0466 150.703 84.3051 150.358C84.567 150.01 84.9299 149.741 85.3939 149.553C85.8612 149.36 86.3998 149.264 87.0097 149.264C87.9045 149.264 88.6089 149.455 89.1226 149.836C89.6396 150.217 89.9595 150.733 90.0821 151.382ZM95.9509 157.149C95.1852 157.149 94.524 156.99 93.9672 156.672C93.4137 156.35 92.9878 155.896 92.6895 155.31C92.3912 154.72 92.2421 154.025 92.2421 153.227C92.2421 152.441 92.3912 151.752 92.6895 151.158C92.9911 150.562 93.412 150.098 93.9523 149.766C94.4925 149.432 95.1272 149.264 95.8564 149.264C96.3271 149.264 96.7712 149.34 97.1888 149.493C97.6097 149.642 97.9809 149.874 98.3024 150.189C98.6272 150.504 98.8825 150.905 99.0681 151.392C99.2537 151.876 99.3465 152.453 99.3465 153.122L99.3465 153.674L93.0872 153.674L93.0872 152.461L97.6213 152.461C97.618 152.116 97.5434 151.81 97.3976 151.541C97.2518 151.269 97.0479 151.056 96.7861 150.9C96.5276 150.744 96.226 150.666 95.8813 150.666C95.5134 150.666 95.1902 150.756 94.9118 150.935C94.6334 151.11 94.4163 151.342 94.2605 151.631C94.1081 151.916 94.0302 152.229 94.0269 152.57L94.0269 153.629C94.0269 154.073 94.1081 154.455 94.2705 154.773C94.4329 155.088 94.6599 155.33 94.9516 155.499C95.2432 155.664 95.5846 155.747 95.9757 155.747C96.2376 155.747 96.4745 155.711 96.6867 155.638C96.8988 155.562 97.0827 155.451 97.2385 155.305C97.3943 155.159 97.5119 154.978 97.5915 154.763L99.2719 154.952C99.1658 155.396 98.9637 155.784 98.6654 156.115C98.3704 156.443 97.9925 156.698 97.5318 156.881C97.0711 157.06 96.5441 157.149 95.9509 157.149Z"
        fill="#E5E5E5" />
    <path
        d="M10.8847 149.915C10.8847 149.915 10.8522 149.716 10.7871 149.32C10.721 148.924 10.774 148.386 10.9461 147.704C11.1171 147.022 11.3322 146.478 11.5913 146.073C11.8505 145.668 12.1768 145.264 12.5702 144.86C12.9637 144.457 13.4248 144.077 13.9536 143.719C14.4824 143.362 15.0741 143.052 15.7288 142.787C16.3835 142.524 17.089 142.33 17.8455 142.205C18.6019 142.08 19.3894 142.05 20.2077 142.115C21.0261 142.179 21.8429 142.355 22.6581 142.644C23.4743 142.933 24.2486 143.341 24.9809 143.867C25.7133 144.392 26.3596 145.026 26.9198 145.766C27.4801 146.507 27.9144 147.327 28.2229 148.226C28.5303 149.125 28.684 150.059 28.684 151.027C28.684 151.996 28.5214 152.945 28.1962 153.874C27.8709 154.803 27.3967 155.657 26.7735 156.436C26.1513 157.216 25.4164 157.875 24.5686 158.413C23.7209 158.951 22.8107 159.34 21.8381 159.579C20.8666 159.817 19.8898 159.899 18.9078 159.823C17.9247 159.748 16.9904 159.528 16.1049 159.165C15.2194 158.803 14.4236 158.328 13.7175 157.739C13.0125 157.151 12.4218 156.49 11.9454 155.757C11.4712 155.023 11.1182 154.261 10.8863 153.47C10.6544 152.679 10.5353 151.897 10.529 151.125C10.5217 150.353 10.6067 149.619 10.784 148.925C10.9603 148.23 11.2005 147.592 11.5048 147.011C11.8111 146.43 12.1511 145.909 12.5246 145.45C12.897 144.991 13.2837 144.594 13.6845 144.259C14.0852 143.924 14.4813 143.648 14.8726 143.431C15.2629 143.214 15.6322 143.048 15.9806 142.933C16.3279 142.819 16.7376 142.744 17.2097 142.708C17.6829 142.672 17.9195 142.654 17.9195 142.655C17.9195 142.655 17.9195 142.655 17.9195 142.657C17.9195 142.657 17.718 142.757 17.3151 142.957C16.9112 143.157 16.5613 143.336 16.2654 143.492C15.9685 143.649 15.6475 143.833 15.3023 144.046C14.9571 144.26 14.5988 144.516 14.2274 144.813C13.856 145.111 13.4919 145.463 13.1352 145.87C12.7785 146.278 12.4574 146.747 12.1721 147.276C11.8867 147.804 11.6601 148.386 11.4922 149.019C11.3243 149.653 11.2393 150.323 11.2372 151.031C11.2362 151.737 11.3369 152.454 11.5394 153.182C11.744 153.91 12.0609 154.613 12.49 155.291C12.9191 155.97 13.4552 156.583 14.0984 157.132C14.7425 157.681 15.4712 158.127 16.2843 158.47C17.0974 158.814 17.9567 159.025 18.8621 159.104C19.7676 159.184 20.6699 159.118 21.569 158.907C22.4671 158.696 23.3091 158.347 24.0949 157.861C24.8797 157.374 25.5611 156.776 26.1392 156.067C26.7173 155.358 27.1596 154.58 27.4659 153.733C27.7712 152.886 27.9276 152.021 27.9349 151.138C27.9423 150.254 27.8074 149.402 27.5305 148.58C27.2545 147.76 26.8616 147.012 26.3517 146.336C25.8428 145.66 25.2548 145.084 24.5875 144.608C23.9202 144.133 23.2157 143.768 22.4739 143.514C21.7332 143.26 20.9946 143.112 20.2581 143.07C19.5216 143.027 18.8197 143.074 18.1524 143.209C17.4851 143.345 16.8729 143.546 16.3158 143.812C15.7587 144.077 15.2635 144.378 14.8302 144.715C14.3968 145.052 14.0197 145.399 13.6986 145.755C13.3786 146.111 13.1022 146.458 12.8692 146.797C12.6363 147.136 12.3562 147.572 12.0288 148.105C11.7026 148.637 11.4313 149.072 11.2152 149.41L10.8847 149.915Z"
        stroke="#1ABCFE" stroke-width="3" stroke-linecap="round" stroke-linejoin="round" />
    <g filter="url(#filter2_d_0_1)">
        <rect x="1" y="196" width="167.787" height="38" rx="10" fill="#353434" />
    </g>
    <path
        d="M40.5568 212.364L40.5568 210.818L48.6804 210.818L48.6804 212.364L45.5334 212.364L45.5334 221L43.7038 221L43.7038 212.364L40.5568 212.364ZM52.8066 216.526L52.8066 221L51.0069 221L51.0069 210.818L52.7668 210.818L52.7668 214.661L52.8563 214.661C53.0353 214.23 53.3121 213.891 53.6866 213.642C54.0644 213.39 54.545 213.264 55.1284 213.264C55.6587 213.264 56.121 213.375 56.5154 213.597C56.9098 213.819 57.2148 214.144 57.4302 214.572C57.649 214.999 57.7583 215.521 57.7583 216.138L57.7583 221L55.9586 221L55.9586 216.416C55.9586 215.902 55.826 215.503 55.5609 215.218C55.299 214.93 54.9311 214.786 54.4572 214.786C54.139 214.786 53.854 214.855 53.6021 214.994C53.3535 215.13 53.1579 215.327 53.0154 215.586C52.8762 215.844 52.8066 216.158 52.8066 216.526ZM60.4328 221L60.4328 213.364L62.1779 213.364L62.1779 214.636L62.2574 214.636C62.3966 214.196 62.6353 213.856 62.9733 213.617C63.3147 213.375 63.7041 213.254 64.1416 213.254C64.2411 213.254 64.3521 213.259 64.4747 213.269C64.6007 213.276 64.7051 213.287 64.788 213.304L64.788 214.96C64.7117 214.933 64.5908 214.91 64.425 214.89C64.2626 214.867 64.1052 214.855 63.9527 214.855C63.6246 214.855 63.3296 214.926 63.0678 215.069C62.8093 215.208 62.6054 215.402 62.4563 215.651C62.3071 215.899 62.2326 216.186 62.2326 216.511L62.2326 221L60.4328 221ZM69.8401 221.149C69.0944 221.149 68.4481 220.985 67.9012 220.657C67.3543 220.329 66.9301 219.87 66.6285 219.28C66.3302 218.69 66.181 218 66.181 217.212C66.181 216.423 66.3302 215.732 66.6285 215.139C66.9301 214.545 67.3543 214.085 67.9012 213.756C68.4481 213.428 69.0944 213.264 69.8401 213.264C70.5859 213.264 71.2322 213.428 71.7791 213.756C72.3259 214.085 72.7485 214.545 73.0468 215.139C73.3484 215.732 73.4992 216.423 73.4992 217.212C73.4992 218 73.3484 218.69 73.0468 219.28C72.7485 219.87 72.3259 220.329 71.7791 220.657C71.2322 220.985 70.5859 221.149 69.8401 221.149ZM69.8501 219.707C70.2544 219.707 70.5925 219.596 70.8643 219.374C71.1361 219.149 71.3382 218.847 71.4708 218.469C71.6067 218.092 71.6747 217.671 71.6747 217.207C71.6747 216.739 71.6067 216.317 71.4708 215.939C71.3382 215.558 71.1361 215.255 70.8643 215.029C70.5925 214.804 70.2544 214.691 69.8501 214.691C69.4358 214.691 69.0911 214.804 68.816 215.029C68.5442 215.255 68.3404 215.558 68.2045 215.939C68.0719 216.317 68.0056 216.739 68.0056 217.207C68.0056 217.671 68.0719 218.092 68.2045 218.469C68.3404 218.847 68.5442 219.149 68.816 219.374C69.0911 219.596 69.4358 219.707 69.8501 219.707ZM77.224 221L75.0663 213.364L76.9008 213.364L78.2432 218.733L78.3128 218.733L79.6849 213.364L81.4996 213.364L82.8717 218.703L82.9463 218.703L84.2687 213.364L86.1082 213.364L83.9456 221L82.0713 221L80.6395 215.84L80.5351 215.84L79.1033 221L77.224 221ZM94.7149 221.154C94.231 221.154 93.7952 221.068 93.4074 220.896C93.0229 220.72 92.718 220.461 92.4926 220.12C92.2705 219.779 92.1595 219.358 92.1595 218.857C92.1595 218.426 92.239 218.07 92.3981 217.788C92.5572 217.507 92.7743 217.281 93.0494 217.112C93.3245 216.943 93.6344 216.816 93.9791 216.729C94.3271 216.64 94.6867 216.575 95.0579 216.536C95.5054 216.489 95.8683 216.448 96.1467 216.411C96.4251 216.371 96.6273 216.312 96.7532 216.232C96.8825 216.149 96.9471 216.022 96.9471 215.849L96.9471 215.82C96.9471 215.445 96.8361 215.155 96.614 214.95C96.392 214.744 96.0721 214.641 95.6545 214.641C95.2137 214.641 94.864 214.737 94.6055 214.93C94.3503 215.122 94.178 215.349 94.0885 215.611L92.4081 215.372C92.5407 214.908 92.7594 214.52 93.0643 214.209C93.3693 213.894 93.7421 213.659 94.1829 213.503C94.6237 213.344 95.111 213.264 95.6446 213.264C96.0125 213.264 96.3787 213.307 96.7433 213.393C97.1079 213.48 97.441 213.622 97.7426 213.821C98.0442 214.017 98.2862 214.283 98.4684 214.621C98.6541 214.96 98.7469 215.382 98.7469 215.889L98.7469 221L97.0167 221L97.0167 219.951L96.9571 219.951C96.8477 220.163 96.6936 220.362 96.4947 220.548C96.2992 220.73 96.0523 220.877 95.754 220.99C95.459 221.099 95.1126 221.154 94.7149 221.154ZM95.1822 219.832C95.5435 219.832 95.8567 219.76 96.1219 219.618C96.387 219.472 96.5908 219.28 96.7334 219.041C96.8792 218.803 96.9521 218.542 96.9521 218.261L96.9521 217.361C96.8958 217.407 96.7997 217.45 96.6638 217.49C96.5312 217.53 96.382 217.565 96.2163 217.594C96.0506 217.624 95.8865 217.651 95.7241 217.674C95.5617 217.697 95.4209 217.717 95.3015 217.734C95.0331 217.77 94.7928 217.83 94.5807 217.913C94.3685 217.996 94.2012 218.112 94.0785 218.261C93.9559 218.407 93.8946 218.595 93.8946 218.827C93.8946 219.159 94.0156 219.409 94.2575 219.578C94.4995 219.747 94.8077 219.832 95.1822 219.832ZM114.504 214.254L112.645 214.254C112.592 213.949 112.494 213.679 112.351 213.443C112.209 213.205 112.031 213.002 111.819 212.837C111.607 212.671 111.365 212.547 111.093 212.464C110.825 212.378 110.535 212.335 110.223 212.335C109.67 212.335 109.179 212.474 108.752 212.752C108.324 213.027 107.989 213.432 107.748 213.965C107.506 214.496 107.385 215.143 107.385 215.909C107.385 216.688 107.506 217.344 107.748 217.878C107.993 218.408 108.328 218.809 108.752 219.081C109.179 219.349 109.668 219.484 110.218 219.484C110.523 219.484 110.808 219.444 111.074 219.364C111.342 219.282 111.582 219.161 111.794 219.001C112.01 218.842 112.19 218.647 112.336 218.415C112.485 218.183 112.588 217.918 112.645 217.619L114.504 217.629C114.434 218.113 114.284 218.567 114.052 218.991C113.823 219.416 113.523 219.79 113.152 220.115C112.78 220.437 112.346 220.688 111.849 220.871C111.352 221.05 110.8 221.139 110.194 221.139C109.299 221.139 108.5 220.932 107.797 220.518C107.095 220.103 106.541 219.505 106.137 218.723C105.732 217.941 105.53 217.003 105.53 215.909C105.53 214.812 105.734 213.874 106.142 213.095C106.549 212.313 107.105 211.715 107.807 211.3C108.51 210.886 109.305 210.679 110.194 210.679C110.76 210.679 111.287 210.759 111.775 210.918C112.262 211.077 112.696 211.31 113.077 211.619C113.458 211.924 113.771 212.298 114.017 212.742C114.265 213.183 114.428 213.687 114.504 214.254ZM120.284 221.149C119.539 221.149 118.892 220.985 118.346 220.657C117.799 220.329 117.374 219.87 117.073 219.28C116.774 218.69 116.625 218 116.625 217.212C116.625 216.423 116.774 215.732 117.073 215.139C117.374 214.545 117.799 214.085 118.346 213.756C118.892 213.428 119.539 213.264 120.284 213.264C121.03 213.264 121.676 213.428 122.223 213.756C122.77 214.085 123.193 214.545 123.491 215.139C123.793 215.732 123.944 216.423 123.944 217.212C123.944 218 123.793 218.69 123.491 219.28C123.193 219.87 122.77 220.329 122.223 220.657C121.676 220.985 121.03 221.149 120.284 221.149ZM120.294 219.707C120.699 219.707 121.037 219.596 121.309 219.374C121.58 219.149 121.783 218.847 121.915 218.469C122.051 218.092 122.119 217.671 122.119 217.207C122.119 216.739 122.051 216.317 121.915 215.939C121.783 215.558 121.58 215.255 121.309 215.029C121.037 214.804 120.699 214.691 120.294 214.691C119.88 214.691 119.535 214.804 119.26 215.029C118.989 215.255 118.785 215.558 118.649 215.939C118.516 216.317 118.45 216.739 118.45 217.207C118.45 217.671 118.516 218.092 118.649 218.469C118.785 218.847 118.989 219.149 119.26 219.374C119.535 219.596 119.88 219.707 120.294 219.707ZM126.311 221L126.311 213.364L128.111 213.364L128.111 221L126.311 221ZM127.216 212.28C126.931 212.28 126.686 212.185 126.48 211.996C126.275 211.804 126.172 211.574 126.172 211.305C126.172 211.034 126.275 210.803 126.48 210.614C126.686 210.422 126.931 210.326 127.216 210.326C127.504 210.326 127.749 210.422 127.952 210.614C128.157 210.803 128.26 211.034 128.26 211.305C128.26 211.574 128.157 211.804 127.952 211.996C127.749 212.185 127.504 212.28 127.216 212.28ZM132.601 216.526L132.601 221L130.801 221L130.801 213.364L132.522 213.364L132.522 214.661L132.611 214.661C132.787 214.234 133.067 213.894 133.451 213.642C133.839 213.39 134.318 213.264 134.888 213.264C135.415 213.264 135.874 213.377 136.265 213.602C136.66 213.828 136.965 214.154 137.18 214.582C137.399 215.009 137.506 215.528 137.503 216.138L137.503 221L135.703 221L135.703 216.416C135.703 215.906 135.571 215.506 135.306 215.218C135.044 214.93 134.681 214.786 134.217 214.786C133.902 214.786 133.622 214.855 133.377 214.994C133.135 215.13 132.944 215.327 132.805 215.586C132.669 215.844 132.601 216.158 132.601 216.526Z"
        fill="#E5E5E5" />
    <path
        d="M11.8847 213.915C11.8847 213.915 11.8522 213.716 11.7871 213.32C11.721 212.924 11.774 212.386 11.9461 211.704C12.1171 211.022 12.3322 210.478 12.5913 210.073C12.8505 209.668 13.1768 209.264 13.5702 208.86C13.9637 208.457 14.4248 208.077 14.9536 207.719C15.4824 207.362 16.0741 207.052 16.7288 206.787C17.3835 206.524 18.089 206.33 18.8455 206.205C19.6019 206.08 20.3894 206.05 21.2077 206.115C22.0261 206.179 22.8429 206.355 23.6581 206.644C24.4743 206.933 25.2486 207.341 25.9809 207.867C26.7133 208.392 27.3596 209.026 27.9198 209.766C28.4801 210.507 28.9144 211.327 29.2229 212.226C29.5303 213.125 29.684 214.059 29.684 215.027C29.684 215.996 29.5214 216.945 29.1962 217.874C28.8709 218.803 28.3967 219.657 27.7735 220.436C27.1513 221.216 26.4164 221.875 25.5686 222.413C24.7209 222.951 23.8107 223.34 22.8381 223.579C21.8666 223.817 20.8898 223.899 19.9078 223.823C18.9247 223.748 17.9904 223.528 17.1049 223.165C16.2194 222.803 15.4236 222.328 14.7175 221.739C14.0125 221.151 13.4218 220.49 12.9454 219.757C12.4712 219.023 12.1182 218.261 11.8863 217.47C11.6544 216.679 11.5353 215.897 11.529 215.125C11.5217 214.353 11.6067 213.619 11.784 212.925C11.9603 212.23 12.2005 211.592 12.5048 211.011C12.8111 210.43 13.1511 209.909 13.5246 209.45C13.897 208.991 14.2837 208.594 14.6845 208.259C15.0852 207.924 15.4813 207.648 15.8726 207.431C16.2629 207.214 16.6322 207.048 16.9806 206.933C17.3279 206.819 17.7376 206.744 18.2097 206.708C18.6829 206.672 18.9195 206.654 18.9195 206.655C18.9195 206.655 18.9195 206.655 18.9195 206.656C18.9195 206.656 18.718 206.757 18.3151 206.957C17.9112 207.157 17.5613 207.336 17.2654 207.492C16.9685 207.648 16.6475 207.833 16.3023 208.046C15.9571 208.26 15.5988 208.516 15.2274 208.813C14.856 209.111 14.4919 209.463 14.1352 209.87C13.7785 210.278 13.4574 210.747 13.1721 211.275C12.8867 211.804 12.6601 212.386 12.4922 213.019C12.3243 213.653 12.2393 214.323 12.2372 215.031C12.2362 215.737 12.3369 216.454 12.5394 217.182C12.744 217.91 13.0609 218.613 13.49 219.291C13.9191 219.97 14.4552 220.583 15.0984 221.132C15.7425 221.681 16.4712 222.127 17.2843 222.47C18.0974 222.814 18.9567 223.025 19.8621 223.104C20.7676 223.184 21.6699 223.118 22.569 222.907C23.4671 222.696 24.3091 222.347 25.0949 221.861C25.8797 221.374 26.5611 220.776 27.1392 220.067C27.7173 219.358 28.1596 218.58 28.4659 217.733C28.7712 216.886 28.9276 216.021 28.9349 215.138C28.9423 214.254 28.8074 213.402 28.5305 212.58C28.2545 211.76 27.8616 211.012 27.3517 210.336C26.8428 209.66 26.2548 209.084 25.5875 208.608C24.9202 208.133 24.2157 207.768 23.4739 207.514C22.7332 207.26 21.9946 207.112 21.2581 207.07C20.5216 207.027 19.8197 207.074 19.1524 207.209C18.4851 207.345 17.8729 207.546 17.3158 207.812C16.7587 208.077 16.2635 208.378 15.8302 208.715C15.3968 209.052 15.0197 209.399 14.6986 209.755C14.3786 210.111 14.1022 210.458 13.8692 210.797C13.6363 211.136 13.3562 211.572 13.0288 212.105C12.7026 212.637 12.4313 213.072 12.2152 213.41L11.8847 213.915Z"
        stroke="#F24E1E" stroke-width="3" stroke-linecap="round" stroke-linejoin="round" />
    <g filter="url(#filter3_d_0_1)">
        <rect y="3.05176e-05" width="187.687" height="38" rx="10" fill="#353434" />
    </g>
    <path
        d="M44.6298 25L44.6298 14.8182L48.5275 14.8182C49.2633 14.8182 49.8748 14.9342 50.3621 15.1662C50.8526 15.3949 51.2188 15.7081 51.4608 16.1059C51.706 16.5036 51.8287 16.9543 51.8287 17.4581C51.8287 17.8724 51.7491 18.2271 51.59 18.522C51.4309 18.8137 51.2172 19.0507 50.9487 19.233C50.6802 19.4153 50.3803 19.5462 50.0488 19.6257L50.0488 19.7252C50.4101 19.7451 50.7565 19.8561 51.0879 20.0583C51.4227 20.2571 51.6961 20.5389 51.9082 20.9034C52.1203 21.268 52.2264 21.7088 52.2264 22.2259C52.2264 22.7529 52.0988 23.2268 51.8436 23.6478C51.5884 24.0654 51.2039 24.3952 50.6902 24.6371C50.1765 24.8791 49.5301 25 48.7513 25L44.6298 25ZM46.4743 23.4588L48.4579 23.4588C49.1274 23.4588 49.6097 23.3312 49.9047 23.076C50.203 22.8175 50.3521 22.4861 50.3521 22.0817C50.3521 21.7801 50.2775 21.5083 50.1284 21.2664C49.9792 21.0211 49.7671 20.8289 49.492 20.6897C49.2169 20.5471 48.8888 20.4759 48.5077 20.4759L46.4743 20.4759L46.4743 23.4588ZM46.4743 19.1485L48.2988 19.1485C48.617 19.1485 48.9037 19.0905 49.1589 18.9745C49.4141 18.8551 49.6147 18.6878 49.7605 18.4723C49.9096 18.2536 49.9842 17.9951 49.9842 17.6968C49.9842 17.3023 49.845 16.9775 49.5666 16.7223C49.2915 16.4671 48.8822 16.3395 48.3386 16.3395L46.4743 16.3395L46.4743 19.1485ZM59.4586 21.7884L59.4586 17.3637L61.2583 17.3637L61.2583 25L59.5133 25L59.5133 23.6428L59.4338 23.6428C59.2614 24.0703 58.978 24.42 58.5836 24.6918C58.1925 24.9636 57.7103 25.0995 57.1369 25.0995C56.6364 25.0995 56.1939 24.9884 55.8095 24.7664C55.4283 24.541 55.13 24.2145 54.9146 23.787C54.6992 23.3561 54.5914 22.8357 54.5914 22.2259L54.5914 17.3637L56.3912 17.3637L56.3912 21.9475C56.3912 22.4314 56.5237 22.8158 56.7889 23.1009C57.054 23.3859 57.402 23.5284 57.8329 23.5284C58.0981 23.5284 58.3549 23.4638 58.6035 23.3345C58.8521 23.2053 59.0559 23.013 59.215 22.7578C59.3774 22.4993 59.4586 22.1762 59.4586 21.7884ZM65.0676 27.8637C64.8224 27.8637 64.5953 27.8438 64.3865 27.804C64.181 27.7675 64.017 27.7245 63.8943 27.6747L64.3119 26.2728C64.5738 26.349 64.8074 26.3854 65.0129 26.3821C65.2184 26.3788 65.3991 26.3142 65.5548 26.1882C65.7139 26.0656 65.8482 25.8601 65.9575 25.5718L66.1117 25.1591L63.3425 17.3637L65.2516 17.3637L67.0115 23.1307L67.0911 23.1307L68.856 17.3637L70.77 17.3637L67.7125 25.9247C67.57 26.3291 67.3811 26.6755 67.1458 26.9638C66.9104 27.2555 66.6221 27.4775 66.2807 27.63C65.9426 27.7858 65.5383 27.8637 65.0676 27.8637ZM77.1681 25L77.1681 17.3637L78.8882 17.3637L78.8883 18.6612L78.9777 18.6612C79.1368 18.2237 79.4003 17.8824 79.7682 17.6371C80.1361 17.3885 80.5753 17.2642 81.0857 17.2642C81.6027 17.2642 82.0386 17.3902 82.3932 17.6421C82.7512 17.8906 83.0031 18.2304 83.1489 18.6612L83.2284 18.6612C83.3975 18.237 83.6825 17.8989 84.0836 17.647C84.4879 17.3918 84.9668 17.2642 85.5204 17.2642C86.223 17.2642 86.7964 17.4863 87.2405 17.9304C87.6847 18.3745 87.9067 19.0225 87.9067 19.8743L87.9067 25L86.102 25L86.102 20.1527C86.102 19.6788 85.9761 19.3324 85.7242 19.1137C85.4723 18.8916 85.1641 18.7806 84.7995 18.7806C84.3653 18.7806 84.0256 18.9165 83.7803 19.1882C83.5383 19.4567 83.4174 19.8064 83.4174 20.2372L83.4174 25L81.6525 25L81.6525 20.0781C81.6525 19.6837 81.5331 19.3689 81.2945 19.1335C81.0592 18.8982 80.7509 18.7806 80.3698 18.7806C80.1113 18.7806 79.8759 18.8469 79.6638 18.9794C79.4517 19.1087 79.2827 19.2926 79.1567 19.5313C79.0308 19.7666 78.9678 20.0417 78.9678 20.3566L78.9678 25L77.1681 25ZM93.9532 25.1492C93.1876 25.1492 92.5264 24.9901 91.9696 24.6719C91.416 24.3504 90.9901 23.8963 90.6919 23.3097C90.3936 22.7197 90.2444 22.0254 90.2444 21.2266C90.2444 20.4411 90.3936 19.7517 90.6919 19.1584C90.9935 18.5618 91.4144 18.0978 91.9546 17.7664C92.4949 17.4316 93.1296 17.2642 93.8588 17.2642C94.3294 17.2642 94.7735 17.3405 95.1911 17.4929C95.6121 17.6421 95.9833 17.8741 96.3048 18.1889C96.6296 18.5038 96.8848 18.9049 97.0704 19.3921C97.256 19.876 97.3488 20.4527 97.3488 21.1222L97.3488 21.674L91.0896 21.674L91.0896 20.461L95.6237 20.461C95.6204 20.1163 95.5458 19.8097 95.3999 19.5412C95.2541 19.2694 95.0503 19.0557 94.7884 18.8999C94.5299 18.7441 94.2283 18.6662 93.8836 18.6662C93.5157 18.6662 93.1926 18.7557 92.9142 18.9347C92.6357 19.1103 92.4187 19.3424 92.2629 19.6307C92.1104 19.9157 92.0325 20.229 92.0292 20.5703L92.0292 21.6293C92.0292 22.0734 92.1104 22.4546 92.2728 22.7727C92.4352 23.0876 92.6623 23.3296 92.9539 23.4986C93.2456 23.6643 93.587 23.7472 93.9781 23.7472C94.2399 23.7472 94.4769 23.7107 94.689 23.6378C94.9011 23.5616 95.0851 23.4505 95.2409 23.3047C95.3966 23.1589 95.5143 22.9782 95.5938 22.7628L97.2742 22.9517C97.1682 23.3959 96.966 23.7836 96.6677 24.1151C96.3727 24.4432 95.9949 24.6984 95.5342 24.8807C95.0735 25.0597 94.5465 25.1492 93.9532 25.1492ZM106.221 25.1541C105.738 25.1541 105.302 25.068 104.914 24.8956C104.529 24.72 104.225 24.4614 103.999 24.12C103.777 23.7787 103.666 23.3577 103.666 22.8573C103.666 22.4264 103.746 22.0701 103.905 21.7884C104.064 21.5066 104.281 21.2813 104.556 21.1122C104.831 20.9432 105.141 20.8156 105.486 20.7294C105.834 20.6399 106.193 20.5753 106.565 20.5355C107.012 20.4891 107.375 20.4477 107.653 20.4112C107.932 20.3715 108.134 20.3118 108.26 20.2323C108.389 20.1494 108.454 20.0218 108.454 19.8495L108.454 19.8196C108.454 19.4451 108.343 19.1551 108.121 18.9496C107.899 18.7441 107.579 18.6414 107.161 18.6414C106.72 18.6414 106.371 18.7375 106.112 18.9297C105.857 19.1219 105.685 19.349 105.595 19.6108L103.915 19.3722C104.047 18.9082 104.266 18.5204 104.571 18.2088C104.876 17.894 105.249 17.6586 105.69 17.5029C106.13 17.3438 106.618 17.2642 107.151 17.2642C107.519 17.2642 107.885 17.3073 108.25 17.3935C108.614 17.4797 108.948 17.6222 109.249 17.821C109.551 18.0166 109.793 18.2834 109.975 18.6215C110.161 18.9595 110.253 19.3821 110.253 19.8892L110.253 25L108.523 25L108.523 23.951L108.464 23.951C108.354 24.1631 108.2 24.362 108.001 24.5476C107.806 24.7299 107.559 24.8774 107.261 24.9901C106.966 25.0995 106.619 25.1541 106.221 25.1541ZM106.689 23.8317C107.05 23.8317 107.363 23.7604 107.628 23.6179C107.894 23.4721 108.097 23.2798 108.24 23.0412C108.386 22.8026 108.459 22.5424 108.459 22.2607L108.459 21.3608C108.402 21.4072 108.306 21.4503 108.17 21.4901C108.038 21.5298 107.889 21.5646 107.723 21.5945C107.557 21.6243 107.393 21.6508 107.231 21.674C107.068 21.6972 106.927 21.7171 106.808 21.7337C106.54 21.7701 106.299 21.8298 106.087 21.9127C105.875 21.9955 105.708 22.1115 105.585 22.2607C105.462 22.4065 105.401 22.5954 105.401 22.8274C105.401 23.1589 105.522 23.4091 105.764 23.5781C106.006 23.7472 106.314 23.8317 106.689 23.8317ZM122.829 17.6172C122.782 17.183 122.587 16.845 122.242 16.603C121.901 16.361 121.456 16.2401 120.91 16.2401C120.525 16.2401 120.195 16.2981 119.92 16.4141C119.645 16.5301 119.435 16.6875 119.289 16.8864C119.143 17.0852 119.068 17.3123 119.065 17.5675C119.065 17.7796 119.113 17.9636 119.209 18.1193C119.309 18.2751 119.443 18.4077 119.612 18.5171C119.781 18.6231 119.968 18.7126 120.174 18.7855C120.379 18.8584 120.586 18.9198 120.795 18.9695L121.75 19.2081C122.134 19.2976 122.504 19.4186 122.858 19.571C123.216 19.7235 123.536 19.9157 123.818 20.1477C124.103 20.3798 124.328 20.6598 124.494 20.9879C124.66 21.3161 124.743 21.7005 124.743 22.1414C124.743 22.7379 124.59 23.2633 124.285 23.7173C123.98 24.1681 123.54 24.5211 122.963 24.7763C122.39 25.0282 121.695 25.1541 120.88 25.1541C120.088 25.1541 119.4 25.0315 118.817 24.7862C118.237 24.541 117.782 24.183 117.454 23.7124C117.13 23.2417 116.954 22.6683 116.927 21.9922L118.742 21.9922C118.769 22.3468 118.878 22.6418 119.07 22.8771C119.262 23.1125 119.513 23.2881 119.821 23.4041C120.132 23.5201 120.48 23.5781 120.865 23.5781C121.266 23.5781 121.617 23.5185 121.919 23.3992C122.224 23.2765 122.462 23.1075 122.635 22.8921C122.807 22.6733 122.895 22.4181 122.898 22.1264C122.895 21.8613 122.817 21.6425 122.665 21.4702C122.512 21.2945 122.298 21.1487 122.023 21.0327C121.751 20.9134 121.433 20.8073 121.069 20.7145L119.91 20.4162C119.072 20.2008 118.409 19.8743 117.922 19.4368C117.438 18.996 117.196 18.411 117.196 17.6818C117.196 17.0819 117.358 16.5566 117.683 16.1058C118.011 15.6551 118.457 15.3054 119.02 15.0568C119.584 14.8049 120.222 14.679 120.934 14.679C121.657 14.679 122.29 14.8049 122.834 15.0568C123.381 15.3054 123.81 15.6518 124.121 16.0959C124.433 16.5367 124.594 17.0438 124.604 17.6172L122.829 17.6172ZM129.345 25.1541C128.861 25.1541 128.425 25.068 128.037 24.8956C127.653 24.7199 127.348 24.4614 127.123 24.12C126.901 23.7787 126.79 23.3577 126.79 22.8573C126.79 22.4264 126.869 22.0701 127.028 21.7884C127.187 21.5066 127.404 21.2813 127.679 21.1122C127.955 20.9432 128.264 20.8156 128.609 20.7294C128.957 20.6399 129.317 20.5753 129.688 20.5355C130.135 20.4891 130.498 20.4477 130.777 20.4112C131.055 20.3715 131.257 20.3118 131.383 20.2323C131.513 20.1494 131.577 20.0218 131.577 19.8494L131.577 19.8196C131.577 19.4451 131.466 19.1551 131.244 18.9496C131.022 18.7441 130.702 18.6414 130.285 18.6414C129.844 18.6414 129.494 18.7375 129.236 18.9297C128.98 19.1219 128.808 19.349 128.719 19.6108L127.038 19.3722C127.171 18.9082 127.389 18.5204 127.694 18.2088C127.999 17.894 128.372 17.6586 128.813 17.5029C129.254 17.3438 129.741 17.2642 130.275 17.2642C130.643 17.2642 131.009 17.3073 131.373 17.3935C131.738 17.4797 132.071 17.6222 132.373 17.821C132.674 18.0166 132.916 18.2834 133.099 18.6215C133.284 18.9595 133.377 19.3821 133.377 19.8892L133.377 25L131.647 25L131.647 23.951L131.587 23.951C131.478 24.1631 131.324 24.362 131.125 24.5476C130.929 24.7299 130.682 24.8774 130.384 24.9901C130.089 25.0994 129.743 25.1541 129.345 25.1541ZM129.812 23.8317C130.174 23.8317 130.487 23.7604 130.752 23.6179C131.017 23.4721 131.221 23.2798 131.363 23.0412C131.509 22.8026 131.582 22.5424 131.582 22.2607L131.582 21.3608C131.526 21.4072 131.43 21.4503 131.294 21.4901C131.161 21.5298 131.012 21.5646 130.846 21.5945C130.681 21.6243 130.517 21.6508 130.354 21.674C130.192 21.6972 130.051 21.7171 129.932 21.7337C129.663 21.7701 129.423 21.8298 129.211 21.9127C128.999 21.9955 128.831 22.1115 128.709 22.2607C128.586 22.4065 128.525 22.5954 128.525 22.8274C128.525 23.1589 128.646 23.4091 128.888 23.5781C129.13 23.7472 129.438 23.8317 129.812 23.8317ZM136.027 25L136.027 17.3637L137.747 17.3637L137.747 18.6612L137.836 18.6612C137.995 18.2237 138.259 17.8824 138.627 17.6371C138.995 17.3885 139.434 17.2642 139.944 17.2642C140.461 17.2642 140.897 17.3902 141.252 17.6421C141.61 17.8906 141.862 18.2304 142.007 18.6612L142.087 18.6612C142.256 18.237 142.541 17.8989 142.942 17.647C143.346 17.3918 143.825 17.2642 144.379 17.2642C145.082 17.2642 145.655 17.4863 146.099 17.9304C146.543 18.3745 146.765 19.0225 146.765 19.8743L146.765 25L144.961 25L144.961 20.1527C144.961 19.6788 144.835 19.3324 144.583 19.1136C144.331 18.8916 144.023 18.7806 143.658 18.7806C143.224 18.7806 142.884 18.9164 142.639 19.1882C142.397 19.4567 142.276 19.8064 142.276 20.2372L142.276 25L140.511 25L140.511 20.0781C140.511 19.6837 140.392 19.3689 140.153 19.1335C139.918 18.8982 139.609 18.7806 139.228 18.7806C138.97 18.7806 138.734 18.8468 138.522 18.9794C138.31 19.1087 138.141 19.2926 138.015 19.5313C137.889 19.7666 137.826 20.0417 137.826 20.3565L137.826 25L136.027 25ZM152.762 25.1492C152.016 25.1492 151.37 24.9851 150.823 24.657C150.276 24.3288 149.852 23.8698 149.55 23.2798C149.252 22.6899 149.103 22.0005 149.103 21.2117C149.103 20.4228 149.252 19.7318 149.55 19.1385C149.852 18.5452 150.276 18.0845 150.823 17.7564C151.37 17.4283 152.016 17.2642 152.762 17.2642C153.508 17.2642 154.154 17.4283 154.701 17.7564C155.248 18.0845 155.67 18.5452 155.969 19.1385C156.27 19.7318 156.421 20.4228 156.421 21.2117C156.421 22.0005 156.27 22.6899 155.969 23.2798C155.67 23.8698 155.248 24.3288 154.701 24.657C154.154 24.9851 153.508 25.1492 152.762 25.1492ZM152.772 23.7074C153.176 23.7074 153.514 23.5964 153.786 23.3743C154.058 23.1489 154.26 22.8473 154.393 22.4695C154.529 22.0916 154.597 21.6707 154.597 21.2067C154.597 20.7394 154.529 20.3168 154.393 19.9389C154.26 19.5578 154.058 19.2545 153.786 19.0291C153.514 18.8038 153.176 18.6911 152.772 18.6911C152.358 18.6911 152.013 18.8038 151.738 19.0291C151.466 19.2545 151.262 19.5578 151.126 19.9389C150.994 20.3168 150.927 20.7394 150.927 21.2067C150.927 21.6707 150.994 22.0916 151.126 22.4695C151.262 22.8473 151.466 23.1489 151.738 23.3743C152.013 23.5964 152.358 23.7074 152.772 23.7074ZM164.824 19.3821L163.184 19.5611C163.137 19.3954 163.056 19.2396 162.94 19.0938C162.827 18.9479 162.675 18.8303 162.483 18.7408C162.29 18.6513 162.055 18.6065 161.777 18.6065C161.402 18.6065 161.087 18.6877 160.832 18.8502C160.58 19.0126 160.456 19.223 160.459 19.4815C160.456 19.7036 160.537 19.8842 160.703 20.0234C160.872 20.1627 161.15 20.277 161.538 20.3665L162.84 20.6449C163.563 20.8007 164.1 21.0476 164.451 21.3857C164.806 21.7237 164.985 22.1662 164.988 22.7131C164.985 23.1937 164.844 23.6179 164.566 23.9858C164.291 24.3504 163.908 24.6354 163.417 24.8409C162.927 25.0464 162.363 25.1492 161.727 25.1492C160.792 25.1492 160.04 24.9536 159.47 24.5625C158.9 24.1681 158.56 23.6196 158.451 22.9169L160.206 22.7479C160.285 23.0926 160.454 23.3528 160.713 23.5284C160.971 23.7041 161.308 23.7919 161.722 23.7919C162.149 23.7919 162.492 23.7041 162.751 23.5284C163.013 23.3528 163.144 23.1357 163.144 22.8771C163.144 22.6584 163.059 22.4778 162.89 22.3352C162.724 22.1927 162.466 22.0833 162.115 22.0071L160.812 21.7337C160.08 21.5812 159.538 21.3243 159.186 20.9631C158.835 20.5985 158.661 20.1378 158.664 19.581C158.661 19.1103 158.789 18.7027 159.047 18.358C159.309 18.01 159.672 17.7415 160.136 17.5526C160.603 17.3603 161.142 17.2642 161.752 17.2642C162.647 17.2642 163.351 17.4548 163.865 17.8359C164.382 18.2171 164.702 18.7325 164.824 19.3821ZM169.51 25.1541C169.026 25.1541 168.59 25.068 168.202 24.8956C167.818 24.7199 167.513 24.4614 167.287 24.12C167.065 23.7787 166.954 23.3577 166.954 22.8573C166.954 22.4264 167.034 22.0701 167.193 21.7884C167.352 21.5066 167.569 21.2813 167.844 21.1122C168.119 20.9432 168.429 20.8156 168.774 20.7294C169.122 20.6399 169.481 20.5753 169.853 20.5355C170.3 20.4891 170.663 20.4477 170.941 20.4112C171.22 20.3715 171.422 20.3118 171.548 20.2323C171.677 20.1494 171.742 20.0218 171.742 19.8494L171.742 19.8196C171.742 19.4451 171.631 19.1551 171.409 18.9496C171.187 18.7441 170.867 18.6413 170.449 18.6413C170.008 18.6413 169.659 18.7375 169.4 18.9297C169.145 19.1219 168.973 19.349 168.883 19.6108L167.203 19.3722C167.335 18.9082 167.554 18.5204 167.859 18.2088C168.164 17.8939 168.537 17.6586 168.978 17.5028C169.419 17.3438 169.906 17.2642 170.439 17.2642C170.807 17.2642 171.173 17.3073 171.538 17.3935C171.903 17.4796 172.236 17.6222 172.537 17.821C172.839 18.0166 173.081 18.2834 173.263 18.6215C173.449 18.9595 173.542 19.3821 173.542 19.8892L173.542 25L171.812 25L171.812 23.951L171.752 23.951C171.642 24.1631 171.488 24.362 171.289 24.5476C171.094 24.7299 170.847 24.8774 170.549 24.9901C170.254 25.0994 169.907 25.1541 169.51 25.1541ZM169.977 23.8317C170.338 23.8317 170.651 23.7604 170.917 23.6179C171.182 23.4721 171.386 23.2798 171.528 23.0412C171.674 22.8026 171.747 22.5424 171.747 22.2607L171.747 21.3608C171.691 21.4072 171.594 21.4503 171.459 21.4901C171.326 21.5298 171.177 21.5646 171.011 21.5945C170.845 21.6243 170.681 21.6508 170.519 21.674C170.356 21.6972 170.216 21.7171 170.096 21.7337C169.828 21.7701 169.588 21.8298 169.375 21.9127C169.163 21.9955 168.996 22.1115 168.873 22.2607C168.751 22.4065 168.689 22.5954 168.689 22.8274C168.689 23.1589 168.81 23.4091 169.052 23.5781C169.294 23.7472 169.602 23.8317 169.977 23.8317Z"
        fill="#E5E5E5" />
    <path
        d="M11.7871 17.9147C11.7871 17.9147 11.7519 17.7164 11.6814 17.3198C11.6099 16.9243 11.6672 16.3855 11.8536 15.7036C12.0388 15.0216 12.2717 14.4781 12.5523 14.0731C12.8329 13.6682 13.1863 13.2637 13.6123 12.8598C14.0384 12.4569 14.5377 12.0766 15.1104 11.7188C15.683 11.3621 16.3238 11.0515 17.0327 10.7871C17.7417 10.5238 18.5058 10.3297 19.3249 10.2048C20.1441 10.08 20.9968 10.0501 21.883 10.1151C22.7692 10.1791 23.6537 10.3554 24.5365 10.6439C25.4204 10.9335 26.2589 11.3411 27.0519 11.8667C27.845 12.3924 28.5449 13.0255 29.1516 13.7663C29.7583 14.507 30.2286 15.3269 30.5627 16.2261C30.8956 17.1252 31.062 18.059 31.062 19.0274C31.062 19.9957 30.8859 20.9447 30.5337 21.8743C30.1815 22.8028 29.668 23.6569 28.9931 24.4364C28.3193 25.2159 27.5235 25.8748 26.6054 26.413C25.6874 26.9513 24.7018 27.34 23.6486 27.5792C22.5965 27.8174 21.5387 27.8987 20.4753 27.8231C19.4107 27.7476 18.399 27.5283 17.4401 27.1653C16.4811 26.8033 15.6194 26.3281 14.8547 25.7395C14.0912 25.1509 13.4516 24.4899 12.9357 23.7565C12.4222 23.0232 12.0399 22.2609 11.7888 21.4698C11.5377 20.6788 11.4088 19.8971 11.4019 19.1249C11.394 18.3527 11.486 17.6194 11.678 16.9248C11.8689 16.2303 12.1291 15.5924 12.4586 15.0111C12.7903 14.4299 13.1584 13.9095 13.5629 13.4499C13.9662 12.9914 14.3849 12.5943 14.8189 12.2586C15.2529 11.9239 15.6818 11.648 16.1056 11.4308C16.5283 11.2136 16.9282 11.0478 17.3054 10.9335C17.6815 10.8191 18.1252 10.7441 18.6364 10.7084C19.1488 10.6717 19.405 10.6539 19.405 10.6549C19.405 10.6549 19.405 10.6554 19.405 10.6565C19.405 10.6565 19.1869 10.7567 18.7506 10.9571C18.3132 11.1575 17.9343 11.3358 17.6139 11.4922C17.2923 11.6485 16.9447 11.8331 16.5709 12.0461C16.1971 12.2602 15.8091 12.5156 15.4069 12.8126C15.0047 13.1105 14.6104 13.463 14.2242 13.8701C13.8379 14.2783 13.4902 14.7467 13.1812 15.2755C12.8721 15.8043 12.6267 16.3855 12.4449 17.0192C12.2631 17.6529 12.1711 18.3234 12.1688 19.0305C12.1677 19.7366 12.2768 20.4537 12.4961 21.1818C12.7176 21.91 13.0607 22.6129 13.5254 23.2907C13.9901 23.9695 14.5707 24.5833 15.2671 25.132C15.9647 25.6807 16.7538 26.1266 17.6343 26.4697C18.5149 26.8138 19.4454 27.0252 20.4259 27.1039C21.4064 27.1837 22.3835 27.1181 23.3572 26.9072C24.3297 26.6963 25.2415 26.3475 26.0925 25.8607C26.9423 25.3738 27.6802 24.7758 28.3063 24.0666C28.9323 23.3584 29.4112 22.5804 29.7429 21.7327C30.0736 20.886 30.2428 20.0209 30.2508 19.1375C30.2588 18.2541 30.1128 17.4017 29.8128 16.5801C29.514 15.7597 29.0885 15.0116 28.5363 14.336C27.9853 13.6603 27.3485 13.0843 26.6259 12.608C25.9033 12.1327 25.1404 11.7681 24.3371 11.5142C23.535 11.2603 22.7351 11.1124 21.9375 11.0704C21.1399 11.0274 20.3799 11.0735 19.6573 11.2089C18.9347 11.3453 18.2717 11.5462 17.6684 11.8116C17.0651 12.0771 16.5288 12.3782 16.0596 12.715C15.5904 13.0518 15.1819 13.3985 14.8343 13.7552C14.4877 14.1109 14.1884 14.4582 13.9361 14.7971C13.6839 15.136 13.3806 15.5719 13.0261 16.1049C12.6727 16.6368 12.379 17.0717 12.145 17.4095L11.7871 17.9147Z"
        stroke="#DA3434" stroke-width="3" stroke-linecap="round" stroke-linejoin="round" />
    <g filter="url(#filter4_d_0_1)">
        <rect x="1" y="336" width="107" height="38" rx="10" fill="#353434" />
    </g>
    <path
        d="M40.5568 352.364L40.5568 350.818L48.6804 350.818L48.6804 352.364L45.5334 352.364L45.5334 361L43.7038 361L43.7038 352.364L40.5568 352.364ZM51.0069 361L51.0069 353.364L52.8066 353.364L52.8066 361L51.0069 361ZM51.9117 352.28C51.6267 352.28 51.3814 352.185 51.1759 351.996C50.9704 351.804 50.8677 351.574 50.8677 351.305C50.8677 351.034 50.9704 350.803 51.1759 350.614C51.3814 350.422 51.6267 350.326 51.9117 350.326C52.2001 350.326 52.4454 350.422 52.6475 350.614C52.853 350.803 52.9558 351.034 52.9558 351.305C52.9558 351.574 52.853 351.804 52.6475 351.996C52.4454 352.185 52.2001 352.28 51.9117 352.28ZM55.4973 363.864L55.4973 353.364L57.2672 353.364L57.2672 354.626L57.3716 354.626C57.4644 354.441 57.5953 354.244 57.7643 354.035C57.9334 353.823 58.1621 353.642 58.4504 353.493C58.7388 353.34 59.1067 353.264 59.5541 353.264C60.1441 353.264 60.676 353.415 61.15 353.717C61.6273 354.015 62.0051 354.457 62.2835 355.044C62.5652 355.627 62.7061 356.343 62.7061 357.192C62.7061 358.03 62.5686 358.743 62.2935 359.33C62.0184 359.916 61.6438 360.364 61.1699 360.672C60.6959 360.98 60.159 361.134 59.5591 361.134C59.1216 361.134 58.7587 361.061 58.4703 360.916C58.182 360.77 57.9499 360.594 57.7743 360.389C57.6019 360.18 57.4677 359.983 57.3716 359.797L57.297 359.797L57.297 363.864L55.4973 363.864ZM57.2622 357.182C57.2622 357.676 57.3318 358.108 57.471 358.479C57.6135 358.851 57.8174 359.141 58.0825 359.349C58.351 359.555 58.6758 359.658 59.057 359.658C59.4547 359.658 59.7878 359.552 60.0562 359.34C60.3247 359.124 60.5269 358.831 60.6628 358.46C60.802 358.085 60.8716 357.659 60.8716 357.182C60.8716 356.708 60.8036 356.287 60.6678 355.919C60.5319 355.551 60.3297 355.263 60.0612 355.054C59.7928 354.845 59.458 354.741 59.057 354.741C58.6725 354.741 58.346 354.842 58.0776 355.044C57.8091 355.246 57.6053 355.53 57.466 355.894C57.3302 356.259 57.2622 356.688 57.2622 357.182ZM69.4 361L69.4 353.364L71.1201 353.364L71.1201 354.661L71.2096 354.661C71.3687 354.224 71.6322 353.882 72.0001 353.637C72.368 353.389 72.8071 353.264 73.3176 353.264C73.8346 353.264 74.2705 353.39 74.6251 353.642C74.983 353.891 75.2349 354.23 75.3808 354.661L75.4603 354.661C75.6294 354.237 75.9144 353.899 76.3154 353.647C76.7198 353.392 77.1987 353.264 77.7522 353.264C78.4549 353.264 79.0283 353.486 79.4724 353.93C79.9165 354.375 80.1386 355.023 80.1386 355.874L80.1386 361L78.3339 361L78.3339 356.153C78.3339 355.679 78.208 355.332 77.9561 355.114C77.7042 354.892 77.3959 354.781 77.0313 354.781C76.5972 354.781 76.2574 354.916 76.0122 355.188C75.7702 355.457 75.6492 355.806 75.6492 356.237L75.6492 361L73.8843 361L73.8843 356.078C73.8843 355.684 73.765 355.369 73.5264 355.134C73.2911 354.898 72.9828 354.781 72.6017 354.781C72.3431 354.781 72.1078 354.847 71.8957 354.979C71.6836 355.109 71.5145 355.293 71.3886 355.531C71.2626 355.767 71.1997 356.042 71.1997 356.357L71.1997 361L69.4 361ZM86.1851 361.149C85.4195 361.149 84.7582 360.99 84.2014 360.672C83.6479 360.35 83.222 359.896 82.9237 359.31C82.6254 358.72 82.4763 358.025 82.4763 357.227C82.4763 356.441 82.6254 355.752 82.9237 355.158C83.2253 354.562 83.6463 354.098 84.1865 353.766C84.7268 353.432 85.3615 353.264 86.0906 353.264C86.5613 353.264 87.0054 353.34 87.423 353.493C87.8439 353.642 88.2152 353.874 88.5367 354.189C88.8615 354.504 89.1167 354.905 89.3023 355.392C89.4879 355.876 89.5807 356.453 89.5807 357.122L89.5807 357.674L83.3215 357.674L83.3215 356.461L87.8555 356.461C87.8522 356.116 87.7777 355.81 87.6318 355.541C87.486 355.269 87.2822 355.056 87.0203 354.9C86.7618 354.744 86.4602 354.666 86.1155 354.666C85.7476 354.666 85.4244 354.756 85.146 354.935C84.8676 355.11 84.6505 355.342 84.4947 355.631C84.3423 355.916 84.2644 356.229 84.2611 356.57L84.2611 357.629C84.2611 358.073 84.3423 358.455 84.5047 358.773C84.6671 359.088 84.8941 359.33 85.1858 359.499C85.4775 359.664 85.8188 359.747 86.2099 359.747C86.4718 359.747 86.7088 359.711 86.9209 359.638C87.133 359.562 87.317 359.451 87.4727 359.305C87.6285 359.159 87.7462 358.978 87.8257 358.763L89.5061 358.952C89.4001 359.396 89.1979 359.784 88.8996 360.115C88.6046 360.443 88.2268 360.698 87.7661 360.881C87.3054 361.06 86.7784 361.149 86.1851 361.149Z"
        fill="#E5E5E5" />
    <path
        d="M11.8847 353.915C11.8847 353.915 11.8522 353.716 11.7871 353.32C11.721 352.924 11.774 352.386 11.9461 351.704C12.1171 351.022 12.3322 350.478 12.5913 350.073C12.8505 349.668 13.1768 349.264 13.5702 348.86C13.9637 348.457 14.4248 348.077 14.9536 347.719C15.4824 347.362 16.0741 347.052 16.7288 346.787C17.3835 346.524 18.089 346.33 18.8455 346.205C19.6019 346.08 20.3894 346.05 21.2077 346.115C22.0261 346.179 22.8429 346.355 23.6581 346.644C24.4743 346.933 25.2486 347.341 25.9809 347.867C26.7133 348.392 27.3596 349.026 27.9198 349.766C28.4801 350.507 28.9144 351.327 29.2229 352.226C29.5303 353.125 29.684 354.059 29.684 355.027C29.684 355.996 29.5214 356.945 29.1962 357.874C28.8709 358.803 28.3967 359.657 27.7735 360.436C27.1513 361.216 26.4164 361.875 25.5686 362.413C24.7209 362.951 23.8107 363.34 22.8381 363.579C21.8666 363.817 20.8898 363.899 19.9078 363.823C18.9247 363.748 17.9904 363.528 17.1049 363.165C16.2194 362.803 15.4236 362.328 14.7175 361.739C14.0125 361.151 13.4218 360.49 12.9454 359.757C12.4712 359.023 12.1182 358.261 11.8863 357.47C11.6544 356.679 11.5353 355.897 11.529 355.125C11.5217 354.353 11.6067 353.619 11.784 352.925C11.9603 352.23 12.2005 351.592 12.5048 351.011C12.8111 350.43 13.1511 349.909 13.5246 349.45C13.897 348.991 14.2837 348.594 14.6845 348.259C15.0852 347.924 15.4813 347.648 15.8726 347.431C16.2629 347.214 16.6322 347.048 16.9806 346.933C17.3279 346.819 17.7376 346.744 18.2097 346.708C18.6829 346.672 18.9195 346.654 18.9195 346.655C18.9195 346.655 18.9195 346.655 18.9195 346.656C18.9195 346.656 18.718 346.757 18.3151 346.957C17.9112 347.157 17.5613 347.336 17.2654 347.492C16.9685 347.648 16.6475 347.833 16.3023 348.046C15.9571 348.26 15.5988 348.516 15.2274 348.813C14.856 349.111 14.4919 349.463 14.1352 349.87C13.7785 350.278 13.4574 350.747 13.1721 351.275C12.8867 351.804 12.6601 352.386 12.4922 353.019C12.3243 353.653 12.2393 354.323 12.2372 355.031C12.2362 355.737 12.3369 356.454 12.5394 357.182C12.744 357.91 13.0609 358.613 13.49 359.291C13.9191 359.97 14.4552 360.583 15.0984 361.132C15.7425 361.681 16.4712 362.127 17.2843 362.47C18.0974 362.814 18.9567 363.025 19.8621 363.104C20.7676 363.184 21.6699 363.118 22.569 362.907C23.4671 362.696 24.3091 362.347 25.0949 361.861C25.8797 361.374 26.5611 360.776 27.1392 360.067C27.7173 359.358 28.1596 358.58 28.4659 357.733C28.7712 356.886 28.9276 356.021 28.9349 355.138C28.9423 354.254 28.8074 353.402 28.5305 352.58C28.2545 351.76 27.8616 351.012 27.3517 350.336C26.8428 349.66 26.2548 349.084 25.5875 348.608C24.9202 348.133 24.2157 347.768 23.4739 347.514C22.7332 347.26 21.9946 347.112 21.2581 347.07C20.5216 347.027 19.8197 347.074 19.1524 347.209C18.4851 347.345 17.8729 347.546 17.3158 347.812C16.7587 348.077 16.2635 348.378 15.8302 348.715C15.3968 349.052 15.0197 349.399 14.6986 349.755C14.3786 350.111 14.1022 350.458 13.8692 350.797C13.6363 351.136 13.3562 351.572 13.0288 352.105C12.7026 352.637 12.4313 353.072 12.2152 353.41L11.8847 353.915Z"
        stroke="#558942" stroke-width="3" stroke-linecap="round" stroke-linejoin="round" />
    <g filter="url(#filter5_d_0_1)">
        <rect x="1" y="66" width="141" height="38" rx="10" fill="#353434" />
    </g>
    <path
        d="M46.5376 83.6172C46.4912 83.183 46.2957 82.845 45.951 82.603C45.6096 82.3611 45.1655 82.2401 44.6186 82.2401C44.2341 82.2401 43.9044 82.2981 43.6293 82.4141C43.3542 82.5301 43.1437 82.6875 42.9979 82.8864C42.852 83.0853 42.7775 83.3123 42.7741 83.5675C42.7741 83.7796 42.8222 83.9636 42.9183 84.1193C43.0178 84.2751 43.152 84.4077 43.321 84.5171C43.4901 84.6231 43.6773 84.7126 43.8828 84.7855C44.0883 84.8585 44.2955 84.9198 44.5043 84.9695L45.4588 85.2081C45.8433 85.2976 46.2128 85.4186 46.5675 85.5711C46.9254 85.7235 47.2453 85.9157 47.527 86.1478C47.812 86.3798 48.0374 86.6598 48.2031 86.988C48.3688 87.3161 48.4517 87.7005 48.4517 88.1414C48.4517 88.738 48.2992 89.2633 47.9943 89.7174C47.6894 90.1681 47.2486 90.5211 46.6719 90.7763C46.0985 91.0282 45.4041 91.1541 44.5888 91.1541C43.7966 91.1541 43.1089 91.0315 42.5256 90.7863C41.9456 90.541 41.4915 90.183 41.1634 89.7124C40.8385 89.2417 40.6629 88.6684 40.6364 87.9922L42.451 87.9922C42.4775 88.3469 42.5869 88.6418 42.7791 88.8772C42.9714 89.1125 43.2216 89.2881 43.5298 89.4041C43.8414 89.5202 44.1894 89.5782 44.5739 89.5782C44.9749 89.5782 45.3262 89.5185 45.6278 89.3992C45.9328 89.2765 46.1714 89.1075 46.3438 88.8921C46.5161 88.6733 46.6039 88.4181 46.6072 88.1264C46.6039 87.8613 46.526 87.6425 46.3736 87.4702C46.2211 87.2945 46.0073 87.1487 45.7322 87.0327C45.4605 86.9134 45.1423 86.8073 44.7777 86.7145L43.6193 86.4162C42.7808 86.2008 42.1179 85.8743 41.6307 85.4368C41.1468 84.996 40.9048 84.411 40.9048 83.6818C40.9048 83.0819 41.0672 82.5566 41.392 82.1059C41.7202 81.6551 42.166 81.3054 42.7294 81.0568C43.2929 80.805 43.9309 80.679 44.6435 80.679C45.366 80.679 45.9991 80.805 46.5426 81.0568C47.0895 81.3054 47.5187 81.6518 47.8303 82.0959C48.1418 82.5367 48.3026 83.0438 48.3125 83.6172L46.5376 83.6172ZM55.7237 87.7884L55.7237 83.3637L57.5234 83.3637L57.5234 91L55.7784 91L55.7784 89.6428L55.6988 89.6428C55.5265 90.0703 55.2431 90.42 54.8487 90.6918C54.4576 90.9636 53.9754 91.0995 53.402 91.0995C52.9015 91.0995 52.459 90.9884 52.0746 90.7664C51.6934 90.541 51.3951 90.2145 51.1797 89.787C50.9642 89.3561 50.8565 88.8357 50.8565 88.2259L50.8565 83.3637L52.6562 83.3637L52.6562 87.9475C52.6562 88.4314 52.7888 88.8158 53.054 89.1009C53.3191 89.3859 53.6671 89.5284 54.098 89.5284C54.3631 89.5284 54.62 89.4638 54.8686 89.3345C55.1172 89.2053 55.321 89.013 55.4801 88.7578C55.6425 88.4993 55.7237 88.1762 55.7237 87.7884ZM60.2141 93.8637L60.2141 83.3637L61.984 83.3637L61.984 84.6264L62.0884 84.6264C62.1812 84.4408 62.3121 84.2436 62.4811 84.0348C62.6502 83.8227 62.8789 83.6421 63.1672 83.4929C63.4556 83.3405 63.8235 83.2642 64.2709 83.2642C64.8609 83.2642 65.3928 83.415 65.8668 83.7166C66.3441 84.0149 66.7219 84.4574 67.0003 85.0441C67.282 85.6274 67.4229 86.3433 67.4229 87.1918C67.4229 88.0303 67.2854 88.7429 67.0103 89.3296C66.7352 89.9162 66.3606 90.3637 65.8867 90.6719C65.4127 90.9801 64.8758 91.1343 64.2759 91.1343C63.8384 91.1343 63.4755 91.0613 63.1871 90.9155C62.8988 90.7697 62.6667 90.594 62.4911 90.3885C62.3187 90.1797 62.1845 89.9825 62.0884 89.7969L62.0138 89.7969L62.0138 93.8637L60.2141 93.8637ZM61.979 87.1818C61.979 87.6757 62.0486 88.1082 62.1878 88.4794C62.3303 88.8506 62.5342 89.1407 62.7993 89.3495C63.0678 89.555 63.3926 89.6577 63.7738 89.6577C64.1715 89.6577 64.5046 89.5516 64.773 89.3395C65.0415 89.1241 65.2437 88.8308 65.3796 88.4595C65.5188 88.085 65.5884 87.6591 65.5884 87.1818C65.5884 86.7079 65.5204 86.287 65.3845 85.9191C65.2487 85.5512 65.0465 85.2628 64.778 85.054C64.5095 84.8452 64.1748 84.7408 63.7738 84.7408C63.3893 84.7408 63.0628 84.8419 62.7943 85.0441C62.5259 85.2462 62.322 85.5296 62.1828 85.8942C62.047 86.2588 61.979 86.688 61.979 87.1818ZM69.8041 93.8637L69.8041 83.3637L71.574 83.3637L71.574 84.6264L71.6784 84.6264C71.7712 84.4408 71.9021 84.2436 72.0711 84.0348C72.2402 83.8227 72.4689 83.6421 72.7572 83.4929C73.0456 83.3405 73.4135 83.2642 73.8609 83.2642C74.4509 83.2642 74.9828 83.415 75.4568 83.7166C75.9341 84.0149 76.3119 84.4574 76.5903 85.0441C76.872 85.6274 77.0129 86.3433 77.0129 87.1918C77.0129 88.0303 76.8754 88.7429 76.6003 89.3296C76.3252 89.9162 75.9506 90.3637 75.4767 90.6719C75.0027 90.9801 74.4658 91.1343 73.8659 91.1343C73.4284 91.1343 73.0655 91.0613 72.7771 90.9155C72.4888 90.7697 72.2567 90.594 72.0811 90.3885C71.9087 90.1797 71.7745 89.9825 71.6784 89.7969L71.6038 89.7969L71.6038 93.8637L69.8041 93.8637ZM71.569 87.1818C71.569 87.6757 71.6386 88.1082 71.7778 88.4794C71.9203 88.8506 72.1242 89.1406 72.3893 89.3495C72.6578 89.5549 72.9826 89.6577 73.3638 89.6577C73.7615 89.6577 74.0946 89.5516 74.363 89.3395C74.6315 89.1241 74.8337 88.8308 74.9696 88.4595C75.1088 88.085 75.1784 87.6591 75.1784 87.1818C75.1784 86.7079 75.1104 86.287 74.9745 85.9191C74.8387 85.5512 74.6365 85.2628 74.368 85.054C74.0995 84.8452 73.7648 84.7408 73.3638 84.7408C72.9793 84.7408 72.6528 84.8419 72.3843 85.0441C72.1159 85.2462 71.912 85.5296 71.7728 85.8942C71.637 86.2588 71.569 86.688 71.569 87.1818ZM82.7251 91.1492C81.9793 91.1492 81.333 90.9851 80.7861 90.657C80.2393 90.3289 79.815 89.8698 79.5134 89.2799C79.2151 88.6899 79.066 88.0005 79.066 87.2117C79.066 86.4228 79.2151 85.7318 79.5134 85.1385C79.815 84.5452 80.2393 84.0845 80.7861 83.7564C81.333 83.4283 81.9793 83.2642 82.7251 83.2642C83.4708 83.2642 84.1171 83.4283 84.664 83.7564C85.2109 84.0845 85.6334 84.5452 85.9317 85.1385C86.2333 85.7318 86.3842 86.4228 86.3842 87.2117C86.3842 88.0005 86.2333 88.6899 85.9317 89.2799C85.6334 89.8698 85.2109 90.3289 84.664 90.657C84.1171 90.9851 83.4708 91.1492 82.7251 91.1492ZM82.735 89.7074C83.1394 89.7074 83.4774 89.5964 83.7492 89.3743C84.021 89.1489 84.2232 88.8473 84.3557 88.4695C84.4916 88.0916 84.5596 87.6707 84.5596 87.2067C84.5596 86.7394 84.4916 86.3168 84.3557 85.9389C84.2232 85.5578 84.021 85.2545 83.7492 85.0291C83.4774 84.8038 83.1394 84.6911 82.735 84.6911C82.3207 84.6911 81.976 84.8038 81.7009 85.0291C81.4291 85.2545 81.2253 85.5578 81.0894 85.9389C80.9568 86.3168 80.8905 86.7394 80.8905 87.2067C80.8905 87.6707 80.9568 88.0916 81.0894 88.4695C81.2253 88.8473 81.4291 89.1489 81.7009 89.3743C81.976 89.5964 82.3207 89.7074 82.735 89.7074ZM88.7517 91L88.7517 83.3637L90.4967 83.3637L90.4967 84.6364L90.5762 84.6364C90.7154 84.1956 90.9541 83.8558 91.2922 83.6172C91.6335 83.3753 92.023 83.2543 92.4605 83.2543C92.5599 83.2543 92.6709 83.2593 92.7936 83.2692C92.9195 83.2758 93.0239 83.2874 93.1068 83.304L93.1068 84.9595C93.0306 84.933 92.9096 84.9098 92.7439 84.8899C92.5815 84.8667 92.424 84.8551 92.2716 84.8551C91.9434 84.8551 91.6485 84.9264 91.3866 85.0689C91.1281 85.2081 90.9243 85.402 90.7751 85.6506C90.626 85.8992 90.5514 86.1859 90.5514 86.5107L90.5514 91L88.7517 91ZM99.3658 83.3637L99.3658 84.7557L94.9759 84.7557L94.9759 83.3637L99.3658 83.3637ZM96.0597 81.5341L97.8594 81.5341L97.8594 88.7031C97.8594 88.9451 97.8959 89.1307 97.9688 89.26C98.045 89.3859 98.1445 89.4721 98.2671 89.5185C98.3897 89.5649 98.5256 89.5881 98.6748 89.5881C98.7875 89.5881 98.8902 89.5798 98.983 89.5632C99.0791 89.5467 99.152 89.5317 99.2018 89.5185L99.505 90.9254C99.4089 90.9586 99.2714 90.995 99.0924 91.0348C98.9167 91.0746 98.7013 91.0978 98.4461 91.1044C97.9953 91.1177 97.5893 91.0497 97.228 90.9006C96.8668 90.7481 96.5801 90.5128 96.368 90.1946C96.1591 89.8764 96.0564 89.4787 96.0597 89.0014L96.0597 81.5341ZM112.521 80.8182L114.366 80.8182L114.366 87.4702C114.366 88.1994 114.194 88.8407 113.849 89.3942C113.508 89.9477 113.027 90.3802 112.407 90.6918C111.787 91 111.063 91.1541 110.235 91.1541C109.403 91.1541 108.677 91 108.057 90.6918C107.437 90.3802 106.957 89.9477 106.615 89.3942C106.274 88.8407 106.103 88.1994 106.103 87.4702L106.103 80.8182L107.948 80.8182L107.948 87.3161C107.948 87.7403 108.04 88.1182 108.226 88.4496C108.415 88.781 108.68 89.0412 109.021 89.2301C109.363 89.4157 109.767 89.5085 110.235 89.5085C110.702 89.5085 111.106 89.4157 111.448 89.2301C111.792 89.0412 112.057 88.781 112.243 88.4496C112.429 88.1182 112.521 87.7403 112.521 87.3161L112.521 80.8182ZM123.167 85.3821L121.526 85.5611C121.48 85.3954 121.398 85.2396 121.282 85.0938C121.17 84.9479 121.017 84.8303 120.825 84.7408C120.633 84.6513 120.398 84.6066 120.119 84.6066C119.745 84.6066 119.43 84.6878 119.175 84.8502C118.923 85.0126 118.798 85.223 118.802 85.4816C118.798 85.7036 118.88 85.8842 119.045 86.0235C119.214 86.1627 119.493 86.277 119.88 86.3665L121.183 86.6449C121.906 86.8007 122.443 87.0476 122.794 87.3857C123.148 87.7237 123.327 88.1662 123.331 88.7131C123.327 89.1937 123.187 89.6179 122.908 89.9858C122.633 90.3504 122.25 90.6354 121.76 90.8409C121.269 91.0464 120.706 91.1492 120.069 91.1492C119.135 91.1492 118.382 90.9536 117.812 90.5625C117.242 90.1681 116.903 89.6196 116.793 88.9169L118.548 88.7479C118.628 89.0926 118.797 89.3528 119.055 89.5284C119.314 89.7041 119.65 89.7919 120.064 89.7919C120.492 89.7919 120.835 89.7041 121.094 89.5284C121.355 89.3528 121.486 89.1357 121.486 88.8771C121.486 88.6584 121.402 88.4778 121.233 88.3352C121.067 88.1927 120.809 88.0833 120.457 88.0071L119.155 87.7337C118.422 87.5812 117.88 87.3244 117.529 86.9631C117.178 86.5985 117.004 86.1378 117.007 85.581C117.004 85.1103 117.131 84.7027 117.39 84.358C117.652 84.01 118.014 83.7415 118.479 83.5526C118.946 83.3603 119.484 83.2642 120.094 83.2642C120.989 83.2642 121.693 83.4548 122.207 83.836C122.724 84.2171 123.044 84.7325 123.167 85.3821Z"
        fill="#E5E5E5" />
    <path
        d="M11.8847 83.9147C11.8847 83.9147 11.8522 83.7164 11.7871 83.3198C11.721 82.9243 11.774 82.3855 11.9461 81.7036C12.1171 81.0216 12.3322 80.4781 12.5913 80.0732C12.8505 79.6682 13.1768 79.2637 13.5702 78.8598C13.9637 78.4569 14.4248 78.0766 14.9536 77.7188C15.4824 77.3621 16.0741 77.0515 16.7288 76.7871C17.3835 76.5238 18.089 76.3297 18.8455 76.2048C19.6019 76.08 20.3894 76.0501 21.2077 76.1151C22.0261 76.1791 22.8429 76.3554 23.6581 76.6439C24.4743 76.9335 25.2486 77.3411 25.9809 77.8667C26.7133 78.3924 27.3596 79.0255 27.9198 79.7663C28.4801 80.507 28.9144 81.3269 29.2229 82.2261C29.5303 83.1252 29.684 84.059 29.684 85.0274C29.684 85.9958 29.5214 86.9447 29.1962 87.8743C28.8709 88.8028 28.3967 89.6569 27.7735 90.4364C27.1513 91.2159 26.4164 91.8748 25.5686 92.4131C24.7209 92.9513 23.8107 93.34 22.8381 93.5792C21.8666 93.8174 20.8898 93.8987 19.9078 93.8232C18.9247 93.7476 17.9904 93.5283 17.1049 93.1653C16.2194 92.8034 15.4236 92.3281 14.7175 91.7395C14.0125 91.1509 13.4218 90.4899 12.9454 89.7565C12.4712 89.0232 12.1182 88.2609 11.8863 87.4699C11.6544 86.6788 11.5353 85.8971 11.529 85.1249C11.5217 84.3528 11.6067 83.6194 11.784 82.9248C11.9603 82.2303 12.2005 81.5924 12.5048 81.0111C12.8111 80.4299 13.1511 79.9095 13.5246 79.4499C13.897 78.9915 14.2837 78.5943 14.6845 78.2586C15.0852 77.9239 15.4813 77.648 15.8726 77.4308C16.2629 77.2136 16.6322 77.0479 16.9806 76.9335C17.3279 76.8191 17.7376 76.7441 18.2097 76.7084C18.6829 76.6717 18.9195 76.6539 18.9195 76.6549C18.9195 76.6549 18.9195 76.6555 18.9195 76.6565C18.9195 76.6565 18.718 76.7567 18.3151 76.9571C17.9112 77.1575 17.5613 77.3359 17.2654 77.4922C16.9685 77.6485 16.6475 77.8332 16.3023 78.0461C15.9571 78.2602 15.5988 78.5157 15.2274 78.8126C14.856 79.1105 14.4919 79.4631 14.1352 79.8701C13.7785 80.2783 13.4574 80.7467 13.1721 81.2755C12.8867 81.8043 12.6601 82.3855 12.4922 83.0192C12.3243 83.653 12.2393 84.3234 12.2372 85.0305C12.2362 85.7366 12.3369 86.4537 12.5394 87.1819C12.744 87.91 13.0609 88.6129 13.49 89.2907C13.9191 89.9695 14.4552 90.5833 15.0984 91.132C15.7425 91.6807 16.4712 92.1266 17.2843 92.4697C18.0974 92.8138 18.9567 93.0253 19.8621 93.1039C20.7676 93.1837 21.6699 93.1181 22.569 92.9072C23.4671 92.6963 24.3091 92.3475 25.0949 91.8607C25.8797 91.3738 26.5611 90.7758 27.1392 90.0666C27.7173 89.3584 28.1596 88.5804 28.4659 87.7327C28.7712 86.886 28.9276 86.0209 28.9349 85.1375C28.9423 84.2541 28.8074 83.4017 28.5305 82.5802C28.2545 81.7597 27.8616 81.0116 27.3517 80.336C26.8428 79.6603 26.2548 79.0843 25.5875 78.608C24.9202 78.1327 24.2157 77.7681 23.4739 77.5142C22.7332 77.2603 21.9946 77.1124 21.2581 77.0704C20.5216 77.0274 19.8197 77.0736 19.1524 77.2089C18.4851 77.3453 17.8729 77.5462 17.3158 77.8117C16.7587 78.0771 16.2635 78.3782 15.8302 78.715C15.3968 79.0518 15.0197 79.3985 14.6986 79.7553C14.3786 80.1109 14.1022 80.4582 13.8692 80.7971C13.6363 81.136 13.3562 81.5719 13.0288 82.1049C12.7026 82.6368 12.4313 83.0717 12.2152 83.4095L11.8847 83.9147Z"
        stroke="#4F4DC7" stroke-width="3" stroke-linecap="round" stroke-linejoin="round" />
    <defs>
        <filter id="filter0_d_0_1" x="1" y="270" width="175.787" height="46" filterUnits="userSpaceOnUse"
            color-interpolation-filters="sRGB">
            <feFlood flood-opacity="0" result="BackgroundImageFix" />
            <feColorMatrix in="SourceAlpha" type="matrix" values="0 0 0 0 0 0 0 0 0 0 0 0 0 0 0 0 0 0 127 0"
                result="hardAlpha" />
            <feOffset dx="4" dy="4" />
            <feGaussianBlur stdDeviation="2" />
            <feComposite in2="hardAlpha" operator="out" />
            <feColorMatrix type="matrix" values="0 0 0 0 0 0 0 0 0 0 0 0 0 0 0 0 0 0 0.25 0" />
            <feBlend mode="normal" in2="BackgroundImageFix" result="effect1_dropShadow_0_1" />
            <feBlend mode="normal" in="SourceGraphic" in2="effect1_dropShadow_0_1" result="shape" />
        </filter>
        <filter id="filter1_d_0_1" x="0" y="132" width="130" height="46" filterUnits="userSpaceOnUse"
            color-interpolation-filters="sRGB">
            <feFlood flood-opacity="0" result="BackgroundImageFix" />
            <feColorMatrix in="SourceAlpha" type="matrix" values="0 0 0 0 0 0 0 0 0 0 0 0 0 0 0 0 0 0 127 0"
                result="hardAlpha" />
            <feOffset dx="4" dy="4" />
            <feGaussianBlur stdDeviation="2" />
            <feComposite in2="hardAlpha" operator="out" />
            <feColorMatrix type="matrix" values="0 0 0 0 0 0 0 0 0 0 0 0 0 0 0 0 0 0 0.25 0" />
            <feBlend mode="normal" in2="BackgroundImageFix" result="effect1_dropShadow_0_1" />
            <feBlend mode="normal" in="SourceGraphic" in2="effect1_dropShadow_0_1" result="shape" />
        </filter>
        <filter id="filter2_d_0_1" x="1" y="196" width="175.787" height="46" filterUnits="userSpaceOnUse"
            color-interpolation-filters="sRGB">
            <feFlood flood-opacity="0" result="BackgroundImageFix" />
            <feColorMatrix in="SourceAlpha" type="matrix" values="0 0 0 0 0 0 0 0 0 0 0 0 0 0 0 0 0 0 127 0"
                result="hardAlpha" />
            <feOffset dx="4" dy="4" />
            <feGaussianBlur stdDeviation="2" />
            <feComposite in2="hardAlpha" operator="out" />
            <feColorMatrix type="matrix" values="0 0 0 0 0 0 0 0 0 0 0 0 0 0 0 0 0 0 0.25 0" />
            <feBlend mode="normal" in2="BackgroundImageFix" result="effect1_dropShadow_0_1" />
            <feBlend mode="normal" in="SourceGraphic" in2="effect1_dropShadow_0_1" result="shape" />
        </filter>
        <filter id="filter3_d_0_1" x="0" y="0" width="195.687" height="46" filterUnits="userSpaceOnUse"
            color-interpolation-filters="sRGB">
            <feFlood flood-opacity="0" result="BackgroundImageFix" />
            <feColorMatrix in="SourceAlpha" type="matrix" values="0 0 0 0 0 0 0 0 0 0 0 0 0 0 0 0 0 0 127 0"
                result="hardAlpha" />
            <feOffset dx="4" dy="4" />
            <feGaussianBlur stdDeviation="2" />
            <feComposite in2="hardAlpha" operator="out" />
            <feColorMatrix type="matrix" values="0 0 0 0 0 0 0 0 0 0 0 0 0 0 0 0 0 0 0.25 0" />
            <feBlend mode="normal" in2="BackgroundImageFix" result="effect1_dropShadow_0_1" />
            <feBlend mode="normal" in="SourceGraphic" in2="effect1_dropShadow_0_1" result="shape" />
        </filter>
        <filter id="filter4_d_0_1" x="1" y="336" width="115" height="46.0001" filterUnits="userSpaceOnUse"
            color-interpolation-filters="sRGB">
            <feFlood flood-opacity="0" result="BackgroundImageFix" />
            <feColorMatrix in="SourceAlpha" type="matrix" values="0 0 0 0 0 0 0 0 0 0 0 0 0 0 0 0 0 0 127 0"
                result="hardAlpha" />
            <feOffset dx="4" dy="4" />
            <feGaussianBlur stdDeviation="2" />
            <feComposite in2="hardAlpha" operator="out" />
            <feColorMatrix type="matrix" values="0 0 0 0 0 0 0 0 0 0 0 0 0 0 0 0 0 0 0.25 0" />
            <feBlend mode="normal" in2="BackgroundImageFix" result="effect1_dropShadow_0_1" />
            <feBlend mode="normal" in="SourceGraphic" in2="effect1_dropShadow_0_1" result="shape" />
        </filter>
        <filter id="filter5_d_0_1" x="1" y="66" width="149" height="46" filterUnits="userSpaceOnUse"
            color-interpolation-filters="sRGB">
            <feFlood flood-opacity="0" result="BackgroundImageFix" />
            <feColorMatrix in="SourceAlpha" type="matrix" values="0 0 0 0 0 0 0 0 0 0 0 0 0 0 0 0 0 0 127 0"
                result="hardAlpha" />
            <feOffset dx="4" dy="4" />
            <feGaussianBlur stdDeviation="2" />
            <feComposite in2="hardAlpha" operator="out" />
            <feColorMatrix type="matrix" values="0 0 0 0 0 0 0 0 0 0 0 0 0 0 0 0 0 0 0.25 0" />
            <feBlend mode="normal" in2="BackgroundImageFix" result="effect1_dropShadow_0_1" />
            <feBlend mode="normal" in="SourceGraphic" in2="effect1_dropShadow_0_1" result="shape" />
        </filter>
    </defs>
</svg>