<svg width="83" height="79" viewBox="0 0 83 79" fill="none" xmlns="http://www.w3.org/2000/svg">
    <g filter="url(#filter0_d_75_10)">
        <rect width="75" height="71" rx="10" fill="#353434" />
    </g>
    <path
        d="M8.00426 24V13.8182H11.8224C12.6046 13.8182 13.2609 13.964 13.7912 14.2557C14.3248 14.5473 14.7275 14.9484 14.9993 15.4588C15.2744 15.9659 15.4119 16.5426 15.4119 17.1889C15.4119 17.8419 15.2744 18.4219 14.9993 18.929C14.7242 19.4361 14.3182 19.8355 13.7812 20.1271C13.2443 20.4155 12.5831 20.5597 11.7976 20.5597H9.26705V19.0433H11.549C12.0064 19.0433 12.3809 18.9638 12.6726 18.8047C12.9643 18.6456 13.1797 18.4268 13.3189 18.1484C13.4614 17.87 13.5327 17.5502 13.5327 17.1889C13.5327 16.8277 13.4614 16.5095 13.3189 16.2344C13.1797 15.9593 12.9626 15.7455 12.6676 15.593C12.3759 15.4373 11.9998 15.3594 11.5391 15.3594H9.84872V24H8.00426ZM19.8352 24.1541C19.3513 24.1541 18.9155 24.0679 18.5277 23.8956C18.1432 23.7199 17.8383 23.4614 17.6129 23.12C17.3908 22.7786 17.2798 22.3577 17.2798 21.8572C17.2798 21.4264 17.3594 21.0701 17.5184 20.7884C17.6775 20.5066 17.8946 20.2812 18.1697 20.1122C18.4448 19.9432 18.7547 19.8156 19.0994 19.7294C19.4474 19.6399 19.807 19.5753 20.1782 19.5355C20.6257 19.4891 20.9886 19.4477 21.267 19.4112C21.5454 19.3714 21.7476 19.3118 21.8736 19.2322C22.0028 19.1494 22.0675 19.0218 22.0675 18.8494V18.8196C22.0675 18.4451 21.9564 18.1551 21.7344 17.9496C21.5123 17.7441 21.1925 17.6413 20.7748 17.6413C20.334 17.6413 19.9844 17.7375 19.7258 17.9297C19.4706 18.1219 19.2983 18.349 19.2088 18.6108L17.5284 18.3722C17.661 17.9081 17.8797 17.5204 18.1846 17.2088C18.4896 16.8939 18.8624 16.6586 19.3032 16.5028C19.7441 16.3438 20.2313 16.2642 20.7649 16.2642C21.1328 16.2642 21.499 16.3073 21.8636 16.3935C22.2282 16.4796 22.5613 16.6222 22.8629 16.821C23.1645 17.0166 23.4065 17.2834 23.5888 17.6214C23.7744 17.9595 23.8672 18.3821 23.8672 18.8892V24H22.1371V22.951H22.0774C21.968 23.1631 21.8139 23.362 21.615 23.5476C21.4195 23.7299 21.1726 23.8774 20.8743 23.9901C20.5793 24.0994 20.2329 24.1541 19.8352 24.1541ZM20.3025 22.8317C20.6638 22.8317 20.977 22.7604 21.2422 22.6179C21.5073 22.4721 21.7112 22.2798 21.8537 22.0412C21.9995 21.8026 22.0724 21.5424 22.0724 21.2607V20.3608C22.0161 20.4072 21.92 20.4503 21.7841 20.4901C21.6515 20.5298 21.5023 20.5646 21.3366 20.5945C21.1709 20.6243 21.0068 20.6508 20.8444 20.674C20.682 20.6972 20.5412 20.7171 20.4219 20.7337C20.1534 20.7701 19.9131 20.8298 19.701 20.9126C19.4889 20.9955 19.3215 21.1115 19.1988 21.2607C19.0762 21.4065 19.0149 21.5954 19.0149 21.8274C19.0149 22.1589 19.1359 22.4091 19.3778 22.5781C19.6198 22.7472 19.928 22.8317 20.3025 22.8317ZM27.362 26.8636C27.1167 26.8636 26.8897 26.8438 26.6809 26.804C26.4754 26.7675 26.3113 26.7244 26.1887 26.6747L26.6063 25.2727C26.8682 25.349 27.1018 25.3854 27.3073 25.3821C27.5128 25.3788 27.6934 25.3142 27.8492 25.1882C28.0083 25.0656 28.1425 24.8601 28.2519 24.5717L28.406 24.1591L25.6369 16.3636H27.5459L29.3059 22.1307H29.3854L31.1503 16.3636H33.0644L30.0069 24.9247C29.8644 25.3291 29.6754 25.6754 29.4401 25.9638C29.2048 26.2554 28.9164 26.4775 28.5751 26.63C28.237 26.7857 27.8326 26.8636 27.362 26.8636ZM9.36648 30.8182L12.0163 38.8324H12.1207L14.7656 30.8182H16.794L13.2045 41H10.9276L7.34304 30.8182H9.36648ZM18.8956 41V33.3636H20.6953V41H18.8956ZM19.8004 32.2798C19.5154 32.2798 19.2701 32.1854 19.0646 31.9964C18.8591 31.8042 18.7564 31.5739 18.7564 31.3054C18.7564 31.0336 18.8591 30.8033 19.0646 30.6143C19.2701 30.4221 19.5154 30.326 19.8004 30.326C20.0888 30.326 20.334 30.4221 20.5362 30.6143C20.7417 30.8033 20.8444 31.0336 20.8444 31.3054C20.8444 31.5739 20.7417 31.8042 20.5362 31.9964C20.334 32.1854 20.0888 32.2798 19.8004 32.2798ZM25.5834 41.1541C25.0995 41.1541 24.6637 41.0679 24.2759 40.8956C23.8914 40.7199 23.5865 40.4614 23.3611 40.12C23.139 39.7786 23.028 39.3577 23.028 38.8572C23.028 38.4264 23.1076 38.0701 23.2666 37.7884C23.4257 37.5066 23.6428 37.2812 23.9179 37.1122C24.193 36.9432 24.5029 36.8156 24.8476 36.7294C25.1956 36.6399 25.5552 36.5753 25.9264 36.5355C26.3739 36.4891 26.7368 36.4477 27.0152 36.4112C27.2936 36.3714 27.4958 36.3118 27.6218 36.2322C27.751 36.1494 27.8157 36.0218 27.8157 35.8494V35.8196C27.8157 35.4451 27.7046 35.1551 27.4826 34.9496C27.2605 34.7441 26.9407 34.6413 26.523 34.6413C26.0822 34.6413 25.7326 34.7375 25.474 34.9297C25.2188 35.1219 25.0465 35.349 24.957 35.6108L23.2766 35.3722C23.4092 34.9081 23.6279 34.5204 23.9328 34.2088C24.2378 33.8939 24.6106 33.6586 25.0514 33.5028C25.4923 33.3438 25.9795 33.2642 26.5131 33.2642C26.881 33.2642 27.2472 33.3073 27.6118 33.3935C27.9764 33.4796 28.3095 33.6222 28.6111 33.821C28.9127 34.0166 29.1547 34.2834 29.337 34.6214C29.5226 34.9595 29.6154 35.3821 29.6154 35.8892V41H27.8853V39.951H27.8256C27.7162 40.1631 27.5621 40.362 27.3632 40.5476C27.1677 40.7299 26.9208 40.8774 26.6225 40.9901C26.3275 41.0994 25.9811 41.1541 25.5834 41.1541ZM26.0507 39.8317C26.412 39.8317 26.7252 39.7604 26.9904 39.6179C27.2555 39.4721 27.4594 39.2798 27.6019 39.0412C27.7477 38.8026 27.8206 38.5424 27.8206 38.2607V37.3608C27.7643 37.4072 27.6682 37.4503 27.5323 37.4901C27.3997 37.5298 27.2505 37.5646 27.0848 37.5945C26.9191 37.6243 26.755 37.6508 26.5926 37.674C26.4302 37.6972 26.2894 37.7171 26.1701 37.7337C25.9016 37.7701 25.6613 37.8298 25.4492 37.9126C25.2371 37.9955 25.0697 38.1115 24.947 38.2607C24.8244 38.4065 24.7631 38.5954 24.7631 38.8274C24.7631 39.1589 24.8841 39.4091 25.126 39.5781C25.368 39.7472 25.6762 39.8317 26.0507 39.8317ZM14.4226 47.8182H16.267V54.4702C16.267 55.1993 16.0947 55.8407 15.75 56.3942C15.4086 56.9477 14.928 57.3802 14.3082 57.6918C13.6884 58 12.9643 58.1541 12.1357 58.1541C11.3037 58.1541 10.5779 58 9.9581 57.6918C9.33831 57.3802 8.85772 56.9477 8.51634 56.3942C8.17495 55.8407 8.00426 55.1993 8.00426 54.4702V47.8182H9.84872V54.3161C9.84872 54.7403 9.94152 55.1181 10.1271 55.4496C10.3161 55.781 10.5812 56.0412 10.9226 56.2301C11.264 56.4157 11.6683 56.5085 12.1357 56.5085C12.603 56.5085 13.0073 56.4157 13.3487 56.2301C13.6934 56.0412 13.9586 55.781 14.1442 55.4496C14.3298 55.1181 14.4226 54.7403 14.4226 54.3161V47.8182ZM19.1118 58V47.8182H22.93C23.7122 47.8182 24.3685 47.964 24.8988 48.2557C25.4324 48.5473 25.8351 48.9484 26.1069 49.4588C26.382 49.9659 26.5195 50.5426 26.5195 51.1889C26.5195 51.8419 26.382 52.4219 26.1069 52.929C25.8318 53.4361 25.4258 53.8355 24.8888 54.1271C24.3519 54.4155 23.6907 54.5597 22.9052 54.5597H20.3746V53.0433H22.6566C23.114 53.0433 23.4885 52.9638 23.7802 52.8047C24.0718 52.6456 24.2873 52.4268 24.4265 52.1484C24.569 51.87 24.6402 51.5502 24.6402 51.1889C24.6402 50.8277 24.569 50.5095 24.4265 50.2344C24.2873 49.9593 24.0702 49.7455 23.7752 49.593C23.4835 49.4373 23.1073 49.3594 22.6466 49.3594H20.9563V58H19.1118ZM30.8061 47.8182V58H28.9616V47.8182H30.8061ZM34.6725 58.1094C34.3709 58.1094 34.1124 58.0033 33.897 57.7912C33.6815 57.5791 33.5755 57.3205 33.5788 57.0156C33.5755 56.7173 33.6815 56.4621 33.897 56.25C34.1124 56.0379 34.3709 55.9318 34.6725 55.9318C34.9642 55.9318 35.2177 56.0379 35.4332 56.25C35.6519 56.4621 35.763 56.7173 35.7663 57.0156C35.763 57.2178 35.7099 57.4018 35.6072 57.5675C35.5077 57.7332 35.3752 57.8658 35.2095 57.9652C35.047 58.0613 34.8681 58.1094 34.6725 58.1094ZM41.7954 58.1491C41.0331 58.1491 40.3785 57.9818 39.8316 57.647C39.288 57.3123 38.8688 56.8499 38.5738 56.2599C38.2821 55.6667 38.1363 54.9839 38.1363 54.2116C38.1363 53.4361 38.2854 52.7517 38.5837 52.1584C38.882 51.5618 39.3029 51.0978 39.8465 50.7663C40.3934 50.4316 41.0397 50.2642 41.7854 50.2642C42.4052 50.2642 42.9538 50.3786 43.431 50.6072C43.9116 50.8326 44.2944 51.1525 44.5795 51.5668C44.8645 51.9777 45.0269 52.4583 45.0667 53.0085H43.3465C43.2769 52.6406 43.1112 52.334 42.8493 52.0888C42.5908 51.8402 42.2445 51.7159 41.8103 51.7159C41.4424 51.7159 41.1192 51.8153 40.8408 52.0142C40.5624 52.2098 40.3453 52.4915 40.1895 52.8594C40.0371 53.2273 39.9609 53.6681 39.9609 54.1818C39.9609 54.7022 40.0371 55.1496 40.1895 55.5241C40.342 55.8954 40.5558 56.1821 40.8309 56.3842C41.1093 56.5831 41.4358 56.6825 41.8103 56.6825C42.0754 56.6825 42.3124 56.6328 42.5212 56.5334C42.7333 56.4306 42.9107 56.2831 43.0532 56.0909C43.1957 55.8987 43.2935 55.665 43.3465 55.3899H45.0667C45.0236 55.9302 44.8645 56.4091 44.5894 56.8267C44.3143 57.241 43.9398 57.5658 43.4658 57.8011C42.9919 58.0331 42.435 58.1491 41.7954 58.1491ZM50.7154 58.1491C49.9697 58.1491 49.3234 57.9851 48.7765 57.657C48.2297 57.3288 47.8054 56.8698 47.5038 56.2798C47.2055 55.6899 47.0564 55.0005 47.0564 54.2116C47.0564 53.4228 47.2055 52.7318 47.5038 52.1385C47.8054 51.5452 48.2297 51.0845 48.7765 50.7564C49.3234 50.4283 49.9697 50.2642 50.7154 50.2642C51.4612 50.2642 52.1075 50.4283 52.6544 50.7564C53.2012 51.0845 53.6238 51.5452 53.9221 52.1385C54.2237 52.7318 54.3745 53.4228 54.3745 54.2116C54.3745 55.0005 54.2237 55.6899 53.9221 56.2798C53.6238 56.8698 53.2012 57.3288 52.6544 57.657C52.1075 57.9851 51.4612 58.1491 50.7154 58.1491ZM50.7254 56.7074C51.1297 56.7074 51.4678 56.5964 51.7396 56.3743C52.0114 56.1489 52.2136 55.8473 52.3461 55.4695C52.482 55.0916 52.55 54.6707 52.55 54.2067C52.55 53.7393 52.482 53.3168 52.3461 52.9389C52.2136 52.5578 52.0114 52.2545 51.7396 52.0291C51.4678 51.8037 51.1297 51.6911 50.7254 51.6911C50.3111 51.6911 49.9664 51.8037 49.6913 52.0291C49.4195 52.2545 49.2157 52.5578 49.0798 52.9389C48.9472 53.3168 48.8809 53.7393 48.8809 54.2067C48.8809 54.6707 48.9472 55.0916 49.0798 55.4695C49.2157 55.8473 49.4195 56.1489 49.6913 56.3743C49.9664 56.5964 50.3111 56.7074 50.7254 56.7074ZM56.7421 58V50.3636H58.4622V51.6612H58.5517C58.7108 51.2237 58.9743 50.8823 59.3422 50.6371C59.7101 50.3885 60.1493 50.2642 60.6597 50.2642C61.1767 50.2642 61.6126 50.3902 61.9672 50.642C62.3252 50.8906 62.5771 51.2304 62.7229 51.6612H62.8024C62.9715 51.237 63.2565 50.8989 63.6575 50.647C64.0619 50.3918 64.5408 50.2642 65.0943 50.2642C65.797 50.2642 66.3704 50.4863 66.8145 50.9304C67.2586 51.3745 67.4807 52.0225 67.4807 52.8743V58H65.676V53.1527C65.676 52.6787 65.5501 52.3324 65.2982 52.1136C65.0463 51.8916 64.738 51.7805 64.3735 51.7805C63.9393 51.7805 63.5995 51.9164 63.3543 52.1882C63.1123 52.4567 62.9914 52.8063 62.9914 53.2372V58H61.2264V53.0781C61.2264 52.6837 61.1071 52.3688 60.8685 52.1335C60.6332 51.8982 60.3249 51.7805 59.9438 51.7805C59.6852 51.7805 59.4499 51.8468 59.2378 51.9794C59.0257 52.1087 58.8566 52.2926 58.7307 52.5312C58.6048 52.7666 58.5418 53.0417 58.5418 53.3565V58H56.7421Z"
        fill="#E5E5E5" />
    <g filter="url(#filter1_d_75_10)">
        <path
            d="M62 25C62 30.5228 57.5228 35 52 35C46.4772 35 42 30.5228 42 25C42 19.4772 46.4772 15 52 15C57.5228 15 62 19.4772 62 25ZM46.6702 25C46.6702 27.9435 49.0565 30.3298 52 30.3298C54.9435 30.3298 57.3298 27.9435 57.3298 25C57.3298 22.0565 54.9435 19.6702 52 19.6702C49.0565 19.6702 46.6702 22.0565 46.6702 25Z"
            fill="#6CAD54" />
    </g>

    <defs>
        <filter id="filter0_d_75_10" x="0" y="0" width="83" height="79" filterUnits="userSpaceOnUse"
            color-interpolation-filters="sRGB">
            <feFlood flood-opacity="0" result="BackgroundImageFix" />
            <feColorMatrix in="SourceAlpha" type="matrix" values="0 0 0 0 0 0 0 0 0 0 0 0 0 0 0 0 0 0 127 0"
                result="hardAlpha" />
            <feOffset dx="4" dy="4" />
            <feGaussianBlur stdDeviation="2" />
            <feComposite in2="hardAlpha" operator="out" />
            <feColorMatrix type="matrix" values="0 0 0 0 0 0 0 0 0 0 0 0 0 0 0 0 0 0 0.25 0" />
            <feBlend mode="normal" in2="BackgroundImageFix" result="effect1_dropShadow_75_10" />
            <feBlend mode="normal" in="SourceGraphic" in2="effect1_dropShadow_75_10" result="shape" />
        </filter>
        <filter id="filter1_d_75_10" x="38" y="15" width="28" height="28" filterUnits="userSpaceOnUse"
            color-interpolation-filters="sRGB">
            <feFlood flood-opacity="0" result="BackgroundImageFix" />
            <feColorMatrix in="SourceAlpha" type="matrix" values="0 0 0 0 0 0 0 0 0 0 0 0 0 0 0 0 0 0 127 0"
                result="hardAlpha" />
            <feOffset dy="4" />
            <feGaussianBlur stdDeviation="2" />
            <feComposite in2="hardAlpha" operator="out" />
            <feColorMatrix type="matrix" values="0 0 0 0 0 0 0 0 0 0 0 0 0 0 0 0 0 0 0.25 0" />
            <feBlend mode="normal" in2="BackgroundImageFix" result="effect1_dropShadow_75_10" />
            <feBlend mode="normal" in="SourceGraphic" in2="effect1_dropShadow_75_10" result="shape" />
        </filter>
        <filter id="filter2_d_75_10" x="44" y="22" width="28" height="28" filterUnits="userSpaceOnUse"
            color-interpolation-filters="sRGB">
            <feFlood flood-opacity="0" result="BackgroundImageFix" />
            <feColorMatrix in="SourceAlpha" type="matrix" values="0 0 0 0 0 0 0 0 0 0 0 0 0 0 0 0 0 0 127 0"
                result="hardAlpha" />
            <feOffset dy="4" />
            <feGaussianBlur stdDeviation="2" />
            <feComposite in2="hardAlpha" operator="out" />
            <feColorMatrix type="matrix" values="0 0 0 0 0 0 0 0 0 0 0 0 0 0 0 0 0 0 0.25 0" />
            <feBlend mode="normal" in2="BackgroundImageFix" result="effect1_dropShadow_75_10" />
            <feBlend mode="normal" in="SourceGraphic" in2="effect1_dropShadow_75_10" result="shape" />
        </filter>
    </defs>
</svg>