<svg xmlns="http://www.w3.org/2000/svg" viewBox="0 0 500 500"><g id="freepik--background-simple--inject-12"><path d="M383.16,127.24a210,210,0,0,0-10.85-19C326.19,37.94,202.7-.34,141.51,72.34,126.92,89.66,121.84,110.6,112,130.46c-22.32,45.19-64,72.2-90.2,114-20.27,32.44-17.57,74-6.26,109.07,12.29,38.1,33.92,64.71,68.52,84.93,38.79,22.68,80.27,16.38,122.2,8.49,18.85-3.55,38.29-7.17,57.57-5.81,24.14,1.69,48,8.52,71.92,11.84,24.9,3.46,50.74,4.27,74.73-3.25,76.83-24.1,95-137,63.44-201.73-11.18-22.9-30.14-40.57-47.74-58.5C407.2,170.2,395.56,151.26,383.16,127.24Z" style="fill:#7E57C2"></path><path d="M383.16,127.24a210,210,0,0,0-10.85-19C326.19,37.94,202.7-.34,141.51,72.34,126.92,89.66,121.84,110.6,112,130.46c-22.32,45.19-64,72.2-90.2,114-20.27,32.44-17.57,74-6.26,109.07,12.29,38.1,33.92,64.71,68.52,84.93,38.79,22.68,80.27,16.38,122.2,8.49,18.85-3.55,38.29-7.17,57.57-5.81,24.14,1.69,48,8.52,71.92,11.84,24.9,3.46,50.74,4.27,74.73-3.25,76.83-24.1,95-137,63.44-201.73-11.18-22.9-30.14-40.57-47.74-58.5C407.2,170.2,395.56,151.26,383.16,127.24Z" style="fill:#fff;opacity:0.7000000000000001"></path></g><g id="freepik--Floor--inject-12"><path d="M485.76,448.66H11.57a.5.5,0,0,1-.5-.5.5.5,0,0,1,.5-.5H485.76a.51.51,0,0,1,.5.5A.5.5,0,0,1,485.76,448.66Z" style="fill:#263238"></path></g><g id="freepik--Plant--inject-12"><path d="M241.62,160.05S231.06,174.4,221.39,187s-18.47,20.62-28.15,23.31c-7.78,2.16-27,3.75-34.14,4.28l-13.36,75.6H137l19.35-75.51c0-1.57.47-21,11.43-32.16,11.44-11.66,48.38-9,53.66-11.66S241.62,160.05,241.62,160.05Zm-98.43,8.45c-6.64,18.3-20.74,110.24-22.08,122.53l-9.67-1.79V178.88S108.8,161,100,154.67s-13.19-6.27-13.19-6.27a89.78,89.78,0,0,0-29.9,8.06,69,69,0,0,0-21.44,15.87c13.4.86,33.71,2,41.67,10.14,11,11.17,11.41,30.59,11.43,32.16l19.35,75.51H99.13l-13.36-75.6c-7.19-.53-26.36-2.12-34.14-4.28-9.24-2.57-17.67-10-26.83-21.63-4.25,8.83-7.48,18-7.48,18A103,103,0,0,1,21.2,184c-9-11.74-17.95-23.93-17.95-23.93s15,8.07,20.23,10.76a8.41,8.41,0,0,0,2.24.62,71.69,71.69,0,0,1,11-17.65c18.48-21.52,38.71-24.21,51.9-19.73s20.23,12.55,21.11,15.24S115,169.91,115,169.91s-4.4-32.27-7-50.2.88-39.45,6.16-58.28S135.19,6.74,135.19,6.74,150.14,48.88,153.66,83c2,19.66.25,36-3,48.09,8.78-14.68,23.39-27.33,39-35.54,29-15.24,47.5-9,47.5-9S219.63,89.22,210,98.19s-27.26,35-34.3,52S140.86,172,140.86,172C140.55,170.91,143.42,169.57,143.19,168.5Zm-.58-3.54a46.6,46.6,0,0,1,.9-16.57c-.43.66-.86,1.26-1.28,1.8-7,9-22.87,30.48-22.87,35.86,0,2.85.49,17.51,1,30.68l1.68-.2s7.92-27.79,13.2-38.55A127.15,127.15,0,0,1,142.61,165Z" style="fill:#263238"></path><polygon points="172.13 371.95 116.72 369.32 61.3 371.95 38.43 454.64 48.11 454.64 75.38 411.54 116.72 411.54 158.06 411.54 185.32 454.64 195 454.64 172.13 371.95" style="fill:#fff"></polygon><path d="M195,455.14h-9.68a.49.49,0,0,1-.42-.24L157.78,412H75.65L48.53,454.9a.49.49,0,0,1-.42.24H38.43a.51.51,0,0,1-.48-.64l22.87-82.68a.49.49,0,0,1,.46-.36l55.41-2.64,55.46,2.64a.48.48,0,0,1,.46.36l22.87,82.68a.53.53,0,0,1-.08.44A.52.52,0,0,1,195,455.14Zm-9.4-1h8.74l-22.59-81.7-55.06-2.63-55,2.63-22.6,81.7h8.74L75,411.27a.51.51,0,0,1,.43-.23h82.68a.48.48,0,0,1,.42.23Z" style="fill:#263238"></path><path d="M61.3,287.51H171.25a0,0,0,0,1,0,0v106a5.7,5.7,0,0,1-5.7,5.7H67a5.7,5.7,0,0,1-5.7-5.7v-106A0,0,0,0,1,61.3,287.51Z" style="fill:#fff"></path><path d="M165.55,399.72H67a6.21,6.21,0,0,1-6.2-6.2v-106a.51.51,0,0,1,.5-.5h110a.5.5,0,0,1,.5.5v106A6.21,6.21,0,0,1,165.55,399.72ZM61.8,288V393.52a5.2,5.2,0,0,0,5.2,5.2h98.55a5.2,5.2,0,0,0,5.2-5.2V288Z" style="fill:#263238"></path><rect x="111.88" y="371.95" width="8.8" height="82.68" style="fill:#fff"></rect><path d="M120.68,455.14h-8.8a.5.5,0,0,1-.5-.5V372a.5.5,0,0,1,.5-.5h8.8a.5.5,0,0,1,.5.5v82.68A.51.51,0,0,1,120.68,455.14Zm-8.3-1h7.8V372.46h-7.8Z" style="fill:#263238"></path></g><g id="freepik--Window--inject-12"><path d="M337.72,119.36H225.59a.5.5,0,0,1-.5-.5V24.64a.51.51,0,0,1,.5-.5.5.5,0,0,1,.5.5v93.72H337.22V24.64a.5.5,0,1,1,1,0v94.22A.5.5,0,0,1,337.72,119.36Z" style="fill:#263238"></path><path d="M458.55,119.36H346.43a.5.5,0,0,1-.5-.5V24.64a.5.5,0,0,1,.5-.5.51.51,0,0,1,.5.5v93.72H458.05V24.64a.51.51,0,0,1,.5-.5.5.5,0,0,1,.5.5v94.22A.5.5,0,0,1,458.55,119.36Z" style="fill:#263238"></path><path d="M337.72,222.93H225.59a.5.5,0,0,1-.5-.5V128.21a.51.51,0,0,1,.5-.5H337.72a.5.5,0,0,1,.5.5v94.22A.5.5,0,0,1,337.72,222.93Zm-111.63-1H337.22V128.71H226.09Z" style="fill:#263238"></path><path d="M458.55,222.93H346.43a.5.5,0,0,1-.5-.5V128.21a.5.5,0,0,1,.5-.5H458.55a.5.5,0,0,1,.5.5v94.22A.5.5,0,0,1,458.55,222.93Zm-111.62-1H458.05V128.71H346.93Z" style="fill:#263238"></path><path d="M337.72,326.5H225.59a.5.5,0,0,1-.5-.5V231.78a.51.51,0,0,1,.5-.5H337.72a.5.5,0,0,1,.5.5V326A.5.5,0,0,1,337.72,326.5Zm-111.63-1H337.22V232.28H226.09Z" style="fill:#263238"></path><path d="M458.55,326.5H346.43a.5.5,0,0,1-.5-.5V231.78a.5.5,0,0,1,.5-.5H458.55a.5.5,0,0,1,.5.5V326A.5.5,0,0,1,458.55,326.5Zm-111.62-1H458.05V232.28H346.93Z" style="fill:#263238"></path><path d="M387.06,202.44a.5.5,0,0,1-.35-.15.51.51,0,0,1,0-.71l57.9-57.9a.5.5,0,1,1,.71.71l-57.9,57.9A.51.51,0,0,1,387.06,202.44Z" style="fill:#263238"></path><path d="M382.39,198.48a.47.47,0,0,1-.35-.15.48.48,0,0,1,0-.7l16.54-16.55a.5.5,0,0,1,.71.71l-16.55,16.54A.49.49,0,0,1,382.39,198.48Z" style="fill:#263238"></path><path d="M286.73,162.52a.47.47,0,0,1-.35-.15.5.5,0,0,1,0-.71l18.7-18.7a.5.5,0,0,1,.7,0,.5.5,0,0,1,0,.71l-18.7,18.7A.47.47,0,0,1,286.73,162.52Z" style="fill:#263238"></path><path d="M311.18,139.5a.54.54,0,0,1-.35-.14.51.51,0,0,1,0-.71l4.68-4.68a.5.5,0,0,1,.7,0,.5.5,0,0,1,0,.71l-4.67,4.68A.54.54,0,0,1,311.18,139.5Z" style="fill:#263238"></path><path d="M399.65,289.82a.52.52,0,0,1-.35-.14.5.5,0,0,1,0-.71l25.89-25.89a.5.5,0,0,1,.71,0,.5.5,0,0,1,0,.7L400,289.68A.54.54,0,0,1,399.65,289.82Z" style="fill:#263238"></path><path d="M384.19,305.29a.51.51,0,0,1-.36-.15.51.51,0,0,1,0-.71l9.35-9.35a.51.51,0,0,1,.71,0,.5.5,0,0,1,0,.71l-9.35,9.35A.49.49,0,0,1,384.19,305.29Z" style="fill:#263238"></path><path d="M377.35,281.91a.5.5,0,0,1-.35-.85l9.35-9.35a.5.5,0,0,1,.71,0,.51.51,0,0,1,0,.71l-9.35,9.34A.51.51,0,0,1,377.35,281.91Z" style="fill:#263238"></path><path d="M399.65,81.24a.52.52,0,0,1-.35-.14.5.5,0,0,1,0-.71L425.19,54.5a.5.5,0,0,1,.71,0,.5.5,0,0,1,0,.7L400,81.1A.54.54,0,0,1,399.65,81.24Z" style="fill:#263238"></path><path d="M384.19,96.71a.51.51,0,0,1-.36-.15.51.51,0,0,1,0-.71l9.35-9.35a.51.51,0,0,1,.71,0,.5.5,0,0,1,0,.71l-9.35,9.35A.49.49,0,0,1,384.19,96.71Z" style="fill:#263238"></path><path d="M377.35,73.33a.54.54,0,0,1-.35-.14.51.51,0,0,1,0-.71l9.35-9.35a.5.5,0,0,1,.71,0,.5.5,0,0,1,0,.7l-9.35,9.36A.54.54,0,0,1,377.35,73.33Z" style="fill:#263238"></path></g><g id="freepik--Dog--inject-12"><path d="M264,383.21s10.88,12,12,36.76-19.13,39-24.76,40.52a72.25,72.25,0,0,1-12.38,1.88V385.83Z" style="fill:#7E57C2"></path><path d="M238.9,462.87a.48.48,0,0,1-.34-.14.52.52,0,0,1-.16-.36V385.83a.49.49,0,0,1,.45-.49L264,382.71a.5.5,0,0,1,.43.16c.11.12,11,12.43,12.13,37.08,1.16,25.43-19.48,39.52-25.13,41a73.72,73.72,0,0,1-12.48,1.9Zm.5-76.59v75.55A69.94,69.94,0,0,0,251.15,460c5.27-1.41,25.5-15.55,24.39-40-1-22.65-10.36-34.65-11.71-36.27Z" style="fill:#263238"></path><path d="M131.61,383.21s-10.88,12-12,36.76,19.13,39,24.76,40.52a72.25,72.25,0,0,0,12.38,1.88V385.83Z" style="fill:#7E57C2"></path><path d="M156.74,462.87h0a73.86,73.86,0,0,1-12.48-1.9c-5.65-1.5-26.29-15.59-25.13-41,1.12-24.65,12-37,12.13-37.08a.5.5,0,0,1,.43-.16l25.13,2.63a.49.49,0,0,1,.45.49v76.54a.52.52,0,0,1-.16.36A.48.48,0,0,1,156.74,462.87Zm-24.93-79.14c-1.34,1.62-10.68,13.64-11.71,36.27-1.11,24.46,19.12,38.6,24.39,40a69.94,69.94,0,0,0,11.75,1.82V386.28Z" style="fill:#263238"></path><path d="M296.39,215.7c8.82-9.47,14.69-33,8.82-41.8s-37.55,3.59-49,15.68-16,19.59-16,19.59c-12.91-1.89-35.78-1.55-43.44-1.38-7.74-.17-30.83-.51-43.74,1.38,0,0-4.57-7.51-16-19.59s-43.1-24.49-49-15.68,0,32.33,8.82,41.8,26.12,30.36,28.4,32.65-1.63,29.06-1,63,1.31,62,5.55,77.71,11.43,36.24,11.43,42.12a32.87,32.87,0,0,1-4.89,17c-3.27,5.55-10.78,7.84-11.76,14.37s2,10.12,10.78,12.4,13.06,2.29,19.26-1.63,10.78-10.77,10.78-10.77l33.3.65,33.31-.65s4.57,6.85,10.77,10.77,10.45,3.92,19.27,1.63,11.75-5.87,10.77-12.4-8.49-8.82-11.75-14.37a32.79,32.79,0,0,1-4.9-17c0-5.88,7.18-26.45,11.43-42.12s.65-43.75,1.3-77.71-3.26-60.74-1-63S287.57,225.17,296.39,215.7Z" style="fill:#7E57C2"></path><path d="M144.77,477a38.63,38.63,0,0,1-9.48-1.56c-8.95-2.32-12.18-6.08-11.14-13,.6-4,3.59-6.52,6.47-8.94a23,23,0,0,0,5.34-5.6,32.37,32.37,0,0,0,4.83-16.73c0-3.76-3.08-13.93-6.34-24.69-1.76-5.82-3.59-11.85-5.07-17.3-4.38-16.18-5-46.13-5.57-77.83-.33-17.17.51-32.53,1.12-43.75.55-10,1-17.95,0-18.93s-4.29-4.87-8.54-9.86c-6.17-7.24-14.62-17.15-19.88-22.8-8.74-9.39-14.91-33.34-8.87-42.41,1.21-1.81,3.43-2.87,6.59-3.14,11.45-1,33.64,8.66,43.17,18.74,10.12,10.7,14.94,17.92,15.89,19.4,13.13-1.86,36.58-1.49,43.5-1.34,6.83-.15,30-.52,43.18,1.34,1-1.48,5.77-8.7,15.88-19.4,9.54-10.08,31.73-19.72,43.17-18.74,3.17.27,5.39,1.33,6.59,3.14,6.05,9.07-.12,33-8.86,42.41-5.27,5.65-13.71,15.56-19.88,22.79-4.25,5-7.61,8.94-8.54,9.87s-.55,8.9,0,18.93c.61,11.22,1.45,26.58,1.12,43.75-.24,12.59.11,24.52.41,35,.54,18.36,1,32.87-1.73,42.79-1.48,5.45-3.3,11.48-5.07,17.31-3.26,10.76-6.34,20.92-6.34,24.68a32.37,32.37,0,0,0,4.83,16.73,23,23,0,0,0,5.34,5.6c2.89,2.42,5.87,4.92,6.48,8.94,1,6.89-2.2,10.65-11.15,13-8.49,2.2-13.09,2.45-19.66-1.7-5.66-3.57-9.9-9.44-10.77-10.69l-33,.65-33.05-.65c-.87,1.25-5.11,7.12-10.77,10.69A18.09,18.09,0,0,1,144.77,477ZM95.89,171.43c-.55,0-1.06,0-1.56.06-2.85.24-4.81,1.15-5.84,2.69-5.84,8.76.24,32,8.76,41.18C102.53,221,111,231,117.16,238.19c4.23,5,7.58,8.9,8.49,9.81,1.23,1.23,1,6.93.28,19.68-.61,11.21-1.45,26.55-1.12,43.68.61,31.64,1.19,61.53,5.54,77.59,1.47,5.44,3.29,11.45,5.06,17.27,3.28,10.84,6.38,21.07,6.38,25a33.32,33.32,0,0,1-5,17.23,23.66,23.66,0,0,1-5.56,5.86c-2.88,2.41-5.59,4.68-6.13,8.33-1,6.34,2,9.66,10.4,11.85s12.72,2.32,18.87-1.57S165,462.34,165,462.27a.57.57,0,0,1,.43-.22l33.3.65,33.29-.65a.53.53,0,0,1,.42.22c.05.07,4.59,6.81,10.63,10.63s10.3,3.79,18.87,1.57,11.36-5.51,10.41-11.85c-.55-3.65-3.26-5.92-6.13-8.33a23.88,23.88,0,0,1-5.57-5.86,33.32,33.32,0,0,1-5-17.23c0-3.91,3.1-14.14,6.38-25,1.77-5.82,3.59-11.84,5.06-17.28,2.65-9.78,2.23-24.22,1.7-42.5-.3-10.53-.65-22.47-.41-35.09.33-17.13-.51-32.47-1.12-43.68-.69-12.76-.95-18.45.29-19.68.9-.91,4.25-4.84,8.49-9.81,6.17-7.25,14.63-17.17,19.9-22.83l.37.34-.37-.34c8.53-9.16,14.61-32.42,8.77-41.18-1-1.54-3-2.45-5.84-2.69-11-.94-33.16,8.71-42.36,18.43-11.25,11.89-15.89,19.43-15.93,19.51a.5.5,0,0,1-.5.23c-13-1.89-36.48-1.53-43.36-1.37-7-.16-30.69-.52-43.68,1.37a.5.5,0,0,1-.5-.23c0-.08-4.68-7.62-15.93-19.51C127.91,180.64,107.3,171.43,95.89,171.43Z" style="fill:#263238"></path><path d="M235.52,378.78c-13.43,3.19-12.7-.58-13.79-15.35s14.16-22,26.14-29,20-27.52,17.07-31-31.23-1.16-33.41-6.37-3.06-21.6-3.06-21.6l-30.71-8.67-32,8.67s.39,16.38-1.79,21.6-30.5,2.89-33.4,6.37,5.08,24,17.06,31,27.24,14.19,26.15,29S173.43,382,160,378.78s-24.33-10.43-24.33.58,2.54,26.36,10.53,31.86,14.89,2.61,19.24,12.74,3.81,28.11-1.18,37a4.7,4.7,0,0,0-.46,1.21c.56-.75.87-1.21.87-1.21l33.3.65,33.29-.65h0c-5-8.9-5.54-26.87-1.18-37s11.25-7.24,19.24-12.74,10.53-20.85,10.53-31.86S249,375.59,235.52,378.78Z" style="fill:#fff"></path><path d="M243.77,209.93s3.1,11.09,7.76,18.85,9.09,13.75,16,11.09,28.17-25.5,32.16-35.7,6.43-26.17.66-30.16S261.06,179.11,243.77,209.93Z" style="opacity:0.33"></path><path d="M148.82,209.93s-3.11,11.09-7.76,18.85-9.1,13.75-16,11.09-28.16-25.5-32.15-35.7S86.51,178,92.27,174,131.52,179.11,148.82,209.93Z" style="opacity:0.33"></path><path d="M165.46,462.62c-.32-2,2.75-4.08,1.8-6.33-7.13-16.89-20.42-16.45-27.79-14.65a38.92,38.92,0,0,1-3.07,6.54c-3.27,5.55-10.78,7.84-11.76,14.37s2,10.12,10.78,12.4,13.06,2.29,19.26-1.63,10.78-10.77,10.78-10.77Z" style="fill:#fff"></path><path d="M144.77,477a38.63,38.63,0,0,1-9.48-1.56c-8.95-2.32-12.18-6.08-11.14-13,.6-4,3.59-6.52,6.47-8.94a23,23,0,0,0,5.34-5.6,38.07,38.07,0,0,0,3-6.46.51.51,0,0,1,.35-.32c7.47-1.82,21.09-2.3,28.38,15,.62,1.48-.19,2.85-.9,4a4.55,4.55,0,0,0-.89,2.26.59.59,0,0,1,0,.14.55.55,0,0,1-.16.38c-.62.91-5,7.1-10.85,10.81A18.09,18.09,0,0,1,144.77,477Zm-4.92-34.94a38.77,38.77,0,0,1-3,6.37,23.66,23.66,0,0,1-5.56,5.86c-2.88,2.41-5.59,4.68-6.13,8.33-1,6.34,2,9.66,10.4,11.85s12.72,2.32,18.87-1.57c5.54-3.49,9.81-9.45,10.53-10.48a5.31,5.31,0,0,1,1-2.77c.65-1.11,1.26-2.15.83-3.16C159.9,440.12,147.07,440.36,139.85,442.06Z" style="fill:#263238"></path><path d="M129.49,473.48a.5.5,0,0,1-.47-.33c-.09-.25-2.3-6.29.42-10.36s10.34-6.6,10.67-6.71a.5.5,0,0,1,.31.95c-.07,0-7.68,2.6-10.15,6.31s-.33,9.41-.31,9.46a.52.52,0,0,1-.3.65A.47.47,0,0,1,129.49,473.48Z" style="fill:#263238"></path><path d="M135.42,475.45h-.13a.5.5,0,0,1-.36-.61c.07-.26,1.7-6.46,3.45-8.6s10.74-7.11,11.12-7.32a.51.51,0,0,1,.68.2.5.5,0,0,1-.2.68c-.09,0-9.2,5.09-10.83,7.07s-3.23,8.16-3.25,8.22A.5.5,0,0,1,135.42,475.45Z" style="fill:#263238"></path><path d="M232.07,462.62c.31-2-2.66-4.08-1.71-6.33,7.13-16.89,20.42-16.45,27.79-14.65a38.92,38.92,0,0,0,3.07,6.54C264.49,453.73,272,456,273,462.55s-2,10.12-10.78,12.4-13.06,2.29-19.26-1.63-10.78-10.77-10.78-10.77Z" style="fill:#fff"></path><path d="M252.85,477a18.09,18.09,0,0,1-10.18-3.26c-5.58-3.52-9.79-9.29-10.73-10.64a.42.42,0,0,1-.14-.06.49.49,0,0,1-.23-.5,4.25,4.25,0,0,0-.84-2.39c-.68-1.21-1.46-2.58-.83-4,7.28-17.25,20.89-16.77,28.37-15a.51.51,0,0,1,.35.32,38.07,38.07,0,0,0,3,6.46,23,23,0,0,0,5.34,5.6c2.88,2.42,5.87,4.92,6.47,8.94,1,6.89-2.19,10.65-11.14,13A38.63,38.63,0,0,1,252.85,477Zm-20.26-14.72c.21.31,4.69,6.88,10.62,10.62,6.16,3.89,10.3,3.79,18.87,1.57s11.36-5.51,10.4-11.85c-.54-3.65-3.25-5.92-6.13-8.33a23.66,23.66,0,0,1-5.56-5.86,38.77,38.77,0,0,1-3-6.37c-7.22-1.69-20-1.94-26.95,14.43-.44,1,.16,2.06.78,3.17A5.92,5.92,0,0,1,232.59,462.28Z" style="fill:#263238"></path><path d="M257.26,476.51h-.05a.5.5,0,0,1-.45-.55c.15-1.6.43-6.07-.16-7.53s-5.43-6-7.25-7.57a.5.5,0,0,1,.67-.75c.68.61,6.73,6,7.51,7.95s.25,7.75.23,8A.52.52,0,0,1,257.26,476.51Z" style="fill:#263238"></path><path d="M267.1,473.48a.5.5,0,0,1-.5-.5,45.12,45.12,0,0,0-.94-8.23c-.89-4.3-6-8.18-6.05-8.22a.5.5,0,0,1-.1-.7.51.51,0,0,1,.7-.1c.22.17,5.46,4.15,6.43,8.82a45.32,45.32,0,0,1,1,8.43A.5.5,0,0,1,267.1,473.48Z" style="fill:#263238"></path><path d="M189.29,278.39h17.9a0,0,0,0,1,0,0V302a8.08,8.08,0,0,1-8.08,8.08h-1.74a8.08,8.08,0,0,1-8.08-8.08V278.39A0,0,0,0,1,189.29,278.39Z" style="fill:#7E57C2"></path><path d="M199.11,310.56h-1.74a8.59,8.59,0,0,1-8.58-8.58V278.39a.5.5,0,0,1,.5-.5h17.9a.5.5,0,0,1,.5.5V302A8.59,8.59,0,0,1,199.11,310.56Zm-9.32-31.67V302a7.59,7.59,0,0,0,7.58,7.58h1.74a7.59,7.59,0,0,0,7.58-7.58V278.89Z" style="fill:#263238"></path><path d="M197.91,297.93a.51.51,0,0,1-.5-.5V283.29a.5.5,0,0,1,.5-.5.5.5,0,0,1,.5.5v14.14A.5.5,0,0,1,197.91,297.93Z" style="fill:#263238"></path><path d="M206.4,252.27c-2.61-6.86,1-19.59-1-25.8s-5.88-4.9-5.88-4.9l-1.63.33-1.63-.33s-3.92-1.3-5.88,4.9,1.63,18.94-1,25.8-22.85,18.94-22.85,24.81,10.77,15,15.34,17,16-10.77,16-10.77,11.43,12.73,16,10.77,15.35-11.1,15.35-17S209,259.12,206.4,252.27Z" style="fill:#fff"></path><path d="M212.85,294.76c-4.77,0-12.89-8.5-14.94-10.73-2.24,2.45-11.76,12.38-16.19,10.49-4.67-2-15.65-11.24-15.65-17.44,0-3.34,5.63-8.15,11.59-13.25,5-4.24,10.11-8.64,11.3-11.74,1.35-3.55,1-8.79.63-13.85-.31-4.59-.61-8.92.34-11.92.77-2.45,1.94-4.09,3.47-4.87a4.16,4.16,0,0,1,3-.35l1.47.29,1.54-.31a4.21,4.21,0,0,1,3,.37c1.53.78,2.7,2.42,3.48,4.87.94,3,.65,7.33.33,11.92-.35,5.06-.71,10.3.64,13.85,1.18,3.1,6.32,7.5,11.29,11.74,6,5.1,11.6,9.91,11.6,13.25,0,6.2-11,15.44-15.65,17.44A3.08,3.08,0,0,1,212.85,294.76ZM195.39,222a3.32,3.32,0,0,0-1.55.39c-1.28.66-2.27,2.1-3,4.27-.89,2.82-.6,7.06-.29,11.55.36,5.17.73,10.52-.7,14.28-1.27,3.34-6.28,7.62-11.58,12.14-5.53,4.73-11.24,9.61-11.24,12.49,0,5.72,10.68,14.65,15,16.52,3.48,1.49,12.32-7.18,15.43-10.65a.51.51,0,0,1,.74,0c3.12,3.47,12,12.16,15.43,10.65,4.37-1.87,15-10.8,15-16.52,0-2.88-5.72-7.76-11.25-12.49-5.3-4.52-10.3-8.8-11.58-12.14h0c-1.42-3.76-1.06-9.11-.7-14.28.31-4.49.6-8.73-.28-11.55-.7-2.19-1.7-3.63-3-4.28a3.24,3.24,0,0,0-2.27-.29l-1.69.34a.67.67,0,0,1-.2,0l-1.63-.33A3.13,3.13,0,0,0,195.39,222Z" style="fill:#263238"></path><path d="M210.32,269.25a17.68,17.68,0,0,0-12-5.2c-8.17-.13-14.45,3.24-13.8,6.18s9.15,9.14,12.41,10.12S209.67,273.82,210.32,269.25Z" style="fill:#263238"></path><ellipse cx="214.18" cy="247.1" rx="3.56" ry="5.04" style="fill:#263238"></ellipse><circle cx="214.91" cy="245.13" r="0.93" style="fill:#fff"></circle><path d="M183,247.1c0,2.78-1.59,5-3.55,5s-3.56-2.26-3.56-5,1.59-5,3.56-5S183,244.32,183,247.1Z" style="fill:#263238"></path><circle cx="180.35" cy="245.13" r="0.93" style="fill:#fff"></circle></g><g id="freepik--Cat--inject-12"><path d="M284.68,421.89s3.26,23.62.75,31.39-9.09,9.55-7.61,15.15,10.33,4.53,16.26,2.74,11.38-9.48,10.66-18.66-4.89-24-8.09-26.36S286.37,420,284.68,421.89Z" style="fill:#263238"></path><path d="M297.72,469.27c-.1-.32-.18-.62-.29-.95-2.38-7.39-9.29-10.22-13.72-11.29-2.94,4.81-7.09,6.83-5.89,11.4,1.48,5.59,10.33,4.53,16.26,2.74A12,12,0,0,0,297.72,469.27Z" style="fill:#fff"></path><path d="M285.4,473.1A11.08,11.08,0,0,1,280,472a5.32,5.32,0,0,1-2.67-3.41c-.89-3.34.91-5.44,3-7.88a31,31,0,0,0,3-3.9.5.5,0,0,1,.54-.23c4.19,1,11.59,3.87,14.09,11.63.06.21.13.41.19.61l.1.34a.51.51,0,0,1-.18.55,12.45,12.45,0,0,1-3.79,2A33.18,33.18,0,0,1,285.4,473.1Zm-1.46-15.5a32.77,32.77,0,0,1-2.86,3.72c-2.05,2.41-3.53,4.14-2.78,7a4.35,4.35,0,0,0,2.19,2.79c4,2.21,11.29.25,13.45-.4a11.06,11.06,0,0,0,3.2-1.61h0c-.06-.19-.12-.39-.19-.6C294.67,461.39,288,458.63,283.94,457.6Z" style="fill:#263238"></path><path d="M311.37,292.69l-25.82-.53s-16.82-16.72-18.87-12.34c-4.26,9.09,2.26,26.3,2.26,26.3s-7.68,17-7.86,44.83,11.22,57,18.51,68.21a244.61,244.61,0,0,0,16.6,22.09s2.15,9.27.35,16.23S290.66,467.33,292,471s11.69,4.53,16.21.45,8.19-13.79,8.19-13.79l2.2.27s-2.39,6.74,3.34,9.5,19.79,1,25.21.71,63.07.36,82.48.91,41.52-2.44,48.08-15.08,4.26-30.72-2-35.3-13.45,1.23-13.25,8.64-.2,21.42-6.3,24.46-37.67.94-48-1.95-14.24-6.6-14.24-6.6,5.88-38.29,3-55.39-15.66-34.28-27.74-39.23-27.36-9.78-35.49-19.82-6.38-22.6-6.38-22.6c1.88-2.55,5.71-9.54,4.64-22.5-.37-4.5-1.06-5-1.86-5.06S319.63,283.38,311.37,292.69Z" style="fill:#7E57C2"></path><path d="M299.69,474.6a15.88,15.88,0,0,1-3.84-.44c-2.33-.59-3.88-1.66-4.36-3-.81-2.27.25-4.23,1.59-6.71a30.12,30.12,0,0,0,3-7.08c1.63-6.34-.09-14.78-.33-15.87a249.09,249.09,0,0,1-16.56-22.05c-7.82-12-18.77-41.24-18.59-68.48.17-26.06,7-42.88,7.82-44.85-.74-2-6.28-17.73-2.18-26.49a1.73,1.73,0,0,1,1.29-1c4.13-.71,16.27,11.09,18.25,13.05l25.39.51c8.3-9.27,17.8-14.09,18.84-14.09h0c1.42,0,2,1.43,2.35,5.52,1.08,13.12-2.83,20.2-4.65,22.73-.15,1.3-1.19,12.87,6.28,22.1,6.86,8.47,19.06,13.26,29.82,17.49,1.87.74,3.7,1.46,5.47,2.18,12.61,5.16,25.19,22.93,28,39.6,2.78,16.23-2.39,51.79-2.91,55.28.89.74,5,3.85,13.83,6.32,10.1,2.83,41.53,5,47.65,2,5.7-2.84,6.22-16.25,6-24a10.87,10.87,0,0,1,5.41-9.86,8,8,0,0,1,8.64.8c6.59,4.81,8.83,23.1,2.16,35.93-7.44,14.33-33.61,15.76-48.54,15.35-19-.54-76.78-1.17-82.44-.91-1,0-2.3.14-3.79.26-6.72.51-16.88,1.29-21.66-1-5-2.43-4.21-7.74-3.76-9.53l-1.23-.14c-.73,1.84-4.08,9.9-8.19,13.61C306.32,473.76,302.86,474.6,299.69,474.6ZM268,279.58a1.27,1.27,0,0,0-.28,0,.7.7,0,0,0-.56.42c-4.12,8.8,2.22,25.74,2.28,25.91a.5.5,0,0,1,0,.38c-.08.17-7.65,17.25-7.82,44.64-.18,27,10.67,56,18.43,67.92a242.7,242.7,0,0,0,16.56,22,.51.51,0,0,1,.11.22c.09.38,2.15,9.47.35,16.46a31,31,0,0,1-3.07,7.3c-1.27,2.36-2.19,4.06-1.53,5.9.36,1,1.7,1.89,3.67,2.39,3.54.89,8.86.45,11.73-2.14,4.38-3.95,8-13.5,8.06-13.59a.49.49,0,0,1,.53-.32l2.2.26a.49.49,0,0,1,.36.23.5.5,0,0,1,0,.43c-.09.26-2.17,6.36,3.08,8.89,4.55,2.19,14.54,1.43,21.15.92,1.5-.11,2.81-.21,3.83-.26,5.66-.26,63.5.38,82.51.91,14.71.41,40.43-1,47.62-14.81,6.35-12.21,4.3-30.17-1.86-34.66a6.92,6.92,0,0,0-7.59-.72,9.84,9.84,0,0,0-4.87,8.94c.25,9.75-.69,22-6.57,24.91-6.27,3.12-38.15.95-48.37-1.91s-14.28-6.57-14.44-6.72a.49.49,0,0,1-.15-.44c.06-.38,5.83-38.4,2.95-55.23-2.8-16.37-15.1-33.8-27.43-38.84-1.76-.73-3.59-1.44-5.46-2.18-10.87-4.27-23.2-9.11-30.23-17.79-8.17-10.09-6.5-22.86-6.48-23a.5.5,0,0,1,.09-.23c1.72-2.34,5.61-9.19,4.54-22.16-.37-4.57-1.08-4.59-1.37-4.6-.89.12-10.13,4.8-18.23,13.93a.52.52,0,0,1-.39.17l-25.82-.53a.49.49,0,0,1-.34-.14C281.51,288.84,271.42,279.58,268,279.58Z" style="fill:#263238"></path><path d="M337.25,458.83a.51.51,0,0,1-.5-.49.5.5,0,0,1,.49-.51l35.84-.78a.48.48,0,0,1,.51.49.5.5,0,0,1-.49.51l-35.84.78Z" style="fill:#263238"></path><path d="M282.5,293.88s-7.4-7.42-10.53-10.11-4.08-4.32-4.73-2.53-.66,9.19.58,15,2.53,9.49,5.54,9.37,7.49-3,9-6.56S282.5,293.88,282.5,293.88Z" style="opacity:0.33"></path><path d="M314.52,294.78s7.8-7,11.08-9.5,4.32-4.09,4.87-2.27.14,9.21-1.42,15-3.07,9.32-6.07,9-7.31-3.41-8.61-7S314.52,294.78,314.52,294.78Z" style="opacity:0.33"></path><path d="M331,330.39c-.77-7.21-5.63,2.78-12.77.95s-14.18-22.68-15.42-25-5.71-6.86-9.45-1.74S280.77,328,274.2,329.12c-4.4.76-7.65-2.86-9.32-5.33a143.89,143.89,0,0,0-2.47,25.9c-.18,27.83,11.22,57,18.52,68.21A244.15,244.15,0,0,0,297.53,440s0-5.64.45-15.11c.72-13.7,8.06-30.81,17.61-45.25S331.8,337.6,331,330.39Z" style="fill:#fff"></path><path d="M312.05,466.45c-4.12-5.38-12.13-6.84-16-7.23-1.95,5.72-5.24,8.43-4.05,11.75,1.3,3.64,11.69,4.53,16.21.45A23.29,23.29,0,0,0,312.05,466.45Z" style="fill:#fff"></path><path d="M299.68,474.6a15.86,15.86,0,0,1-3.83-.44c-2.33-.59-3.88-1.66-4.36-3-.81-2.27.25-4.23,1.59-6.72a34.46,34.46,0,0,0,2.46-5.36.49.49,0,0,1,.52-.34c4.33.43,12.22,2,16.39,7.42a.53.53,0,0,1,0,.57,23,23,0,0,1-4,5.08C306.32,473.76,302.86,474.6,299.68,474.6Zm-3.33-14.84a36.14,36.14,0,0,1-2.39,5.13c-1.27,2.36-2.19,4.07-1.53,5.91.36,1,1.7,1.89,3.67,2.39,3.54.89,8.86.45,11.73-2.14a21.31,21.31,0,0,0,3.61-4.57C307.44,461.56,299.86,460.15,296.35,459.76Z" style="fill:#263238"></path><path d="M316.36,458.13a.5.5,0,0,1-.26-.92,33.46,33.46,0,0,0,12-15.64c2.65-7.28,2.09-21.42,1.52-29.2a.5.5,0,0,1,.47-.54.52.52,0,0,1,.53.46c.58,7.87,1.13,22.17-1.58,29.63a33.87,33.87,0,0,1-12.41,16.14A.52.52,0,0,1,316.36,458.13Z" style="fill:#263238"></path><path d="M329.89,410a.5.5,0,0,1-.49-.46c-.19-2.07-.33-3.34-.33-3.34a.49.49,0,0,1,.44-.55.5.5,0,0,1,.55.44s.15,1.27.33,3.36a.5.5,0,0,1-.45.55Z" style="fill:#263238"></path><path d="M318.56,457.9s-2.39,6.74,3.34,9.5c3.27,1.58,9.28,1.67,14.83,1.4a6.29,6.29,0,0,0,1.28-2.61,15.3,15.3,0,0,0-.76-7.86Z" style="fill:#fff"></path><path d="M332.27,469.42c-5,0-8.41-.51-10.59-1.57-6.07-2.92-3.62-10.05-3.59-10.12a.51.51,0,0,1,.48-.33l18.69.43a.48.48,0,0,1,.45.3,15.63,15.63,0,0,1,.79,8.15,6.55,6.55,0,0,1-1.37,2.82.51.51,0,0,1-.37.2C335.14,469.38,333.64,469.42,332.27,469.42Zm-13.35-11c-.38,1.35-1.41,6.32,3.19,8.54,2.57,1.24,7.27,1.69,14.36,1.36a5.66,5.66,0,0,0,1-2.21,14.93,14.93,0,0,0-.62-7.28Z" style="fill:#263238"></path><path d="M331.1,420.41l-.15,0a.51.51,0,0,1-.33-.63c2.95-9.33,12.93-24.07,27.2-24.07H358a28.63,28.63,0,0,1,18.72,7.63.5.5,0,1,1-.67.75A27.63,27.63,0,0,0,358,396.69c-13.82-.08-23.53,14.27-26.41,23.37A.49.49,0,0,1,331.1,420.41Z" style="fill:#263238"></path><path d="M381.23,409.58a.48.48,0,0,1-.42-.23,26.47,26.47,0,0,0-2.16-2.69.5.5,0,1,1,.74-.67,24.71,24.71,0,0,1,2.25,2.81.49.49,0,0,1-.14.69A.46.46,0,0,1,381.23,409.58Z" style="fill:#263238"></path><path d="M300.24,321.39a5.83,5.83,0,0,0-3.91-1.83c-2.7-.12-4.8.94-4.61,1.91s2.93,3.11,4,3.46S300,322.89,300.24,321.39Z" style="fill:#7E57C2"></path><path d="M296,325.46a1.34,1.34,0,0,1-.4-.06c-1.14-.38-4.1-2.61-4.33-3.83a1.3,1.3,0,0,1,.35-1.12c.79-.92,2.7-1.48,4.77-1.39a6.33,6.33,0,0,1,4.27,2,.48.48,0,0,1,.11.41c-.19,1.15-1.64,2.55-3,3.35A3.91,3.91,0,0,1,296,325.46Zm0-5.41a5.28,5.28,0,0,0-3.59,1.05c-.05.06-.14.18-.12.28.13.65,2.59,2.72,3.67,3.07a2.3,2.3,0,0,0,1.36-.49,6.39,6.39,0,0,0,2.44-2.43,5.39,5.39,0,0,0-3.37-1.47Z" style="fill:#263238"></path><path d="M298.76,330a2.39,2.39,0,0,1-.84-.14,4.33,4.33,0,0,1-2.32-3c-.66,1.53-1.53,2.4-2.61,2.6-2.43.45-4.78-2.79-4.88-2.92a.5.5,0,1,1,.81-.59c.58.8,2.4,2.82,3.89,2.53,1-.19,1.85-1.46,2.43-3.68a.5.5,0,0,1,1,.09c.08.95.61,3.55,2,4,1.07.37,2.61-.48,4.46-2.45a.48.48,0,0,1,.7,0,.5.5,0,0,1,0,.71C301.66,329.06,300.09,330,298.76,330Z" style="fill:#263238"></path><path d="M310.75,315.47c.21,1.08-.95,2.23-2.61,2.56s-3.18-.27-3.4-1.35.95-2.23,2.61-2.56S310.53,314.39,310.75,315.47Z" style="fill:#263238"></path><path d="M309.46,315.21c.06.29-.26.61-.72.7s-.87-.07-.93-.37.26-.61.71-.71S309.4,314.91,309.46,315.21Z" style="fill:#fff"></path><path d="M286.57,316.47c-.39,1-2,1.39-3.57.8s-2.56-1.9-2.17-2.94,2-1.39,3.56-.8S287,315.44,286.57,316.47Z" style="fill:#263238"></path><path d="M285.46,315.51c-.11.28-.55.38-1,.22s-.7-.52-.59-.81.54-.38,1-.22S285.56,315.22,285.46,315.51Z" style="fill:#fff"></path><path d="M284.74,323.65h-.05l-8.65-.88a.5.5,0,1,1,.1-1l8.65.87a.5.5,0,0,1-.05,1Z" style="fill:#263238"></path><path d="M278,327.09a.51.51,0,0,1-.48-.36.5.5,0,0,1,.34-.62l6.67-2a.51.51,0,0,1,.63.33.49.49,0,0,1-.34.62l-6.67,2Z" style="fill:#263238"></path><path d="M281.59,329.08a.49.49,0,0,1-.44-.27.51.51,0,0,1,.21-.68l3.52-1.79a.5.5,0,0,1,.68.22.51.51,0,0,1-.22.67L281.82,329A.46.46,0,0,1,281.59,329.08Z" style="fill:#263238"></path><path d="M306.64,324.26a.5.5,0,0,1,0-1l8.68-.38a.46.46,0,0,1,.52.47.49.49,0,0,1-.47.52l-8.69.39Z" style="fill:#263238"></path><path d="M313.16,328.07l-.18,0-6.55-2.39a.5.5,0,0,1,.34-.94l6.56,2.39a.5.5,0,0,1-.17,1Z" style="fill:#263238"></path><path d="M309.48,329.86a.45.45,0,0,1-.25-.07l-3.42-2a.5.5,0,0,1-.18-.68.51.51,0,0,1,.69-.18l3.41,2a.5.5,0,0,1-.25.93Z" style="fill:#263238"></path></g></svg>
