<svg width="136" height="38" viewBox="0 0 136 38" fill="none" xmlns="http://www.w3.org/2000/svg">
    <g filter="url(#filter0_d_75_11)">
        <rect width="128" height="30" rx="10" fill="#353434" />
    </g>
    <path
        d="M23.0043 20V9.81818H26.8224C27.6046 9.81818 28.2609 9.96401 28.7912 10.2557C29.3248 10.5473 29.7275 10.9484 29.9993 11.4588C30.2744 11.9659 30.4119 12.5426 30.4119 13.1889C30.4119 13.8419 30.2744 14.4219 29.9993 14.929C29.7242 15.4361 29.3182 15.8355 28.7812 16.1271C28.2443 16.4155 27.5831 16.5597 26.7976 16.5597H24.267V15.0433H26.549C27.0064 15.0433 27.3809 14.9638 27.6726 14.8047C27.9643 14.6456 28.1797 14.4268 28.3189 14.1484C28.4614 13.87 28.5327 13.5502 28.5327 13.1889C28.5327 12.8277 28.4614 12.5095 28.3189 12.2344C28.1797 11.9593 27.9626 11.7455 27.6676 11.593C27.3759 11.4373 26.9998 11.3594 26.5391 11.3594H24.8487V20H23.0043ZM34.8352 20.1541C34.3513 20.1541 33.9155 20.0679 33.5277 19.8956C33.1432 19.7199 32.8383 19.4614 32.6129 19.12C32.3908 18.7786 32.2798 18.3577 32.2798 17.8572C32.2798 17.4264 32.3594 17.0701 32.5184 16.7884C32.6775 16.5066 32.8946 16.2812 33.1697 16.1122C33.4448 15.9432 33.7547 15.8156 34.0994 15.7294C34.4474 15.6399 34.807 15.5753 35.1782 15.5355C35.6257 15.4891 35.9886 15.4477 36.267 15.4112C36.5454 15.3714 36.7476 15.3118 36.8736 15.2322C37.0028 15.1494 37.0675 15.0218 37.0675 14.8494V14.8196C37.0675 14.4451 36.9564 14.1551 36.7344 13.9496C36.5123 13.7441 36.1925 13.6413 35.7748 13.6413C35.334 13.6413 34.9844 13.7375 34.7258 13.9297C34.4706 14.1219 34.2983 14.349 34.2088 14.6108L32.5284 14.3722C32.661 13.9081 32.8797 13.5204 33.1846 13.2088C33.4896 12.8939 33.8624 12.6586 34.3032 12.5028C34.7441 12.3438 35.2313 12.2642 35.7649 12.2642C36.1328 12.2642 36.499 12.3073 36.8636 12.3935C37.2282 12.4796 37.5613 12.6222 37.8629 12.821C38.1645 13.0166 38.4065 13.2834 38.5888 13.6214C38.7744 13.9595 38.8672 14.3821 38.8672 14.8892V20H37.1371V18.951H37.0774C36.968 19.1631 36.8139 19.362 36.615 19.5476C36.4195 19.7299 36.1726 19.8774 35.8743 19.9901C35.5793 20.0994 35.2329 20.1541 34.8352 20.1541ZM35.3025 18.8317C35.6638 18.8317 35.977 18.7604 36.2422 18.6179C36.5073 18.4721 36.7112 18.2798 36.8537 18.0412C36.9995 17.8026 37.0724 17.5424 37.0724 17.2607V16.3608C37.0161 16.4072 36.92 16.4503 36.7841 16.4901C36.6515 16.5298 36.5023 16.5646 36.3366 16.5945C36.1709 16.6243 36.0068 16.6508 35.8444 16.674C35.682 16.6972 35.5412 16.7171 35.4219 16.7337C35.1534 16.7701 34.9131 16.8298 34.701 16.9126C34.4889 16.9955 34.3215 17.1115 34.1988 17.2607C34.0762 17.4065 34.0149 17.5954 34.0149 17.8274C34.0149 18.1589 34.1359 18.4091 34.3778 18.5781C34.6198 18.7472 34.928 18.8317 35.3025 18.8317ZM42.362 22.8636C42.1167 22.8636 41.8897 22.8438 41.6809 22.804C41.4754 22.7675 41.3113 22.7244 41.1887 22.6747L41.6063 21.2727C41.8682 21.349 42.1018 21.3854 42.3073 21.3821C42.5128 21.3788 42.6934 21.3142 42.8492 21.1882C43.0083 21.0656 43.1425 20.8601 43.2519 20.5717L43.406 20.1591L40.6369 12.3636H42.5459L44.3059 18.1307H44.3854L46.1503 12.3636H48.0644L45.0069 20.9247C44.8644 21.3291 44.6754 21.6754 44.4401 21.9638C44.2048 22.2554 43.9164 22.4775 43.5751 22.63C43.237 22.7857 42.8326 22.8636 42.362 22.8636ZM55.9042 9.81818L58.5541 17.8324H58.6585L61.3034 9.81818H63.3318L59.7423 20H57.4653L53.8808 9.81818H55.9042ZM65.4333 20V12.3636H67.233V20H65.4333ZM66.3381 11.2798C66.0531 11.2798 65.8078 11.1854 65.6023 10.9964C65.3969 10.8042 65.2941 10.5739 65.2941 10.3054C65.2941 10.0336 65.3969 9.80327 65.6023 9.61435C65.8078 9.42211 66.0531 9.32599 66.3381 9.32599C66.6265 9.32599 66.8718 9.42211 67.0739 9.61435C67.2794 9.80327 67.3822 10.0336 67.3822 10.3054C67.3822 10.5739 67.2794 10.8042 67.0739 10.9964C66.8718 11.1854 66.6265 11.2798 66.3381 11.2798ZM72.1211 20.1541C71.6372 20.1541 71.2014 20.0679 70.8136 19.8956C70.4291 19.7199 70.1242 19.4614 69.8988 19.12C69.6768 18.7786 69.5657 18.3577 69.5657 17.8572C69.5657 17.4264 69.6453 17.0701 69.8044 16.7884C69.9635 16.5066 70.1806 16.2812 70.4557 16.1122C70.7308 15.9432 71.0407 15.8156 71.3853 15.7294C71.7334 15.6399 72.093 15.5753 72.4642 15.5355C72.9116 15.4891 73.2746 15.4477 73.553 15.4112C73.8314 15.3714 74.0335 15.3118 74.1595 15.2322C74.2888 15.1494 74.3534 15.0218 74.3534 14.8494V14.8196C74.3534 14.4451 74.2424 14.1551 74.0203 13.9496C73.7982 13.7441 73.4784 13.6413 73.0608 13.6413C72.62 13.6413 72.2703 13.7375 72.0118 13.9297C71.7566 14.1219 71.5842 14.349 71.4947 14.6108L69.8143 14.3722C69.9469 13.9081 70.1657 13.5204 70.4706 13.2088C70.7755 12.8939 71.1484 12.6586 71.5892 12.5028C72.03 12.3438 72.5172 12.2642 73.0508 12.2642C73.4187 12.2642 73.785 12.3073 74.1496 12.3935C74.5141 12.4796 74.8472 12.6222 75.1488 12.821C75.4505 13.0166 75.6924 13.2834 75.8747 13.6214C76.0603 13.9595 76.1531 14.3821 76.1531 14.8892V20H74.423V18.951H74.3633C74.254 19.1631 74.0998 19.362 73.901 19.5476C73.7054 19.7299 73.4585 19.8774 73.1602 19.9901C72.8652 20.0994 72.5189 20.1541 72.1211 20.1541ZM72.5885 18.8317C72.9497 18.8317 73.263 18.7604 73.5281 18.6179C73.7933 18.4721 73.9971 18.2798 74.1396 18.0412C74.2854 17.8026 74.3584 17.5424 74.3584 17.2607V16.3608C74.302 16.4072 74.2059 16.4503 74.07 16.4901C73.9374 16.5298 73.7883 16.5646 73.6226 16.5945C73.4568 16.6243 73.2928 16.6508 73.1304 16.674C72.968 16.6972 72.8271 16.7171 72.7078 16.7337C72.4393 16.7701 72.199 16.8298 71.9869 16.9126C71.7748 16.9955 71.6074 17.1115 71.4848 17.2607C71.3621 17.4065 71.3008 17.5954 71.3008 17.8274C71.3008 18.1589 71.4218 18.4091 71.6638 18.5781C71.9057 18.7472 72.2139 18.8317 72.5885 18.8317ZM89.6133 9.81818H91.4577V16.4702C91.4577 17.1993 91.2854 17.8407 90.9407 18.3942C90.5993 18.9477 90.1187 19.3802 89.4989 19.6918C88.8792 20 88.155 20.1541 87.3264 20.1541C86.4944 20.1541 85.7686 20 85.1488 19.6918C84.529 19.3802 84.0484 18.9477 83.707 18.3942C83.3657 17.8407 83.195 17.1993 83.195 16.4702V9.81818H85.0394V16.3161C85.0394 16.7403 85.1322 17.1181 85.3178 17.4496C85.5068 17.781 85.7719 18.0412 86.1133 18.2301C86.4547 18.4157 86.859 18.5085 87.3264 18.5085C87.7937 18.5085 88.198 18.4157 88.5394 18.2301C88.8841 18.0412 89.1493 17.781 89.3349 17.4496C89.5205 17.1181 89.6133 16.7403 89.6133 16.3161V9.81818ZM94.3025 20V9.81818H98.1207C98.9029 9.81818 99.5592 9.96401 100.089 10.2557C100.623 10.5473 101.026 10.9484 101.298 11.4588C101.573 11.9659 101.71 12.5426 101.71 13.1889C101.71 13.8419 101.573 14.4219 101.298 14.929C101.022 15.4361 100.616 15.8355 100.08 16.1271C99.5426 16.4155 98.8814 16.5597 98.0959 16.5597H95.5653V15.0433H97.8473C98.3047 15.0433 98.6792 14.9638 98.9709 14.8047C99.2625 14.6456 99.478 14.4268 99.6172 14.1484C99.7597 13.87 99.8309 13.5502 99.8309 13.1889C99.8309 12.8277 99.7597 12.5095 99.6172 12.2344C99.478 11.9593 99.2609 11.7455 98.9659 11.593C98.6742 11.4373 98.298 11.3594 97.8373 11.3594H96.147V20H94.3025ZM105.997 9.81818V20H104.152V9.81818H105.997Z"
        fill="#E5E5E5" />
    <defs>
        <filter id="filter0_d_75_11" x="0" y="0" width="136" height="38" filterUnits="userSpaceOnUse"
            color-interpolation-filters="sRGB">
            <feFlood flood-opacity="0" result="BackgroundImageFix" />
            <feColorMatrix in="SourceAlpha" type="matrix" values="0 0 0 0 0 0 0 0 0 0 0 0 0 0 0 0 0 0 127 0"
                result="hardAlpha" />
            <feOffset dx="4" dy="4" />
            <feGaussianBlur stdDeviation="2" />
            <feComposite in2="hardAlpha" operator="out" />
            <feColorMatrix type="matrix" values="0 0 0 0 0 0 0 0 0 0 0 0 0 0 0 0 0 0 0.25 0" />
            <feBlend mode="normal" in2="BackgroundImageFix" result="effect1_dropShadow_75_11" />
            <feBlend mode="normal" in="SourceGraphic" in2="effect1_dropShadow_75_11" result="shape" />
        </filter>
    </defs>
</svg>